<svg fill="#000000" height="80" width="80" version="1.1" id="Capa_1" xmlns="http://www.w3.org/2000/svg" xmlns:xlink="http://www.w3.org/1999/xlink" viewBox="0 0 60 60" xml:space="preserve"><g id="SVGRepo_bgCarrier" stroke-width="0.9"></g><g id="SVGRepo_tracerCarrier" stroke-linecap="round" stroke-linejoin="round"></g><g id="SVGRepo_iconCarrier"> <g> <g> <rect x="5" y="47" width="2" height="13"></rect> <rect x="17" y="47" width="2" height="13"></rect> <rect x="11" y="51" width="2" height="2"></rect> <rect x="11" y="55" width="2" height="2"></rect> <path d="M11,38h2c2.8,0,5-2.2,5-5v-3c0-2.8-2.2-5-5-5h-2c-2.8,0-5,2.2-5,5v3C6,35.8,8.2,38,11,38z M8,30c0-1.7,1.3-3,3-3h2 c1.7,0,3,1.3,3,3v3c0,1.7-1.3,3-3,3h-2c-1.7,0-3-1.3-3-3V30z"></path> <path d="M53,39h-9h-1H17h-2H7c-3.9,0-7,3.1-7,7v14h2V46c0-2.8,2.2-5,5-5h1.3l2.8,7.4c0.1,0.3,0.5,0.6,0.9,0.6s0.8-0.3,1.1-0.6 l2.8-7.4H17c2.8,0,5,2.2,5,5v14h2V46c0-2-0.8-3.7-2.1-5h4.4l2.8,7.4c0.1,0.3,0.5,0.6,0.9,0.6s0.8-0.3,1.1-0.6l2.8-7.4h4.2 c-1.3,1.3-2.1,3-2.1,5v14h2V46c0-2.8,2.2-5,5-5h1h0.3l2.8,7.4c0.1,0.3,0.5,0.6,0.9,0.6s0.8-0.3,1.1-0.6l2.8-7.4H53 c2.8,0,5,2.2,5,5v14h2V46C60,42.1,56.9,39,53,39z M12.1,45.2L10.5,41h3.2L12.1,45.2z M30.1,45.2L28.5,41h3.2L30.1,45.2z M48.1,45.2L46.5,41h3.2L48.1,45.2z"></path> <rect x="41" y="47" width="2" height="13"></rect> <rect x="53" y="47" width="2" height="13"></rect> <rect x="47" y="51" width="2" height="2"></rect> <rect x="47" y="55" width="2" height="2"></rect> <path d="M47,38h2c2.8,0,5-2.2,5-5v-3c0-2.8-2.2-5-5-5h-2c-2.8,0-5,2.2-5,5v3C42,35.8,44.2,38,47,38z M44,30c0-1.7,1.3-3,3-3h2 c1.7,0,3,1.3,3,3v3c0,1.7-1.3,3-3,3h-2c-1.7,0-3-1.3-3-3V30z"></path> <rect x="29" y="51" width="2" height="2"></rect> <rect x="29" y="55" width="2" height="2"></rect> <path d="M29,25c-2.8,0-5,2.2-5,5v3c0,2.8,2.2,5,5,5h2c2.8,0,5-2.2,5-5v-3c0-2.8-2.2-5-5-5H29z M34,30v3c0,1.7-1.3,3-3,3h-2 c-1.7,0-3-1.3-3-3v-3c0-1.7,1.3-3,3-3h2C32.7,27,34,28.3,34,30z"></path> <path d="M56,10H41V6h2c0.6,0,1-0.4,1-1V1c0-0.6-0.4-1-1-1H17c-0.6,0-1,0.4-1,1v4c0,0.6,0.4,1,1,1h2v4H4c-2.2,0-4,1.8-4,4v15 c0,0.6,0.4,1,1,1h3v-2H2V14c0-1.1,0.9-2,2-2h16h20h16c1.1,0,2,0.9,2,2v14h-2v2h3c0.6,0,1-0.4,1-1V14C60,11.8,58.2,10,56,10z M18,2 h24v2H18V2z M21,10V6h18v4H21z"></path> <path d="M22,22v3h2v-2h12v2h2v-3c0-0.6-0.4-1-1-1H23C22.4,21,22,21.4,22,22z"></path> <rect x="23" y="16" width="8" height="2"></rect> <rect x="33" y="16" width="4" height="2"></rect> </g> </g> </g></svg>