<svg fill="#ffffff" width="80px" height="80px" viewBox="0 0 96 96" id="Layer_1_1_" version="1.1" xml:space="preserve" xmlns="http://www.w3.org/2000/svg" xmlns:xlink="http://www.w3.org/1999/xlink" stroke="#ffffff"><g id="SVGRepo_bgCarrier" stroke-width="0"></g><g id="SVGRepo_tracerCarrier" stroke-linecap="round" stroke-linejoin="round"></g><g id="SVGRepo_iconCarrier"><polygon points="43.8,7 34.2,7 31.8,11 46.2,11 "></polygon><rect height="2" transform="matrix(0.6002 -0.7999 0.7999 0.6002 -17.4002 37.191)" width="5" x="26" y="35"></rect><rect height="2" transform="matrix(0.6 -0.8 0.8 0.6 -13.8 44.4)" width="5" x="35" y="35"></rect><rect height="2" transform="matrix(0.6002 -0.7999 0.7999 0.6002 -10.203 51.5889)" width="5" x="44" y="35"></rect><path d="M27,31h24c1.657,0,3-1.343,3-3s-1.343-3-3-3h-3V14.121l9.834-9.834l2.318,1.545l1.109-1.664l-3-2 C57.864,1.903,57.337,1.956,57,2.293L46.586,13H30v12h-3c-1.657,0-3,1.343-3,3S25.343,31,27,31z M37,29h-2v-2h2V29z M43,29h-2v-2h2 V29z M49,29h-2v-2h2V29z M34,16.707h10V25H34V16.707z M29,27h2v2h-2V27z"></path><polygon points="65,24 62,25 61,28 79.33,28 78,26 76,25 74,22 71,21 68,22 "></polygon><polygon points="90,32 88,32 88,37 93.333,37 "></polygon><path d="M81,32v-2H59v16h2.101c0.465-2.279,2.484-4,4.899-4s4.434,1.721,4.899,4H81V32z"></path><path d="M88,71v-4h-2v4H64l-2.589,6.474C62.855,75.378,65.268,74,68,74c4.072,0,7.436,3.06,7.931,7h4.881 c1.039-1.79,2.973-3,5.188-3s4.149,1.21,5.188,3H94l-2.31-10H88z"></path><path d="M88,64.707v-0.171c0-2.091-0.814-4.057-2.293-5.536l-1.414,1.414C85.394,61.515,86,62.979,86,64.536v0.171H88z"></path><path d="M67.299,62h8.789c-0.244-1.19-0.418-2-0.418-2h-8L67.299,62z"></path><path d="M76.49,64h-9.563L66,69h11.4C77.168,67.518,76.816,65.65,76.49,64z"></path><path d="M90,84c0-2.209-1.791-4-4-4s-4,1.791-4,4c0,2.209,1.791,4,4,4S90,86.209,90,84z M85,84c0-0.552,0.448-1,1-1s1,0.448,1,1 c0,0.552-0.448,1-1,1S85,84.552,85,84z"></path><path d="M16,60v1h30v-1c0-1.1-0.9-2-2-2H18C16.9,58,16,58.9,16,60z"></path><path d="M37,84h-3v-3h10c1.1,0,2-0.9,2-2V63H16v3.086c2.249,0.388,4.099,2.063,4.668,4.339c0.019,0.074,0.033,0.15,0.043,0.226 l0.081,0.619l4.537,0.756C26.293,72.188,27,73.022,27,74v3c0,1.104-0.896,2-2,2h-3.08c0.367,0.624,0.639,1.298,0.821,2H28v3h-3v2h12 V84z M37,66h4v4h-4V66z M37,73h4v4h-4V73z M29,66h4v4h-4V66z M29,73h4v4h-4V73z M30,81h2v3h-2V81z"></path><path d="M29.445,49.168l1.109,1.664c1.485-0.99,3.405-0.99,4.891,0l1.109-1.664C34.396,47.729,31.604,47.729,29.445,49.168z"></path><path d="M30.553,52.105l0.895,1.789c0.973-0.486,2.133-0.486,3.105,0l0.895-1.789C33.915,51.34,32.085,51.34,30.553,52.105z"></path><path d="M28.553,46.05l0.895,1.789c2.225-1.112,4.881-1.112,7.105,0l0.895-1.789C34.662,44.657,31.338,44.657,28.553,46.05z"></path><path d="M54.837,74.555c1.439-2.16,1.439-4.95,0-7.109l-1.664,1.109c0.99,1.485,0.99,3.405,0,4.891L54.837,74.555z"></path><path d="M51.9,73.447c0.766-1.532,0.766-3.362,0-4.895l-1.789,0.895c0.486,0.972,0.486,2.133,0,3.105L51.9,73.447z"></path><path d="M57.956,75.447c1.393-2.785,1.393-6.11,0-8.895l-1.789,0.895c1.113,2.225,1.113,4.881,0,7.105L57.956,75.447z"></path><rect height="2" width="2" x="61" y="8"></rect><rect height="2" width="2" x="67" y="10"></rect><rect height="2" width="2" x="65" y="4"></rect><rect height="2" width="2" x="63" y="13"></rect><rect height="2" width="2" x="72" y="14"></rect><rect height="2" width="2" x="62" y="17"></rect><rect height="2" width="2" x="67" y="15"></rect><path d="M2,31c0,4.079,3.055,7.438,7,7.931V47h2v-8.069c3.945-0.493,7-3.852,7-7.931c-3.014,0-5.636,1.668-7,4.13v-6.199 c3.945-0.493,7-3.852,7-7.931c-3.014,0-5.636,1.668-7,4.13v-6.199c3.945-0.493,7-3.852,7-7.931c-3.014,0-5.636,1.668-7,4.13V12.5 l0.042-0.062c1.791-2.687,1.791-6.188,0-8.875L10,2L8.958,3.562c-1.791,2.687-1.791,6.188,0,8.875L9,12.5v2.63 C7.636,12.668,5.014,11,2,11c0,4.079,3.055,7.438,7,7.931v6.199C7.636,22.668,5.014,21,2,21c0,4.079,3.055,7.438,7,7.931v6.199 C7.636,32.668,5.014,31,2,31z"></path><path d="M86,38v-6h-3v12.031C83.912,42.806,85.359,42,87,42c2.414,0,4.434,1.721,4.899,4H94v-7h-7C86.448,39,86,38.552,86,38z"></path><circle cx="87" cy="47" r="3"></circle><circle cx="66" cy="47" r="3"></circle><path d="M74,82c0-3.314-2.686-6-6-6s-6,2.686-6,6s2.686,6,6,6S74,85.314,74,82z M65,82c0-1.657,1.343-3,3-3s3,1.343,3,3 s-1.343,3-3,3S65,83.657,65,82z"></path><path d="M27,94c0-3.866-3.134-7-7-7h-1.689C19.93,85.925,21,84.086,21,82c0-1.1-0.29-2.12-0.81-3H9.81C9.29,79.88,9,80.9,9,82 c0,2.086,1.07,3.925,2.689,5H10c-3.866,0-7,3.134-7,7H27z"></path><path d="M25,74l-6-1l-0.272-2.09C18.3,69.2,16.763,68,15,68s-3.3,1.2-3.728,2.91L11,73l-6,1v3h20V74z"></path></g></svg>