<svg fill="#000000" height="80px" width="80px" version="1.1" id="Layer_1" xmlns="http://www.w3.org/2000/svg" xmlns:xlink="http://www.w3.org/1999/xlink" viewBox="0 0 502 502" xml:space="preserve" stroke="#ffffff"><g id="SVGRepo_bgCarrier" stroke-width="0"></g><g id="SVGRepo_tracerCarrier" stroke-linecap="round" stroke-linejoin="round"></g><g id="SVGRepo_iconCarrier"> <g> <g> <g> <path d="M432.681,113.073c-0.091-2.523-1.167-4.966-2.946-6.745L325.268,2.894C323.413,1.065,320.838,0,318.232,0H79.301 c-5.523,0-10,4.477-10,10v482c0,5.523,4.477,10,10,10H422.7c5.522,0,10-4.477,10-10V113.434 C432.699,113.312,432.686,113.193,432.681,113.073z M328.232,33.973l70.155,69.46h-70.155V33.973z M412.7,482L412.7,482H89.301 V20h218.931v93.434c0,5.523,4.478,10,10,10H412.7V482z"></path> <path d="M263.856,206.382c-4.736,2.841-6.271,8.984-3.431,13.72l3,5c1.875,3.125,5.188,4.856,8.585,4.856 c1.751,0,3.524-0.46,5.135-1.427c4.736-2.841,6.271-8.984,3.431-13.72l-3-5C274.734,205.076,268.59,203.539,263.856,206.382z"></path> <path d="M251.07,306.152c-3.905-3.905-10.237-3.905-14.143,0c-3.905,3.905-3.905,10.237,0,14.143l8.787,8.787h-73.127 l10.551-16.73c2.946-4.671,1.547-10.847-3.124-13.793c-4.67-2.945-10.846-1.547-13.793,3.124l-20.222,32.064 c-1.943,3.081-2.057,6.975-0.298,10.165c1.759,3.19,5.114,5.17,8.756,5.17h90.78l-8.311,8.311 c-3.905,3.905-3.905,10.237,0,14.143c1.953,1.953,4.512,2.929,7.071,2.929s5.119-0.976,7.071-2.929l25.62-25.62 c3.905-3.905,3.905-10.237,0-14.143L251.07,306.152z"></path> <path d="M278.259,242.801l-7.811,35.38c-1.19,5.393,2.216,10.73,7.609,11.92c0.726,0.161,1.45,0.237,2.165,0.237 c4.59,0,8.725-3.179,9.755-7.846l2.607-11.81l36.829,58.398H303.75c-5.522,0-10,4.477-10,10s4.478,10,10,10h43.792 c3.643,0,6.997-1.98,8.756-5.17c1.76-3.189,1.646-7.083-0.298-10.165l-46.556-73.821l11.803,2.605 c5.386,1.191,10.729-2.216,11.92-7.61c1.19-5.393-2.216-10.73-7.609-11.92l-35.38-7.81 C284.799,234.005,279.45,237.408,278.259,242.801z"></path> <path d="M194.568,240.733c-1.19-5.393-6.524-8.799-11.92-7.61c-5.393,1.19-8.8,6.527-7.61,11.92l7.81,35.381 c0.572,2.59,2.149,4.847,4.384,6.274c1.62,1.034,3.489,1.571,5.381,1.571c0.72,0,1.442-0.078,2.156-0.235l35.38-7.81 c5.393-1.191,8.8-6.528,7.609-11.921c-1.19-5.393-6.521-8.798-11.921-7.609l-11.758,2.596l45.379-71.955 c2.946-4.671,1.548-10.847-3.124-13.793c-4.671-2.945-10.845-1.547-13.792,3.124l-45.357,71.921L194.568,240.733z"></path> <path d="M254,55h28c5.522,0,10-4.477,10-10s-4.478-10-10-10h-28c-5.523,0-10,4.477-10,10S248.477,55,254,55z"></path> <path d="M223,45c0-5.523-4.477-10-10-10h-96c-5.523,0-10,4.477-10,10s4.477,10,10,10h96C218.523,55,223,50.523,223,45z"></path> </g> </g> </g> </g></svg>