<svg width="80" height="80" viewBox="0 0 80 80" fill="none" xmlns="http://www.w3.org/2000/svg">
<g id="Frame 13" clip-path="url(#clip0_302_228)">
<path id="electrical-panel 1 (Traced)" fill-rule="evenodd" clip-rule="evenodd" d="M11.2259 0.180084C9.63036 0.751971 8.38299 1.87746 7.67751 3.38187L7.26578 4.26002V28.8699V53.4798L7.68141 54.3666C8.26299 55.6071 9.22364 56.5888 10.4454 57.1908C11.439 57.6805 11.5548 57.7004 13.6955 57.7491L15.9152 57.7994L15.9655 60.0275C16.0139 62.1692 16.0322 62.2769 16.4369 62.8067C17.2055 63.8135 17.4888 63.8707 21.7037 63.8707H25.4693V68.402V72.9334H21.0161C16.7711 72.9334 16.5482 72.9481 16.2503 73.2459C15.836 73.6603 15.836 74.5503 16.2503 74.9647C16.5502 75.2645 16.7711 75.2772 21.7167 75.2772H26.8706L27.3809 74.8214L27.8912 74.3654L27.9343 66.0712L27.9773 57.7768H29.0672H30.1569V66.1573C30.1569 71.9847 30.1025 74.7192 29.9786 75.1331C29.7411 75.9253 29.0245 76.7697 28.2276 77.1958L27.5787 77.5428L14.0111 77.621C0.808298 77.6971 0.437509 77.7072 0.221724 78.0024C-0.103127 78.4468 -0.0554699 79.2843 0.315788 79.6555C0.628607 79.9684 0.763454 79.9709 14.4958 79.929L28.36 79.8866L29.2534 79.4479C30.4832 78.8441 31.484 77.8227 32.081 76.5623L32.5788 75.5115L32.6266 69.6911L32.6744 63.8707H34.5407H36.407V71.506C36.407 78.9938 36.4133 79.1493 36.7309 79.553C37.1883 80.1346 38.1258 80.1346 38.5832 79.553C38.9036 79.1457 38.9071 79.0294 38.9071 68.459V57.7768H40.0009H41.0946V68.459C41.0946 79.0294 41.0981 79.1457 41.4185 79.553C41.8759 80.1346 42.8134 80.1346 43.2708 79.553C43.5884 79.1493 43.5947 78.9938 43.5947 71.506V63.8707H45.461H47.3273L47.3751 69.6911L47.4229 75.5115L47.9207 76.5623C48.5178 77.8227 49.5186 78.8441 50.7483 79.4479L51.6417 79.8866L65.5059 79.929C79.2383 79.9709 79.3731 79.9684 79.6859 79.6555C80.0572 79.2843 80.1048 78.4468 79.78 78.0024C79.5642 77.7072 79.1934 77.6971 65.9906 77.621L52.423 77.5428L51.7741 77.1958C50.9862 76.7745 50.2047 75.8611 49.9987 75.1209C49.9087 74.7975 49.8462 71.1429 49.8458 66.1754L49.8448 57.7768H50.9345H52.0244L52.0674 66.0712L52.1105 74.3654L52.6208 74.8214L53.1311 75.2772H66.2539C79.1684 75.2772 79.3817 75.2722 79.6892 74.9647C80.1036 74.5503 80.1036 73.6603 79.6892 73.2459C79.382 72.9387 79.1684 72.9334 66.9546 72.9334H54.5324V68.402V63.8707H58.298C62.5129 63.8707 62.7962 63.8135 63.5648 62.8067C63.9695 62.2769 63.9878 62.1692 64.0362 60.0275L64.0865 57.7994L66.3063 57.7491C68.4469 57.7004 68.5627 57.6805 69.5563 57.1908C70.7781 56.5888 71.7387 55.6071 72.3203 54.3666L72.7359 53.4798L72.7777 40.8758L72.8195 28.2718L72.405 27.9458C71.8815 27.5341 71.4053 27.5321 70.8873 27.9394L70.481 28.2591L70.4367 40.4788C70.3871 54.0858 70.4543 53.2639 69.2996 54.3853C68.979 54.6967 68.4608 55.0422 68.1482 55.1531C67.3043 55.4525 12.6904 55.45 11.8456 55.1505C11.1054 54.8881 10.0763 53.8591 9.81396 53.1189C9.51255 52.2684 9.51255 5.47145 9.81396 4.62096C10.0763 3.88079 11.1054 2.8517 11.8456 2.58935C12.6904 2.28982 67.3043 2.28732 68.1482 2.5867C68.4608 2.69764 68.979 3.04311 69.2996 3.35453C70.4371 4.45924 70.387 3.96657 70.4379 14.5277L70.4839 24.014L70.8887 24.3326C71.4054 24.739 71.882 24.7365 72.4058 24.3245L72.8208 23.9981L72.7784 14.1255L72.7359 4.25314L72.2281 3.22171C71.6261 1.99903 70.6453 1.03885 69.4038 0.456809L68.5171 0.0411749L40.1571 0.00836166C17.1057 -0.0183577 11.6903 0.0138305 11.2259 0.180084ZM13.3097 4.91347C13.0242 5.05409 12.6023 5.41613 12.3721 5.71802L11.9534 6.26693L11.9121 21.6179L11.8707 36.9688L12.2846 37.2945C12.8092 37.7071 13.2843 37.7076 13.8073 37.2962L14.2191 36.9724V22.1709C14.2191 10.867 14.2634 7.32508 14.4066 7.18195C14.5484 7.04007 17.0004 6.99445 24.4849 6.99445C34.1674 6.99445 34.3823 6.98789 34.6882 6.68194C34.8817 6.4885 35.0008 6.16115 35.0008 5.82255C35.0008 5.48395 34.8817 5.1566 34.6882 4.96316C34.382 4.6569 34.1698 4.65065 24.1021 4.65424C14.91 4.65737 13.7737 4.68471 13.3097 4.91347ZM38.4408 4.96066C38.0239 5.37754 38.0227 6.26631 38.4383 6.68194C38.746 6.9896 38.9591 6.99445 52.0792 6.99445C62.2374 6.99445 65.4522 7.03898 65.5952 7.18195C65.8677 7.45446 65.8677 50.2854 65.5952 50.5579C65.3225 50.8305 14.6792 50.8305 14.4066 50.5579C14.2694 50.4207 14.2191 49.1507 14.2191 45.8193V41.2685L13.8575 40.9286C13.374 40.4745 12.6504 40.487 12.2087 40.9572C11.8643 41.3239 11.8631 41.3471 11.9081 46.3994L11.9534 51.4734L12.3743 52.0249C13.2553 53.1795 10.9116 53.0892 40.0009 53.0892C69.0907 53.0892 66.7466 53.1795 67.6274 52.0246L68.0483 51.4729L68.089 29.0652C68.1343 4.09611 68.2174 6.03099 67.0619 5.14972L66.5102 4.72878L52.633 4.68721C38.8997 4.64612 38.7526 4.64893 38.4408 4.96066ZM19.5651 9.67185C18.4352 10.1061 17.3144 11.2499 16.8736 12.4182C16.4232 13.6129 16.4885 15.4804 17.0168 16.5045C17.5179 17.4759 18.637 18.5041 19.5439 18.8261L20.3129 19.0992V20.5471C20.3129 22.2317 20.5323 22.6198 21.4848 22.6198C22.4374 22.6198 22.6567 22.2317 22.6567 20.5471V19.0992L23.4258 18.8261C24.3327 18.5041 25.4518 17.4759 25.9529 16.5045C26.4812 15.4804 26.5465 13.6129 26.096 12.4182C25.1554 9.92451 22.1723 8.67011 19.5651 9.67185ZM38.4421 11.4638C37.3739 11.7508 36.498 12.2625 35.7505 13.0365C35.2848 13.5183 22.3234 35.6713 21.1155 38.0496C19.8496 40.542 20.7619 43.8526 23.1632 45.4815C24.7813 46.5792 24.0708 46.5376 40.4032 46.4906L55.0793 46.4484L55.9693 46.0312C58.3297 44.9248 59.8213 42.1054 59.3681 39.6067C59.2727 39.08 59.0863 38.4351 58.9539 38.1736C57.823 35.9394 44.7919 13.6424 44.3097 13.1163C42.832 11.5044 40.6149 10.8798 38.4421 11.4638ZM22.9572 12.2739C24.6296 13.5205 24.0454 16.2389 22.0125 16.6689C20.4629 16.9965 19.0368 15.8421 19.0368 14.2602C19.0368 12.2436 21.3464 11.0734 22.9572 12.2739ZM41.7829 14.2434C42.1534 14.4604 42.5854 14.8343 42.7431 15.0742C43.9909 16.9736 56.7647 39.3781 56.8951 39.8964C57.2354 41.2475 56.2773 43.1207 54.9342 43.7307C54.3304 44.0049 53.5718 44.0198 40.0349 44.0231C24.4321 44.0268 25.1655 44.0685 24.1658 43.1198C22.9611 41.9763 22.7338 40.3605 23.5568 38.792C25.1921 35.6752 37.4855 14.7066 37.8224 14.4593C38.9576 13.6258 40.5785 13.5374 41.7829 14.2434ZM40.2145 19.8146C39.6746 20.0818 38.9285 20.9863 35.6701 25.3228C33.526 28.1765 31.6897 30.6648 31.5894 30.8523C31.489 31.0398 31.4069 31.5153 31.4069 31.9089C31.4069 32.5056 31.4957 32.7216 31.9412 33.2083L32.4755 33.7919L34.5081 33.87L36.5408 33.9482L35.4636 36.4482C34.1412 39.5176 34.0959 40.1684 35.1279 41.2722C35.9408 42.1416 36.9817 42.3566 38.1383 41.8938C38.7107 41.6649 39.2208 41.0519 42.7275 36.3806C44.8974 33.49 46.7535 30.9737 46.8524 30.789C46.9513 30.6042 47.0323 30.1309 47.0323 29.7373C47.0323 29.1404 46.9435 28.9248 46.4977 28.4379L45.9632 27.8543L43.9316 27.7761L41.8998 27.698L42.9803 25.198C43.5747 23.8229 44.0611 22.5221 44.0613 22.3073C44.063 20.7551 42.8036 19.4944 41.252 19.4949C41.0365 19.4949 40.5696 19.6388 40.2145 19.8146ZM41.5634 22.0843C41.5634 22.1335 40.9306 23.6517 40.1571 25.458C39.3837 27.2643 38.753 28.894 38.7558 29.0795C38.7696 30.0178 39.4794 30.2762 42.0423 30.2762C43.1539 30.2762 44.0634 30.312 44.0634 30.3556C44.0634 30.5256 37.1416 39.6514 37.0127 39.6514C36.9374 39.6514 36.8758 39.6086 36.8758 39.5562C36.8758 39.5039 37.5086 37.9998 38.2821 36.2138C39.0555 34.4279 39.6884 32.8222 39.6884 32.6458C39.6884 32.4694 39.5188 32.1276 39.3115 31.8865C38.9352 31.4489 38.9308 31.4479 36.6552 31.3944C35.4015 31.3648 34.3757 31.3115 34.3757 31.2759C34.3757 31.2403 35.9314 29.1374 37.8327 26.603C40.8678 22.5571 41.5634 21.7146 41.5634 22.0843ZM25.4693 59.6518V61.5269H22.063C19.622 61.5269 18.6035 61.4737 18.4691 61.3394C18.3465 61.2167 18.2816 60.5686 18.2816 59.4643V57.7768H21.8755H25.4693V59.6518ZM36.407 59.6518V61.5269H34.532H32.657V59.6518V57.7768H34.532H36.407V59.6518ZM47.3448 59.6518V61.5269H45.4697H43.5947V59.6518V57.7768H45.4697H47.3448V59.6518ZM61.7201 59.4643C61.7201 60.5686 61.6552 61.2167 61.5326 61.3394C61.3982 61.4737 60.3797 61.5269 57.9387 61.5269H54.5324V59.6518V57.7768H58.1262H61.7201V59.4643ZM0.312507 73.2459C0.119065 73.4393 0 73.7667 0 74.1053C0 74.4439 0.119065 74.7712 0.312507 74.9647C0.613763 75.2659 0.833299 75.2772 6.40639 75.2772C11.9795 75.2772 12.199 75.2659 12.5003 74.9647C12.6937 74.7712 12.8128 74.4439 12.8128 74.1053C12.8128 73.7667 12.6937 73.4393 12.5003 73.2459C12.199 72.9446 11.9795 72.9334 6.40639 72.9334C0.833299 72.9334 0.613763 72.9446 0.312507 73.2459Z" fill="white"/>
</g>
<defs>
<clipPath id="clip0_302_228">
<rect width="80" height="80" fill="white"/>
</clipPath>
</defs>
</svg>
