<svg fill="#ffffff" width="80px" height="80px" viewBox="0 0 96 96" data-name="Your Icons" id="Your_Icons" xmlns="http://www.w3.org/2000/svg" stroke="#ffffff"><g id="SVGRepo_bgCarrier" stroke-width="0"></g><g id="SVGRepo_tracerCarrier" stroke-linecap="round" stroke-linejoin="round"></g><g id="SVGRepo_iconCarrier"><title></title><path d="M55.65,92.12H40.39l2-50a1,1,0,0,1,1-1,1,1,0,0,1,1,1l-2,47.88H53.57l-2-47.88a1,1,0,1,1,2-.08Z"></path><path d="M48.07,39.57a5.2,5.2,0,0,1-5.24-5.15V13.64A9.41,9.41,0,0,1,52.3,4.33h1V34.42A5.19,5.19,0,0,1,48.07,39.57ZM51.3,6.4a7.38,7.38,0,0,0-6.47,7.24V34.42a3.24,3.24,0,0,0,6.47,0Z"></path><path d="M72,52.73a1.07,1.07,0,0,1-.46-.11l-.64-.34L45.84,39.19a4.91,4.91,0,0,1-1.15-.83l-.15-.14a5,5,0,0,1-.87-6,4.9,4.9,0,0,1,1.22-1.49l.17-.13a5.17,5.17,0,0,1,3.23-1.12h.22a5.17,5.17,0,0,1,2.22.59l18.71,9.76A9.47,9.47,0,0,1,72.17,42a1,1,0,0,1-.1,1.42,1,1,0,0,1-1.41-.1,7.37,7.37,0,0,0-2.15-1.68l-18.7-9.75a3.11,3.11,0,0,0-1.4-.37h-.16a3.15,3.15,0,0,0-2,.76l-.19.15a3.21,3.21,0,0,0-.59.77A3.07,3.07,0,0,0,46,36.8l.13.13a2.61,2.61,0,0,0,.67.48L72.5,50.84A1,1,0,0,1,72,52.73ZM48.15,31.45h0Z"></path><path d="M72.94,52a1,1,0,0,1-1-1v-.17l.13-.33a.94.94,0,0,1,1.24-.59,1,1,0,0,1,.62,1.31l-.06.14A1,1,0,0,1,72.94,52Z"></path><path d="M23.9,53.32l-.46-.91a2.1,2.1,0,0,1-.15-.31,7.51,7.51,0,0,1-.33-.71,1,1,0,0,1,1.84-.8L50.05,37.41a3.1,3.1,0,0,0,1.36-4.21,3.18,3.18,0,0,0-.74-.94,3.26,3.26,0,0,0-2.09-.79h-.15a3.3,3.3,0,0,0-1.43.37L28.3,41.61a7.27,7.27,0,0,0-3.47,3.88,1,1,0,0,1-1.88-.7,9.34,9.34,0,0,1,4.43-5l18.7-9.76a5.37,5.37,0,0,1,2.23-.59h.21a5.29,5.29,0,0,1,4.63,2.73l.05.11A5.14,5.14,0,0,1,51,39.19l-2.1,1.1Z"></path><path d="M79.67,92H68.77l1.38-33.76a1,1,0,1,1,2,.09L70.85,90h6.73L76.29,58.37a1,1,0,0,1,1-1,1,1,0,0,1,1,1Z"></path><path d="M74.25,56.9a3.82,3.82,0,0,1-3.84-3.78V39.22a6.62,6.62,0,0,1,6.67-6.55h1V53.12A3.81,3.81,0,0,1,74.25,56.9Zm1.83-22.13a4.6,4.6,0,0,0-3.67,4.45v13.9a1.84,1.84,0,0,0,3.67,0Z"></path><path d="M91,66.19,72.6,56.6A3.75,3.75,0,0,1,71,51.48a3.87,3.87,0,0,1,5.17-1.56l12.51,6.53a6.5,6.5,0,0,1,2.76,8.88ZM74.39,51.48a1.85,1.85,0,0,0-1.62,1,1.75,1.75,0,0,0,.75,2.4l16.55,8.63a4.5,4.5,0,0,0,0-2.52,4.57,4.57,0,0,0-2.27-2.72L75.26,51.7A1.81,1.81,0,0,0,74.39,51.48Z"></path><path d="M58,66.19l-.47-.86a6.45,6.45,0,0,1-.5-5,6.54,6.54,0,0,1,3.26-3.9l12.51-6.53a3.87,3.87,0,0,1,5.17,1.56,3.75,3.75,0,0,1-1.59,5.12ZM74.55,51.48a1.84,1.84,0,0,0-.87.22l-12.5,6.52a4.55,4.55,0,0,0-2.28,2.72,4.41,4.41,0,0,0,0,2.52l16.54-8.63a1.8,1.8,0,0,0,.89-1.06,1.7,1.7,0,0,0-.14-1.34A1.83,1.83,0,0,0,74.55,51.48Z"></path><path d="M26.48,92H15.58L17,58.28a1,1,0,0,1,1-1,1,1,0,0,1,1,1L17.67,90H24.4L23.1,58.37a1,1,0,0,1,2-.09Z"></path><path d="M21.06,56.9a3.81,3.81,0,0,1-3.83-3.78V39.22a6.62,6.62,0,0,1,6.66-6.55h1V53.12A3.81,3.81,0,0,1,21.06,56.9Zm1.83-22.13a4.6,4.6,0,0,0-3.66,4.45v13.9a1.83,1.83,0,0,0,3.66,0Z"></path><path d="M37.8,66.19,19.41,56.6a3.76,3.76,0,0,1-1.58-5.12A3.87,3.87,0,0,1,23,49.92l12.51,6.53a6.54,6.54,0,0,1,3.26,3.9,6.45,6.45,0,0,1-.5,5ZM21.21,51.48a1.86,1.86,0,0,0-1.63,1,1.74,1.74,0,0,0-.13,1.34,1.8,1.8,0,0,0,.89,1.06l16.54,8.63a4.33,4.33,0,0,0,0-2.52,4.5,4.5,0,0,0-2.27-2.72L22.07,51.7A1.78,1.78,0,0,0,21.21,51.48Z"></path><path d="M4.78,66.19l-.47-.86a6.5,6.5,0,0,1,2.76-8.88l12.5-6.53a3.87,3.87,0,0,1,5.18,1.56,3.75,3.75,0,0,1-1.59,5.12ZM21.37,51.48a1.81,1.81,0,0,0-.87.22L8,58.22a4.57,4.57,0,0,0-2.27,2.72,4.41,4.41,0,0,0,0,2.52l16.54-8.63a1.76,1.76,0,0,0,.89-1.06A1.74,1.74,0,0,0,23,52.43,1.86,1.86,0,0,0,21.37,51.48Z"></path><path d="M78.62,23.26H62.24L62,23a6.38,6.38,0,0,1-2.51-4.59,5.1,5.1,0,0,1,1.47-3.79,5,5,0,0,1,3.51-1.48A7.88,7.88,0,0,1,72,7.6c3.17,0,5.54,2.2,6.1,5.57h2.87l.29.24A6.36,6.36,0,0,1,83.66,18a5.09,5.09,0,0,1-1.47,3.75h0A5,5,0,0,1,78.62,23.26ZM63,21.26H78.62a3,3,0,0,0,2.15-.89h0a3.07,3.07,0,0,0,.89-2.26,4.36,4.36,0,0,0-1.5-2.94H76.23l-.06-.94C76,12,74.84,9.6,72,9.6c-2.54,0-5.5,2-5.67,4.63l-.06.94H64.49a3,3,0,0,0-3,3.18A4.32,4.32,0,0,0,63,21.26Z"></path><path d="M32.06,28.64H15.72a5.68,5.68,0,1,1,0-11.36h0c.78-3.53,4.54-6.45,8.58-6.45,3.64,0,6.33,2.55,6.93,6.45h.78a5.68,5.68,0,1,1,0,11.36ZM15.72,19.28A3.67,3.67,0,0,0,12,23a3.68,3.68,0,0,0,3.68,3.68H32.06A3.67,3.67,0,0,0,35.74,23a3.68,3.68,0,0,0-3.68-3.68H29.44l-.06-.94c-.17-2.66-1.58-5.51-5-5.51-3,0-6.51,2.36-6.72,5.51l-.06.94Z"></path></g></svg>