<svg width="32" height="32" viewBox="0 0 32 32" fill="none" xmlns="http://www.w3.org/2000/svg">
<g id="Frame" clip-path="url(#clip0_192_13)">
<path id="Vector" d="M28 23.9995C28.0001 25.0198 27.6102 26.0016 26.9103 26.7439C26.2103 27.4862 25.2532 27.933 24.2347 27.9929L24 27.9995H22.6667C21.6464 27.9996 20.6646 27.6098 19.9223 26.9098C19.18 26.2099 18.7332 25.2527 18.6733 24.2342L18.6667 23.9995V19.9995C18.6666 18.9793 19.0564 17.9975 19.7564 17.2552C20.4563 16.5129 21.4135 16.0661 22.432 16.0062L22.6667 15.9995H24C24.468 15.9995 24.9173 16.0795 25.3333 16.2275V15.9995C25.3345 13.5511 24.3736 11.2003 22.6576 9.45376C20.9416 7.70727 18.6081 6.705 16.16 6.66302C13.712 6.62104 11.3454 7.54271 9.57059 9.22935C7.79575 10.916 6.75475 13.2325 6.672 15.6795L6.66667 15.9995V16.2262C7 16.1089 7.35467 16.0342 7.72133 16.0089L8 15.9995H9.33333C10.3536 15.9995 11.3354 16.3893 12.0777 17.0892C12.82 17.7892 13.2668 18.7463 13.3267 19.7649L13.3333 19.9995V23.9995C13.3334 25.0198 12.9436 26.0016 12.2436 26.7439C11.5437 27.4862 10.5865 27.933 9.568 27.9929L9.33333 27.9995H8C6.97972 27.9996 5.99798 27.6098 5.25565 26.9098C4.51332 26.2099 4.06652 25.2527 4.00667 24.2342L4 23.9995V15.9995C4.00115 12.8483 5.24181 9.82397 7.45401 7.57977C9.66622 5.33557 12.6724 4.05161 15.8233 4.00521C18.9742 3.95881 22.0169 5.1537 24.2942 7.33179C26.5716 9.50988 27.9007 12.4964 27.9947 15.6462L28 15.9995V23.9995Z" fill="white"/>
</g>
<defs>
<clipPath id="clip0_192_13">
<rect width="32" height="32" fill="white"/>
</clipPath>
</defs>
</svg>
