<svg fill="#ffffff" height="80px" width="80px" version="1.2" baseProfile="tiny" id="Layer_1" xmlns="http://www.w3.org/2000/svg" xmlns:xlink="http://www.w3.org/1999/xlink" viewBox="0 0 256 256" xml:space="preserve" stroke="#ffffff"><g id="SVGRepo_bgCarrier" stroke-width="0"></g><g id="SVGRepo_tracerCarrier" stroke-linecap="round" stroke-linejoin="round"></g><g id="SVGRepo_iconCarrier"> <title>Bratwurstbike</title> <title>Layer 1</title> <g> <path d="M199.5,204.4c-0.1,0-0.1,0-0.2,0h-0.1c-0.9,0-1.8,0.2-2.7,0.6c-2.9,1.1-4.8,4-4.8,7.1c0,4.3,3.5,7.8,7.8,7.8 c4.3,0,7.8-3.5,7.8-7.8S203.8,204.4,199.5,204.4z"></path> <path d="M237.6,122.2H148V54.5c0-0.1,0-0.2,0-0.4l76,0.3l0,0c1.4,0,2.7-1,3-2.3l-1.6-3.5L148,9.5c-0.8-0.4-1.8-0.4-2.7,0L63.1,47.9 c-1.3,0.6-2,2-1.7,3.5s1.5,2.4,3,2.4l77.6,0.3c0,0.1,0,0.2,0,0.4v149.1h-25l10.2-15.6h5.1c1.7,0,3.1-1.4,3.1-3.1 c0-1.6-1.4-3.1-3.1-3.1h-13.8c-1.7,0-3.1,1.4-3.1,3.1c0,1.6,1.4,3.1,3.1,3.1h1.2l-8.3,12.6l-37.6-75.2h8.4c1.7,0,3.1-1.4,3.1-3.1 c0-1.6-1.4-3.1-3.1-3.1H59c-1.7,0-3.1,1.4-3.1,3.1c0,1.6,1.4,3.1,3.1,3.1h8.1l19.7,39.5l-0.2-0.2L75.5,175 c-7.7-6.9-17.8-11.1-28.9-11.1c-23.7,0-43,19.3-43,43s19.2,42.8,42.9,42.8c22.7,0,41.2-17.7,42.9-39.9h16l-10.2,15.6h-5.2 c-1.7,0-3.1,1.4-3.1,3.1c0,1.7,1.4,3.1,3.1,3.1h13.8c1.7,0,3.1-1.4,3.1-3.1c0-1.7-1.4-3.1-3.1-3.1h-1.1l10.2-15.6h47.3 c0,0.4,0,0.8,0,1.2c0,21.6,17.6,39.2,39.2,39.2s39.2-17.6,39.2-39.2c0-1.4-0.1-2.9-0.3-4.3h12.8v-54.1v-30.4h-13.3V122.2z M46.5,243.5c-20.3,0-36.8-16.5-36.8-36.8s16.5-36.8,36.8-36.8c9.3,0,17.9,3.5,24.3,9.2l-25,23.3c-0.3-0.1-0.6-0.1-1-0.1 c-2.4,0-4.5,2-4.5,4.5c0,2.4,2,4.5,4.5,4.5c1.3,0,2.4-0.5,3.3-1.4h35.1C81.6,228.6,65.8,243.5,46.5,243.5z M53.4,203.6L75,183.5 c4.5,5.6,7.5,12.6,8.1,20.1H53.4z M89.3,203.6c-0.6-9.2-4.2-17.6-9.8-24.3l9.8-9.1l16.6,33.4L89.3,203.6L89.3,203.6z M199.3,244 c-18.2,0-33-14.8-33-33c0-0.4,0-0.8,0-1.2c0.1-1.5,0.2-3,0.4-4.4c0.1-0.6,0.2-1.2,0.3-1.7c3.4-14.7,16.5-25.6,32.2-25.6 c16.3,0,30,11.9,32.6,27.6c0.3,1.7,0.4,3.6,0.4,5.4C232.2,229.1,217.4,244,199.3,244z"></path> </g> </g></svg>