<svg width="80" height="80" viewBox="0 0 80 80" fill="none" xmlns="http://www.w3.org/2000/svg">
<g id="Frame 13">
<path id="solar-panel 1 (Traced)" fill-rule="evenodd" clip-rule="evenodd" d="M38.9663 0.436039C38.6698 0.812798 38.6425 1.05538 38.6425 3.30469C38.6425 5.55401 38.6698 5.79659 38.9663 6.17335C39.4235 6.75473 40.3607 6.75473 40.8179 6.17335C41.1144 5.79659 41.1418 5.55401 41.1418 3.30469C41.1418 1.05538 41.1144 0.812798 40.8179 0.436039C40.3607 -0.145346 39.4235 -0.145346 38.9663 0.436039ZM25.3767 6.05932C24.7694 6.83127 24.9077 7.11181 26.88 9.1087C28.5642 10.814 28.7526 10.9586 29.2897 10.9586C29.7332 10.9586 29.9499 10.8602 30.1962 10.547C30.8035 9.77506 30.6653 9.49452 28.6929 7.49763C27.0087 5.79237 26.8203 5.64773 26.2832 5.64773C25.8397 5.64773 25.6231 5.74613 25.3767 6.05932ZM51.0914 7.49763C49.119 9.49452 48.9808 9.77506 49.5881 10.547C49.8344 10.8602 50.0511 10.9586 50.4945 10.9586C51.0317 10.9586 51.2201 10.814 52.9043 9.1087C54.8766 7.11181 55.0149 6.83127 54.4075 6.05932C54.1612 5.74613 53.9446 5.64773 53.5011 5.64773C52.9639 5.64773 52.7755 5.79237 51.0914 7.49763ZM37.6367 9.4878C33.2979 10.4594 30.0203 13.6781 29.0178 17.9518C28.6278 19.6153 28.7813 22.2252 29.3716 23.9624L29.836 25.3292H24.3414C19.0193 25.3292 18.834 25.3394 18.4354 25.653C17.8856 26.0854 17.8607 26.996 18.3853 27.4889C18.7238 27.8067 18.8984 27.8284 21.1188 27.8284C23.2731 27.8284 23.4911 27.8536 23.4928 28.1018C23.4937 28.2522 23.3077 29.7282 23.0793 31.382L22.664 34.3889H15.1111C7.9608 34.3889 7.55827 34.3741 7.55827 34.1097C7.55827 33.9559 7.76805 32.6732 8.02453 31.259C8.45815 28.8681 8.52406 28.6574 8.96424 28.258C9.43722 27.8289 9.43972 27.8284 11.8215 27.8284C13.6711 27.8284 14.2793 27.7767 14.5347 27.5977C15.2579 27.0912 15.1022 25.8281 14.2743 25.4851C13.9771 25.362 12.995 25.3198 11.2809 25.3564C9.01298 25.4048 8.65793 25.4492 8.08264 25.7552C7.3174 26.1624 6.45579 27.1212 6.1979 27.8527C6.03545 28.3135 1.85891 51.312 1.23817 55.1638C0.878589 57.395 0.918733 58.3804 1.40936 59.3649C1.65851 59.8647 2.06948 60.371 2.4503 60.6467C3.76193 61.597 3.22459 61.5681 19.6143 61.5681H34.5813V63.5988V65.6294L33.2145 65.6303C32.4628 65.6308 31.5859 65.7039 31.2659 65.7928C30.3755 66.04 29.4131 66.8645 28.9256 67.7978C28.5434 68.5293 28.4894 68.805 28.4894 70.0209V71.4089L26.9664 71.4104C25.2215 71.4122 24.2678 71.7452 23.373 72.6654C22.4864 73.5768 22.2118 74.3602 22.1254 76.2232C22.0327 78.2241 22.2149 79.0375 22.8811 79.5981L23.3586 80H39.8921H56.4257L56.9032 79.5981C57.5767 79.0314 57.7543 78.2248 57.6506 76.2049C57.5541 74.3258 57.2884 73.567 56.4113 72.6654C55.5164 71.7452 54.5628 71.4122 52.8179 71.4104L51.2949 71.4089V70.0209C51.2949 68.805 51.2409 68.5293 50.8586 67.7978C50.3711 66.8645 49.4088 66.04 48.5184 65.7928C48.1983 65.7039 47.3216 65.6308 46.5698 65.6303L45.203 65.6294V63.5988V61.5681H49.7399H54.277L54.6603 61.1847C55.1528 60.6922 55.1789 59.8644 54.7149 59.4446C54.3954 59.1553 53.6921 59.1448 29.3447 59.0689L4.30317 58.9908L3.91594 58.627C3.41266 58.1542 3.35221 57.7735 3.55996 56.3861L3.73131 55.2419H39.8895H76.0476L76.1593 55.8668C76.2207 56.2104 76.284 56.8672 76.2999 57.3263C76.3249 58.0423 76.2701 58.2198 75.9143 58.5759L75.4994 58.9908L67.054 59.0689L58.6086 59.147L58.3101 59.5158C57.9288 59.9867 57.929 60.6503 58.3101 61.1212L58.6086 61.49L66.8473 61.5331C75.8961 61.5805 76.0647 61.5663 77.3305 60.6494C77.7148 60.371 78.125 59.8665 78.3749 59.3649C78.8654 58.3807 78.9055 57.3963 78.5466 55.1638C77.9364 51.3683 73.7494 28.3156 73.5864 27.8527C73.3288 27.1223 72.4678 26.1632 71.7016 25.7535L71.0545 25.4073L60.5029 25.364L49.9511 25.3209L50.4256 23.9582C50.866 22.6936 50.9002 22.4384 50.9022 20.4088C50.9041 18.53 50.853 18.068 50.5397 17.1286C49.2919 13.388 46.4212 10.6148 42.7819 9.63416C41.4042 9.26303 38.9523 9.19321 37.6367 9.4878ZM42.7317 12.2496C44.1421 12.7638 45.1808 13.4577 46.219 14.5791C47.7383 16.2201 48.4833 18.138 48.4833 20.4088C48.4833 21.9151 48.179 23.1808 47.5193 24.4184L47.0339 25.3292H39.8921H32.7504L32.2649 24.4184C30.976 22.0001 30.9616 18.9546 32.2273 16.4472C33.3776 14.1687 35.8498 12.3479 38.4863 11.8371C39.4332 11.6537 41.702 11.8741 42.7317 12.2496ZM20.409 19.1841C19.969 19.2778 19.4296 19.9521 19.4296 20.4088C19.4296 20.6005 19.5754 20.9424 19.7534 21.1688L20.0771 21.5804H22.788H25.4989L25.8225 21.1688C26.2483 20.6275 26.2318 20.135 25.7696 19.5975L25.3928 19.1592L23.0751 19.1345C21.8003 19.1211 20.6005 19.1433 20.409 19.1841ZM54.6173 19.1841C54.1773 19.2778 53.6379 19.9521 53.6379 20.4088C53.6379 20.6005 53.7837 20.9424 53.9617 21.1688L54.2854 21.5804H56.9963H59.7072L60.0308 21.1688C60.4566 20.6275 60.4401 20.135 59.9779 19.5975L59.6011 19.1592L57.2834 19.1345C56.0086 19.1211 54.8088 19.1433 54.6173 19.1841ZM38.6425 31.1087V34.3889H31.9258C28.2316 34.3889 25.209 34.3361 25.209 34.2718C25.2085 34.0233 26.0123 28.2085 26.0728 28.0237C26.1224 27.8719 27.5253 27.8284 32.3896 27.8284H38.6425V31.1087ZM54.1342 30.8744C54.3641 32.5067 54.5573 33.9652 54.5637 34.1156C54.5744 34.3719 54.1556 34.3889 47.8585 34.3889H41.1418V31.107V27.8249L47.4289 27.8658L53.716 27.9065L54.1342 30.8744ZM70.82 28.258C71.2602 28.6574 71.3261 28.8681 71.7597 31.259C72.0162 32.6732 72.226 33.9559 72.226 34.1097C72.226 34.3741 71.8235 34.3889 64.6732 34.3889H57.1203L56.705 31.382C56.4766 29.7282 56.2906 28.2522 56.2915 28.1018C56.2932 27.8455 56.7328 27.8284 63.32 27.8284H70.3466L70.82 28.258ZM22.2424 37.1615C22.243 37.312 22.0535 38.8231 21.8211 40.5199L21.3986 43.6049H13.6011H5.80365L5.88737 43.1753C5.93345 42.9391 6.20306 41.4279 6.48641 39.817L7.00172 36.8882H14.6214C21.7739 36.8882 22.2413 36.9049 22.2424 37.1615ZM38.6425 40.2465V43.6049H31.301C24.8595 43.6049 23.9595 43.576 23.9595 43.3692C23.9595 43.0422 24.7457 37.3238 24.8236 37.0834C24.873 36.9311 26.4003 36.8882 31.7648 36.8882H38.6425V40.2465ZM55.3855 39.9341C55.6173 41.5664 55.811 43.06 55.8159 43.2534L55.8248 43.6049H48.4833H41.1418V40.245V36.8849L48.0529 36.9257L54.9639 36.9663L55.3855 39.9341ZM73.2979 39.817C73.5812 41.4279 73.8508 42.9391 73.8969 43.1753L73.9806 43.6049H66.1832H58.3857L57.9632 40.5199C57.7307 38.8231 57.5413 37.312 57.5419 37.1615C57.543 36.9049 58.0103 36.8882 65.1628 36.8882H72.7825L73.2979 39.817ZM20.9954 46.2213C20.9974 46.2858 20.8083 47.7619 20.5751 49.5015L20.151 52.6646H12.1655H4.17992L4.77037 49.4234C5.09496 47.6407 5.363 46.1646 5.36597 46.1432C5.38018 46.0412 20.9921 46.1191 20.9954 46.2213ZM38.6425 49.3844V52.6646H30.6762C24.408 52.6646 22.7096 52.6231 22.7088 52.4694C22.7082 52.362 22.8976 50.8859 23.1301 49.1891L23.5526 46.1041H31.0976H38.6425V49.3844ZM56.6542 49.1891C56.8866 50.8859 57.0761 52.362 57.0755 52.4694C57.0747 52.6231 55.3763 52.6646 49.1081 52.6646H41.1418V49.3844V46.1041H48.6866H56.2317L56.6542 49.1891ZM74.4183 46.1432C74.4213 46.1646 74.6893 47.6407 75.0139 49.4234L75.6043 52.6646H67.6188H59.6333L59.2092 49.5015C58.976 47.7619 58.7868 46.2858 58.7889 46.2213C58.7921 46.1191 74.4041 46.0412 74.4183 46.1432ZM42.7038 63.5988V65.6294H39.8921H37.0805V63.5988V61.5681H39.8921H42.7038V63.5988ZM48.3391 68.5852C48.7633 69.0095 48.7957 69.1255 48.7957 70.2253V71.4089H39.8921H30.9886V70.2253C30.9886 69.1255 31.0209 69.0095 31.4452 68.5852L31.9018 68.1286H39.8921H47.8825L48.3391 68.5852ZM54.4007 74.1629C54.9383 74.5395 55.2 75.3235 55.2 76.5585V77.657H39.8921H24.5843V76.5585C24.5843 75.3235 24.846 74.5395 25.3836 74.1629C25.7133 73.9319 27.0679 73.9081 39.8921 73.9081C52.7163 73.9081 54.0709 73.9319 54.4007 74.1629Z" fill="white"/>
</g>
</svg>
