<svg width="80" height="80" viewBox="0 0 80 80" fill="none" xmlns="http://www.w3.org/2000/svg">
<g id="Frame 13" clip-path="url(#clip0_302_244)">
<path id="welding 1 (Traced)" fill-rule="evenodd" clip-rule="evenodd" d="M11.2074 1.63177C9.85091 2.98823 9.57561 3.34596 9.57561 3.75234C9.57561 4.495 10.8457 8.19532 11.2346 8.58617C11.4463 8.79889 13.4331 9.58252 16.458 10.6466C19.1429 11.5911 21.4288 12.4112 21.5377 12.4693C21.6788 12.5445 21.5687 12.826 21.1539 13.4499C20.8339 13.9312 20.5546 14.347 20.5333 14.3741C20.5119 14.4011 19.6402 14.077 18.5963 13.6538C16.8449 12.944 16.5929 12.8845 15.3376 12.8845C14.3198 12.8845 13.8219 12.9614 13.3609 13.1903C12.706 13.5156 11.8116 14.2974 11.5533 14.7706C11.4124 15.0287 10.907 14.8271 6.28503 12.6687L1.1727 10.2813L0.562251 11.4793C0.226615 12.1381 -0.0254727 12.6977 0.00205682 12.7225C0.0297464 12.7475 4.09964 14.6556 9.04647 16.9632L18.0408 21.1585L17.6755 21.9831C14.0898 30.0808 14.0136 30.2385 13.7548 30.1024C13.2667 29.846 1.4552 24.5026 1.27258 24.4555C1.12645 24.4179 -0.0936563 26.7294 0.0209434 26.8266C0.0382294 26.8411 3.25742 28.3085 7.17478 30.0874C13.7937 33.0932 14.3481 33.3162 15.0175 33.2411C15.6819 33.1667 16.8789 33.6321 30.4628 39.2466C38.5616 42.5938 45.242 45.382 45.308 45.4421C45.3741 45.5025 47.6185 52.6067 50.2958 61.2292C52.9729 69.8519 55.2346 77.0907 55.3217 77.3157C55.7935 78.5352 57.0959 79.3781 58.5177 79.384C60.5632 79.3925 62.0618 77.9313 62.0703 75.9199C62.073 75.2986 61.0233 71.5465 57.8437 60.8111L53.6136 46.5291L54.0795 45.9494C54.5768 45.3306 54.9345 44.134 55.4475 41.3743C55.7391 39.8064 55.7618 39.7571 56.5636 38.9551C57.0136 38.5049 57.5734 37.7524 57.8072 37.2831C58.2241 36.4465 58.2325 36.3678 58.2325 33.288C58.2325 30.2343 58.2224 30.137 57.8723 29.8161C57.6742 29.6346 54.6493 28.1685 51.15 26.5582C47.6509 24.9478 44.7878 23.5533 44.7876 23.4592C44.7875 23.1474 42.7748 19.1487 41.9446 17.811C38.3574 12.0301 32.6353 7.12471 26.3814 4.46907C24.1728 3.5313 13.8816 0 13.3571 0C12.9139 0 12.604 0.235121 11.2074 1.63177ZM18.6477 4.54557C25.4794 6.92816 26.5005 7.35759 29.2258 8.99399C33.8696 11.7825 38.3646 16.5043 40.626 20.9695L41.0731 21.852L39.9221 21.7939C38.8597 21.7403 38.3342 21.8599 37.4019 22.3671C37.3451 22.398 36.9582 21.8617 36.5421 21.1752C34.0071 16.9923 30.0137 13.3625 25.5812 11.2122C24.6568 10.7639 21.4914 9.54539 18.547 8.50438L13.1935 6.61205L12.8067 5.45149L12.4198 4.29109L13.1117 3.58604C13.4923 3.19823 13.8198 2.881 13.8395 2.881C13.859 2.881 16.0228 3.63006 18.6477 4.54557ZM26.0063 14.4956C26.8389 14.9855 27.5586 15.4873 27.6059 15.6104C27.6531 15.7334 27.5282 16.0707 27.3285 16.3601C27.1287 16.6493 26.9506 16.9071 26.9327 16.9332C26.8883 16.998 23.1803 15.5087 23.1803 15.4263C23.1803 15.3128 24.3422 13.6047 24.4193 13.6047C24.4595 13.6047 25.1737 14.0057 26.0063 14.4956ZM21.3797 17.729C24.3948 18.9275 26.8616 19.9844 26.8618 20.0775C26.8619 20.3847 24.5702 25.6089 24.4353 25.6089C24.1277 25.6089 19.9792 23.7838 19.9792 23.6485C19.9792 23.5667 20.2313 22.9267 20.5394 22.2259C21.1747 20.7811 21.2395 20.0964 20.7865 19.6143C20.6143 19.431 19.0024 18.5996 17.2045 17.7666C15.1686 16.8234 13.9631 16.18 14.0087 16.0609C14.1156 15.7826 15.2038 15.3708 15.5777 15.4673C15.7538 15.5127 18.3646 16.5305 21.3797 17.729ZM32.7628 20.4871C33.9392 22.0408 34.3898 22.7476 35.0667 24.1013C35.5835 25.1353 35.6067 25.2459 35.4146 25.7689C35.1632 26.4535 35.1259 27.4745 35.3473 27.6113C35.4369 27.6665 35.0947 28.1219 34.587 28.6229L33.664 29.5339L30.3828 28.1504C28.1454 27.207 27.1185 26.6972 27.1545 26.5481C27.1835 26.4276 27.8498 24.8281 28.635 22.9934C30.0685 19.6442 30.2889 18.7932 29.8226 18.4064C29.5323 18.1653 29.5161 17.8966 29.7762 17.6365C30.023 17.3897 31.4461 18.7481 32.7628 20.4871ZM47.9319 28.0497L55.6665 31.6109L55.669 32.7084C55.6709 33.5236 55.62 33.7851 55.4715 33.7253C53.232 32.8216 43.2663 28.3562 42.8407 28.0656C42.1824 27.616 40.5231 26.8989 40.1275 26.8932C39.6374 26.886 38.2255 26.206 38.2255 25.9772C38.2255 25.6974 38.5018 25.1461 38.831 24.7686C39.3602 24.1621 39.9513 24.3752 47.9319 28.0497ZM26.4615 29.4502C30.6597 31.2108 34.1925 32.6513 34.312 32.6513C34.8208 32.6513 35.3239 32.251 35.7592 31.4994C36.605 30.0395 38.2417 29.2748 39.7861 29.6176C41.7693 30.0581 43.0927 32.021 42.6946 33.9318C42.337 35.6483 42.3364 35.617 42.7308 36.048C42.9838 36.3247 44.6537 37.1012 47.8289 38.4184C50.4258 39.4958 52.6156 40.4361 52.6952 40.5083C52.9031 40.6967 52.2089 44.0053 51.8867 44.3614C51.7377 44.526 51.4024 44.6556 51.1252 44.6556C50.8368 44.6558 43.5765 41.7399 33.744 37.6751C24.4568 33.8356 16.84 30.6785 16.8181 30.6591C16.7722 30.6188 18.7225 26.2491 18.7863 26.2491C18.8094 26.2491 22.2632 27.6896 26.4615 29.4502ZM50.3097 34.4132C52.7746 35.4878 54.8572 36.4288 54.9376 36.5042C55.1157 36.6709 53.9564 37.7721 53.5997 37.7752C53.4628 37.7763 51.5718 37.0379 49.3972 36.1346L45.4439 34.4919L45.4506 33.4C45.4552 32.6379 45.5133 32.331 45.6427 32.3839C45.7448 32.4255 47.8449 33.3387 50.3097 34.4132ZM50.558 47.3764C50.9972 47.3764 51.0391 47.4406 51.42 48.6969C51.6403 49.4232 53.5499 55.848 55.6639 62.9741C59.2579 75.0902 59.4916 75.9549 59.2663 76.2987C58.9993 76.7064 58.2213 76.8058 57.9541 76.4665C57.8386 76.3194 49.6546 50.1942 48.7826 47.1883L48.6583 46.76L49.3772 47.0683C49.7727 47.2378 50.304 47.3764 50.558 47.3764ZM25.0344 51.3999C24.9957 51.5198 24.8996 52.1032 24.8207 52.6965C24.6591 53.9137 24.5435 53.7903 26.1413 54.1069C30.6924 55.0085 35.2578 58.0471 38.2126 62.1415C38.7684 62.9119 39.2539 63.542 39.2913 63.542C39.3586 63.542 41.0561 62.3318 41.3247 62.0924C41.5363 61.9038 39.2992 58.9783 37.8422 57.5382C35.6077 55.3297 33.3315 53.8146 30.4958 52.6483C28.0514 51.6428 25.1685 50.9839 25.0344 51.3999ZM60.7933 52.4982V53.7786H62.0738H63.3542V52.4982V51.2177H62.0738H60.7933V52.4982ZM73.5178 51.517C71.0838 52.2176 68.6193 54.2199 67.4832 56.4195C66.8835 57.5807 65.8199 60.9392 65.9961 61.1154C66.0512 61.1706 66.6293 61.3696 67.2807 61.5575L68.4651 61.8994L68.6207 61.4001C68.7063 61.1256 68.932 60.3609 69.122 59.7007C69.312 59.0404 69.6855 58.0881 69.952 57.5843C70.9242 55.7465 73.1032 54.2285 75.1311 53.9761L76.0786 53.8582L76.1251 52.5379L76.1716 51.2177L75.3248 51.2291C74.8592 51.2353 74.0459 51.365 73.5178 51.517ZM27.5018 60.1808V61.4613H28.7823H30.0627V60.1808V58.9004H28.7823H27.5018V60.1808ZM74.8782 61.4613V62.7417H76.1587H77.4391V61.4613V60.1808H76.1587H74.8782V61.4613ZM62.1268 63.9325C61.4957 64.1142 60.9342 64.308 60.879 64.3634C60.8238 64.4186 61.3635 66.5072 62.0784 69.0047C63.4951 73.9535 63.6462 74.2657 64.6264 74.2657C65.0987 74.2657 65.5859 73.9906 67.334 72.7369C68.5064 71.8959 69.4331 71.2656 69.3934 71.3364C65.6685 77.966 65.5239 78.3241 66.2855 79.0395C66.6536 79.3853 66.698 79.3875 73.3279 79.3875H80V78.107V76.8266H74.7305H69.461L72.1696 71.9553C75.0839 66.7143 75.2276 66.3268 74.5079 65.6506C73.7177 64.9084 73.3614 65.0689 69.2756 68.0069C67.2073 69.4941 65.4721 70.6646 65.4198 70.6078C65.3672 70.551 64.9089 69.0279 64.4008 67.2233C63.8928 65.4187 63.4315 63.8656 63.3757 63.7722C63.3072 63.6574 62.9018 63.7094 62.1268 63.9325ZM22.38 66.5558C22.38 68.052 22.2422 67.9424 24.3055 68.0884C27.2454 68.2963 30.733 69.8083 33.4461 72.0514C33.8544 72.3889 34.2627 72.6652 34.3535 72.6652C34.5212 72.6652 35.9814 70.9167 35.9836 70.7131C35.9856 70.5238 33.4048 68.5897 32.2235 67.895C29.7776 66.4571 26.7147 65.5067 24.0206 65.3498L22.38 65.2544V66.5558ZM47.9246 66.5126C47.3168 66.7249 46.7955 66.9227 46.7661 66.9523C46.7366 66.9818 47.0996 68.163 47.5731 69.5772L48.4337 72.1487L43.9329 70.6462C41.4575 69.82 39.2094 69.1439 38.9368 69.1439C38.2657 69.1439 37.7454 69.7149 37.7454 70.451C37.7454 70.9707 37.9824 71.2562 40.6248 73.9219L43.504 76.8266H40.6248H37.7454V78.107V79.3875H42.5192H47.2928L47.641 79.0171C47.8711 78.7719 47.9889 78.4425 47.9889 78.0433C47.9889 77.4891 47.837 77.2848 46.1219 75.5327C45.0951 74.4837 44.287 73.6255 44.3264 73.6255C44.3656 73.6255 45.6896 74.0576 47.2687 74.5858C48.8478 75.114 50.3635 75.5462 50.6369 75.5462C51.2653 75.5462 51.8302 74.973 51.8302 74.3355C51.8302 73.8083 49.3026 66.0962 49.136 66.1147C49.0773 66.1213 48.5321 66.3004 47.9246 66.5126ZM26.2214 75.5462V76.8266H27.5018H28.7823V75.5462V74.2657H27.5018H26.2214V75.5462Z" fill="white"/>
</g>
<defs>
<clipPath id="clip0_302_244">
<rect width="80" height="80" fill="white"/>
</clipPath>
</defs>
</svg>
