<svg width="80" height="80" viewBox="0 0 80 80" fill="none" xmlns="http://www.w3.org/2000/svg">
<g clip-path="url(#clip0_66_118)">
<path fill-rule="evenodd" clip-rule="evenodd" d="M10.4241 1.23917C9.09219 1.53228 7.67793 2.10318 7.21634 2.53378C6.94856 2.78373 6.84141 3.07368 6.84141 3.54893C6.84141 4.17782 6.95389 4.32663 8.89655 6.26946C10.7876 8.16046 11.0012 8.3246 11.5704 8.3246C12.3678 8.3246 13.007 7.72687 13.007 6.98134C13.007 6.55624 12.7827 6.2248 11.832 5.24431L10.6569 4.03252L11.4571 3.9117C12.7349 3.7189 14.8397 3.79506 15.9232 4.07351C17.8335 4.56426 19.3059 5.42261 20.7563 6.89102C22.9181 9.07947 23.8385 11.2989 23.8385 14.3236C23.8385 17.3457 22.8586 19.6785 20.6882 21.8231C19.3012 23.1937 17.6872 24.1255 15.9298 24.5703C14.6531 24.8936 12.0242 24.8929 10.7507 24.5693C7.08503 23.6374 4.03573 20.5873 3.09023 16.9064C2.81094 15.8196 2.73579 13.7173 2.92992 12.4302L3.05224 11.62L7.07137 15.6217C9.28199 17.8226 11.3156 19.7343 11.5906 19.8699C12.4766 20.3069 13.4159 20.3727 14.4559 20.0702C15.2894 19.8279 15.6247 19.588 16.977 18.2654C18.8825 16.4017 19.2326 15.7896 19.2326 14.3236C19.2326 12.8881 18.8765 12.2359 17.2081 10.6159C16.1186 9.55806 15.7829 9.32443 15.3514 9.32443C14.6206 9.32443 14.0068 9.96432 14.0068 10.7262C14.0068 11.2228 14.1935 11.5096 15.2566 12.6464C16.0311 13.4745 16.5064 14.1228 16.5064 14.3507C16.5064 14.875 13.8699 17.4897 13.3413 17.4897C13.0475 17.4897 11.7089 16.2582 8.08836 12.6572C3.35035 7.94484 3.21304 7.82469 2.56499 7.82469C1.65464 7.82469 1.25788 8.29361 0.637655 10.103C0.208063 11.3561 0.121578 11.895 0.0530897 13.7403C-0.014232 15.5518 0.029427 16.1442 0.319543 17.3579C1.53766 22.4555 5.48448 26.348 10.5061 27.4043C11.906 27.6987 14.6296 27.7319 15.8538 27.4694L16.7174 27.2841L18.5654 29.1322L20.4136 30.9803L18.1874 33.2284C15.9788 35.4589 15.962 35.4816 16.0621 36.1064C16.1873 36.8878 16.6917 37.3196 17.4794 37.3196C18.0531 37.3196 18.5189 36.8851 27.0844 28.3603L36.0863 19.4008L37.8892 21.2249L39.692 23.0487L27.5173 35.2234L15.3426 47.3981L13.5116 45.5728L11.6806 43.7474L13.3436 42.0574C14.8174 40.5597 15.0067 40.3004 15.0067 39.7785C15.0067 39.0031 14.5706 38.4995 13.7914 38.3747C13.1615 38.2737 13.1508 38.2819 10.7169 40.6998C8.46146 42.9406 8.27449 43.1729 8.27449 43.7341C8.27449 44.3018 8.48812 44.5548 11.5243 47.5796C14.4752 50.5196 14.8262 50.8172 15.3433 50.8172C15.8698 50.8172 16.3719 50.3588 22.0003 44.7386L28.0877 38.66L33.7534 44.3117C38.9402 49.4856 39.5177 50.01 40.5855 50.5153C41.6755 51.031 41.8668 51.0672 43.5017 51.0672C45.1229 51.0672 45.3337 51.0282 46.372 50.5363C47.7728 49.8727 48.8906 48.7476 49.5695 47.3178C50.0429 46.3212 50.0839 46.0949 50.0839 44.485C50.0839 42.8504 50.0476 42.6585 49.5323 41.5688C49.0339 40.5148 48.5357 39.9564 44.3659 35.7782C39.9448 31.3483 39.7244 31.154 39.1191 31.154C38.3008 31.154 37.6694 31.7452 37.6694 32.5114C37.6694 32.9941 38.1386 33.5229 42.1498 37.5597C44.9096 40.3374 46.7653 42.3382 46.9823 42.7703C47.2297 43.2635 47.3339 43.7831 47.3329 44.52C47.3295 46.7268 45.7265 48.3145 43.5017 48.3145C42.6069 48.3145 42.2736 48.23 41.5854 47.8289C41.0701 47.5285 38.7187 45.3045 35.4231 42.0004L30.094 36.6577L30.9792 35.7615L31.8644 34.8652L36.8355 39.835C39.7552 42.7538 41.9793 44.8481 42.2253 44.9097C43.1334 45.1377 44.1561 44.1235 43.9293 43.2199C43.8711 42.9882 41.679 40.666 38.8498 37.839L33.8725 32.8655L38.2773 28.4686C42.2701 24.483 42.8625 23.8171 44.6147 21.3472L46.5473 18.6226L49.3155 21.3808C50.8379 22.8977 52.2933 24.2172 52.5498 24.3127C52.8979 24.4423 53.1512 24.428 53.5496 24.256C53.8431 24.1294 55.4143 22.6816 57.041 21.0389C59.8764 18.1756 59.9988 18.0244 59.9988 17.3897C59.9988 16.7386 59.8785 16.6078 52.8751 9.64121C45.1604 1.96704 45.0761 1.89822 42.586 1.24967C41.4359 0.950218 39.2334 0.914058 37.9692 1.17418C36.6984 1.43563 34.5593 2.51561 33.5551 3.40279C31.7927 4.96002 30.2835 8.01782 30.0502 10.5042C29.9689 11.3696 29.9947 11.4592 30.4225 11.7957C31.0635 12.2999 31.6749 12.2511 32.439 11.6347C34.814 9.71919 37.7677 9.79118 39.7415 11.8128C40.1021 12.1823 40.3646 12.5134 40.3248 12.5489C40.2849 12.5844 39.165 13.3836 37.836 14.3251C35.9978 15.6272 34.7719 16.6785 32.7114 18.7198L30.003 21.4028L28.157 19.5568L26.311 17.7108L26.4912 16.7365C26.7506 15.3329 26.7128 13.0106 26.4062 11.5265C25.367 6.49575 21.504 2.53261 16.4607 1.32349C14.8467 0.936554 11.9805 0.896561 10.4241 1.23917ZM43.1223 4.42628C43.9178 4.79672 44.8446 5.62874 48.4622 9.22011L52.8396 13.5657L51.0052 15.4L49.1709 17.2344L44.9615 13.0513C42.6464 10.7505 40.4147 8.67671 40.0023 8.44275C38.5194 7.60173 35.989 7.2118 34.3505 7.57173C34.0678 7.63372 33.8367 7.63589 33.8367 7.5764C33.8367 7.29795 34.9124 5.95185 35.5571 5.42344C37.6491 3.70924 40.7149 3.30514 43.1223 4.42628ZM66.0811 3.93253C63.787 4.41762 61.1685 5.76172 59.4474 7.33778C58.5463 8.16313 58.4324 8.33827 58.4324 8.90084C58.4324 9.39192 58.5401 9.62688 58.9115 9.94632C59.6056 10.5432 60.2766 10.3822 61.4491 9.33726C63.5011 7.50841 66.2617 6.49159 69.1756 6.49159C72.22 6.49159 74.9781 7.49475 77.0769 9.36526C77.9012 10.1001 78.1517 10.2334 78.7076 10.2334C79.5236 10.2334 79.9954 9.72719 79.9954 8.85135C79.9954 7.34944 75.7314 4.61858 72.2954 3.91987C70.6936 3.59426 67.6522 3.60042 66.0811 3.93253ZM66.759 9.24644C64.5582 9.85034 62.1651 11.6139 62.1651 12.6315C62.1651 13.3626 62.7989 13.9903 63.5367 13.9903C63.928 13.9903 64.3579 13.7878 65.0025 13.2999C66.1786 12.4096 67.0859 12.0101 68.2834 11.8558C70.2586 11.6012 72.1491 12.1496 73.6113 13.4014C74.8248 14.44 76.2385 14.0604 76.2385 12.696C76.2385 11.8848 76.0609 11.662 74.594 10.6317C72.9606 9.48474 71.307 8.98665 69.1969 9.00598C68.3081 9.01432 67.2111 9.12246 66.759 9.24644ZM67.5402 14.6413C66.4877 15.1348 65.9978 15.6955 65.9978 16.4065C65.9978 17.6143 67.1914 18.1891 68.2474 17.4897C68.88 17.0708 69.6282 17.0708 70.1637 17.4897C71.6043 18.6166 73.3335 16.7056 72.0419 15.414C71.329 14.7012 70.6733 14.4415 69.4139 14.3732C68.502 14.3237 68.0931 14.3822 67.5402 14.6413ZM43.0498 18.7088L41.5555 20.7988L39.904 19.1359C38.5936 17.8163 38.3043 17.4424 38.5026 17.3242C38.64 17.2426 39.5774 16.5767 40.5855 15.8445L42.4186 14.5135L43.4812 15.5662L44.544 16.6187L43.0498 18.7088ZM55.7957 16.5355L56.6637 17.4144L54.8336 19.2389L53.0036 21.0632L52.1685 20.2409C51.7094 19.7886 51.3337 19.342 51.3337 19.2485C51.3337 19.0756 54.6673 15.6567 54.8357 15.6567C54.8864 15.6567 55.3183 16.0521 55.7957 16.5355ZM27.133 24.2772C26.6546 24.7616 26.2189 25.1385 26.1646 25.1149C26.1102 25.091 25.5643 24.5373 24.9513 23.8839L23.8366 22.6963L24.5277 21.6615L25.2185 20.6266L26.6106 22.0116L28.0029 23.3965L27.133 24.2772ZM61.3319 21.3355C60.3253 21.7906 59.5409 22.564 59.0635 23.572C58.6714 24.3998 58.6691 24.4425 58.6711 30.3208C58.6729 35.9108 58.6917 36.2777 59.0122 36.9863C59.1986 37.3987 59.5906 37.9891 59.8834 38.2981C60.5131 38.9633 61.8785 39.6482 62.5817 39.6518C63.5559 39.6568 64.3354 39.9853 64.6844 40.5375C65.108 41.2082 65.0341 42.3532 64.4136 44.7349C62.1498 53.4234 55.1064 60.4669 46.4179 62.7306C44.0361 63.3512 42.8911 63.425 42.2204 63.0014C41.669 62.6532 41.3417 61.8778 41.3327 60.8988C41.3211 59.6354 40.1543 58.0445 38.7525 57.3806C37.9248 56.9886 37.88 56.9861 32.0037 56.9861C26.1274 56.9861 26.0826 56.9886 25.2549 57.3806C24.2469 57.858 23.4735 58.6424 23.0184 59.649C22.7311 60.2844 22.6788 60.7478 22.6757 62.6837L22.672 64.9683L17.2703 65.0166L11.8685 65.0647L11.151 65.5693C10.7564 65.8468 10.2063 66.397 9.92887 66.7918C9.45945 67.4597 9.42429 67.6125 9.42429 68.9807C9.42429 70.349 9.45945 70.5018 9.92887 71.1697C10.6789 72.2368 11.5848 72.8026 12.8239 72.9777C13.4018 73.0593 14.0168 73.255 14.1906 73.4123C14.6332 73.8127 14.6141 74.8309 14.1561 75.2455C13.826 75.5444 13.4249 75.5658 7.28517 75.6121C0.895776 75.6602 0.757134 75.6682 0.387032 76.016C-0.134544 76.5059 -0.127879 77.4589 0.400529 77.9555L0.791961 78.3231L7.80191 78.2761L14.8117 78.2291L15.5294 77.7245C15.9242 77.4471 16.4742 76.8969 16.7517 76.5021C17.2211 75.8342 17.2563 75.6814 17.2563 74.3131C17.2563 72.9449 17.2211 72.7921 16.7517 72.1242C16.0096 71.0684 15.1115 70.5056 13.8417 70.3012C13.2475 70.2055 12.6291 70.0076 12.4674 69.8614C12.047 69.4808 12.0792 68.4515 12.5243 68.0484C12.8494 67.7539 13.2285 67.7274 17.7535 67.6823L22.6323 67.6336L22.7435 68.2655C23.5868 73.0565 27.2215 76.9278 31.9417 78.0621C32.9862 78.3131 33.8404 78.3374 39.0238 78.2635C43.9896 78.1926 45.1974 78.1265 46.6908 77.8435C53.3493 76.5822 58.8705 74.1857 64.1648 70.2588C66.2008 68.7486 70.4315 64.5178 71.9418 62.4819C76.8901 55.8104 79.6588 48.1873 79.9475 40.4397C80.0439 37.8535 80.0392 37.8043 79.6581 37.3986C79.1332 36.84 78.1983 36.8323 77.6814 37.3826C77.3473 37.7382 77.2938 38.0349 77.16 40.2722C77.0779 41.6435 76.9282 43.2835 76.8272 43.9168C74.9941 55.4224 68.1401 65.217 57.9159 70.9422C53.9634 73.1553 49.0076 74.7449 44.2516 75.3248C43.3351 75.4366 40.4856 75.5359 37.9193 75.5454C32.7547 75.5648 32.288 75.4964 30.2567 74.4233C29.0842 73.8041 27.4145 72.2195 26.7746 71.119C26.338 70.368 25.8289 69.0554 25.606 68.1059L25.4985 67.6476H30.3885H35.2783L35.6407 67.262C36.1371 66.7335 36.1262 65.8218 35.6174 65.3437C35.2391 64.9884 35.135 64.9814 30.2673 64.9814H25.303L25.3624 62.9939C25.4293 60.7452 25.647 60.2311 26.687 59.8666C27.4138 59.612 36.3111 59.5745 37.2036 59.8223C37.998 60.0429 38.4591 60.6405 38.5899 61.6187C38.851 63.5732 39.5872 64.7785 40.984 65.5387C42.1279 66.1614 43.1461 66.2505 45.1146 65.9004C49.8003 65.0674 54.3592 62.8818 58.2881 59.585C62.957 55.6674 66.5037 49.5038 67.5834 43.4317C67.9338 41.461 67.8443 40.445 67.2186 39.2957C66.441 37.8668 65.3124 37.1788 63.3016 36.9078C62.3229 36.776 61.7259 36.3147 61.5052 35.5207C61.2575 34.6282 61.2949 25.7309 61.5496 25.004C61.914 23.9641 62.4281 23.7464 64.6769 23.6794L66.6643 23.6201V28.6077V33.5954L67.0499 33.9578C67.5785 34.4542 68.4902 34.4432 68.9683 33.9345C69.3232 33.5566 69.3306 33.4494 69.3306 28.6821V23.8156L69.7888 23.9231C72.3354 24.5208 74.3142 25.8412 75.6413 27.8285C76.5315 29.1618 76.9862 30.4373 77.1804 32.1455C77.3725 33.837 77.7018 34.3201 78.6623 34.3201C79.6383 34.3201 79.9954 33.8067 79.9954 32.4036C79.9954 28.2848 77.2127 24.061 73.2465 22.1597C71.0757 21.119 70.2547 20.9886 65.9038 20.9927C62.4216 20.9961 62.0152 21.0266 61.3319 21.3355ZM23.0899 25.9895L24.2487 27.1573L23.3327 28.0735L22.4165 28.9895L21.0291 27.5949L19.6417 26.2002L20.6154 25.5286C21.1508 25.1592 21.6658 24.8491 21.76 24.8394C21.8541 24.8297 22.4525 25.3473 23.0899 25.9895Z" fill="black"/>
</g>
<defs>
<clipPath id="clip0_66_118">
<rect width="80" height="80" fill="white"/>
</clipPath>
</defs>
</svg>
