<svg width="80" height="80" viewBox="0 0 80 80" fill="none" xmlns="http://www.w3.org/2000/svg">
<g id="Frame 13">
<path id="air-conditioner 1 (Traced)" fill-rule="evenodd" clip-rule="evenodd" d="M4.26547 16.2106C2.55904 16.6247 0.902508 18.0768 0.300375 19.686C-0.0192294 20.5405 -0.0228275 20.7271 0.0181594 34.4229L0.0597721 48.2943L0.477464 49.1854C1.00951 50.3204 2.01244 51.3234 3.197 51.9051L4.12718 52.3617L11.2071 52.4069L18.2871 52.452L18.6771 52.062C19.1492 51.5899 19.1866 50.9015 18.7683 50.3845C18.4709 50.017 18.4507 50.015 14.6227 49.9682L10.7758 49.9214V48.9905V48.0597H34.3319H57.888L58.3453 47.6024C58.5968 47.3508 58.8025 47.0295 58.8025 46.8881C58.8025 46.5514 58.5022 45.9966 58.1904 45.7572C57.9978 45.6094 52.6507 45.5654 34.359 45.5617L10.7758 45.5566V44.618V43.6794H40.0299H69.2839V44.618V45.5566H65.5224H61.7606L61.3767 45.9407C60.8686 46.4487 60.8686 47.1677 61.3767 47.6756L61.7606 48.0597H65.5224H69.2839V48.9983V49.9369H45.761C22.5374 49.9369 22.2331 49.9408 21.8434 50.2473C21.6264 50.418 21.4043 50.7354 21.3497 50.9527C21.2206 51.4672 21.6283 52.2538 22.0814 52.3638C22.2735 52.4105 34.4685 52.4292 49.1816 52.4052L75.9326 52.3617L76.8237 51.944C77.9605 51.4112 79.0495 50.3222 79.5823 49.1854L80 48.2943V34.2148V20.1353L79.5679 19.2554C79.092 18.2865 77.9571 17.1295 77.0069 16.6447C76.6699 16.4728 75.9736 16.2521 75.4594 16.1541C74.7764 16.024 66.9691 15.9883 46.4692 16.0219L18.4136 16.0679L18.1147 16.4373C17.7003 16.949 17.7283 17.7304 18.1759 18.1509L18.5361 18.4894L46.9215 18.5301L75.3068 18.571L76.0457 19.0054C76.5249 19.287 76.9374 19.6995 77.219 20.1787L77.6534 20.9175V34.2148V47.5121L77.3166 48.1379C76.5475 49.567 75.733 49.9369 73.3564 49.9369H71.6305V45.8695C71.6305 42.0106 71.6144 41.786 71.3176 41.4892C71.0068 41.1784 70.7962 41.1764 40.0299 41.1764C9.26353 41.1764 9.05297 41.1784 8.74213 41.4892C8.44536 41.786 8.42925 42.0106 8.42925 45.8695V49.9369H6.70341C4.3268 49.9369 3.51222 49.567 2.74317 48.1379L2.40635 47.5121V34.2148V20.9175L2.84078 20.1787C3.12237 19.6995 3.5349 19.287 4.01408 19.0054L4.75294 18.571L9.60254 18.5309C12.2698 18.5088 14.6092 18.455 14.8013 18.4112C15.253 18.3084 15.6625 17.5216 15.533 17.0055C15.4784 16.7882 15.2562 16.4708 15.0393 16.3001C14.6643 16.0052 14.406 15.9903 9.85519 16.003C6.618 16.0121 4.80644 16.0794 4.26547 16.2106ZM38.8566 23.3666C38.0653 23.7993 37.8981 24.7695 38.5146 25.3488L38.8768 25.6889H50.4894H62.102L62.4859 25.3049C63.0026 24.7883 62.977 24.2074 62.4127 23.6432L61.9554 23.1859L50.5624 23.1906C42.6185 23.194 39.0748 23.2472 38.8566 23.3666ZM66.4712 23.3805C65.663 23.8026 65.5127 24.8512 66.1791 25.4152C66.4546 25.6482 66.8374 25.6889 68.7538 25.6889C70.7962 25.6889 71.0337 25.66 71.3176 25.376C71.7499 24.9438 71.7411 23.9604 71.3017 23.5621C71.0195 23.3064 70.6817 23.258 68.916 23.2209C67.4621 23.1904 66.7454 23.2372 66.4712 23.3805ZM21.6429 55.5612C21.1102 55.7771 20.9301 56.1263 20.7777 57.2398C20.5462 58.9301 19.6246 60.6391 18.285 61.8616C16.9272 63.1009 16.7591 63.6098 17.4723 64.323C18.0701 64.9208 18.3619 64.9192 19.2764 64.3135C21.3617 62.9323 23.2909 59.4345 23.2909 57.0349C23.2909 56.1566 23.1795 55.9129 22.6539 55.6412C22.1575 55.3844 22.0917 55.3793 21.6429 55.5612ZM30.0737 55.5675C29.283 55.8865 29.2356 56.1461 29.2356 60.1522V63.8841L29.7112 64.3596C30.1092 64.7576 30.2687 64.8194 30.6889 64.7382C31.7081 64.5414 31.7386 64.4086 31.7386 60.1791C31.7386 58.0877 31.6948 56.2625 31.6415 56.1233C31.5481 55.8799 30.7926 55.4017 30.534 55.4221C30.4652 55.4276 30.2581 55.493 30.0737 55.5675ZM39.9293 55.5673C39.1387 55.8866 39.0913 56.1461 39.0913 60.1522V63.8841L39.5485 64.3413C39.8001 64.5929 40.1203 64.7986 40.2603 64.7986C40.6469 64.7986 41.3876 64.3728 41.4971 64.0876C41.5505 63.9484 41.5943 62.1287 41.5943 60.044C41.5943 56.4456 41.5782 56.2361 41.2753 55.9112C41.0999 55.7228 40.8944 55.5687 40.8188 55.5687C40.7431 55.5687 40.5874 55.5379 40.4729 55.5004C40.3582 55.4627 40.1137 55.4929 39.9293 55.5673ZM49.0251 55.5892C48.338 55.9733 48.3211 56.0823 48.3211 60.118C48.3211 64.4152 48.3498 64.541 49.3708 64.7382C49.791 64.8194 49.9506 64.7576 50.3486 64.3596L50.8242 63.8841V60.1263C50.8242 56.4503 50.8165 56.3598 50.4722 55.9744C50.0535 55.506 49.4578 55.3472 49.0251 55.5892ZM57.4439 55.5664C56.9764 55.7594 56.7688 56.2039 56.7688 57.0117C56.7688 59.4346 58.6882 62.9259 60.7834 64.3135C61.6979 64.9192 61.9897 64.9208 62.5874 64.323C63.2903 63.6202 63.1281 63.0876 61.8626 61.9456C60.3414 60.5726 59.553 59.118 59.2781 57.1772C59.1215 56.0706 58.8412 55.6454 58.1768 55.5069C57.9617 55.462 57.6319 55.4888 57.4439 55.5664Z" fill="white"/>
</g>
</svg>
