<svg width="80" height="80" viewBox="0 0 80 80" fill="none" xmlns="http://www.w3.org/2000/svg">
<g id="Frame 13" clip-path="url(#clip0_302_194)">
<path id="sawing 1 (Traced)" fill-rule="evenodd" clip-rule="evenodd" d="M44.8364 3.06383C43.216 3.26671 41.8498 3.97726 40.7607 5.18361C40.2247 5.77725 33.8091 16.7208 33.2301 18.0286C32.5089 19.6581 32.6046 21.9082 33.4669 23.6052L33.8446 24.3483L32.0066 27.5251C30.9956 29.2725 30.1242 30.8417 30.07 31.0126C29.9528 31.3818 30.3404 32.1985 30.698 32.3357C31.2726 32.5562 31.8386 32.429 32.201 31.9979C32.402 31.7588 33.2614 30.3521 34.1104 28.8719C34.9595 27.3917 35.6913 26.1806 35.7365 26.1806C35.9712 26.1806 46.2397 32.2218 46.2305 32.3546C46.2247 32.4406 44.625 34.8944 42.6755 37.8074L39.1314 43.1039L37.8442 43.5397C31.7007 45.6198 26.9635 50.973 25.5797 57.3989L25.2532 58.9151L23.0768 61.3433C21.8797 62.6789 20.8525 63.7877 20.794 63.8074C20.6626 63.8515 15.6859 60.9908 15.6859 60.8711C15.6859 60.8237 18.9037 55.2096 22.8367 48.3956C27.891 39.6388 29.9876 35.8699 29.9876 35.541C29.9876 34.9694 29.3719 34.3084 28.8397 34.3084C28.6304 34.3084 28.3041 34.4341 28.1143 34.5877C27.9246 34.7414 26.7346 36.658 25.4701 38.847L23.1708 42.8269L19.0376 42.9173C14.6988 43.0122 13.8626 43.122 11.622 43.8915C9.04624 44.776 6.89035 46.1742 4.87185 48.2694C3.35117 49.8479 2.60576 50.8936 1.7003 52.7175C0.376874 55.3833 -0.100945 57.7539 0.0173768 61.0661C0.111159 63.6911 0.538648 65.5791 1.50726 67.6462C4.2285 73.4533 9.6516 77.2181 16.0766 77.7604C18.4657 77.9621 61.5163 77.9621 63.9054 77.7604C71.4097 77.1269 77.607 71.9799 79.4865 64.8198C79.9769 62.9522 80.1524 59.5053 79.8529 57.6275C79.2996 54.1586 77.0787 49.676 75.7709 49.3887C75.0699 49.2347 74.472 49.7035 74.4076 50.4574C74.3692 50.9094 74.4908 51.2165 75.0133 51.9858C77.6073 55.8057 78.2697 60.8653 76.7506 65.2571C76.0285 67.3447 74.9892 69.0204 73.372 70.705C68.2557 76.0344 60.3373 76.8615 54.1365 72.7142C52.7443 71.7831 50.6614 69.5776 49.7787 68.1001C48.8983 66.6263 48.0544 64.2882 47.7932 62.5993C47.5485 61.0163 47.6955 58.144 48.0997 56.6154C49.481 51.391 53.6011 47.2853 58.9037 45.8498C60.018 45.5482 60.6106 45.4908 62.5769 45.4941C65.8452 45.4997 67.6648 45.993 70.4208 47.6203C71.1245 48.0357 71.8414 48.3757 72.0143 48.3757C72.5528 48.3757 73.1442 47.7355 73.1614 47.134C73.1738 46.6959 73.0667 46.5005 72.5858 46.0849C71.8611 45.4586 69.6421 44.2988 68.3152 43.8532C65.7648 42.9964 66.0648 43.0158 53.7967 42.9181L42.3592 42.8269L45.4108 38.216C47.0892 35.68 48.4846 33.5819 48.5114 33.5535C48.5385 33.5252 49.0766 33.5886 49.7073 33.6944C50.5775 33.8406 51.0929 33.8448 51.844 33.7124C54.3605 33.2688 55.6428 32.137 57.6922 28.5508C58.4444 27.2347 59.1027 25.9867 59.1552 25.7774C59.2757 25.2975 58.874 24.6579 58.3198 24.4472C57.48 24.1281 57.1392 24.4641 55.6325 27.098C53.6247 30.6075 52.8895 31.2472 50.8538 31.2558C49.9873 31.2595 49.5965 31.1783 48.9782 30.8655C46.9976 29.8641 36.8879 23.9122 36.4403 23.4841C35.2396 22.3359 34.8693 20.2711 35.6066 18.8344C36.0698 17.9314 41.0616 9.26188 41.9665 7.78841C43.1091 5.92793 44.803 5.12172 46.5895 5.58797C47.5592 5.84102 59.1587 12.4861 59.9779 13.2579C60.7205 13.9574 61.2448 15.1398 61.2467 16.1184C61.2488 17.1375 61.0093 17.7975 60.0161 19.511C59.1437 21.0164 59.0441 21.5603 59.5427 22.0956C59.799 22.3706 60.0088 22.4358 60.5185 22.3986C61.105 22.3557 61.218 22.2754 61.6842 21.5697C61.9682 21.1398 62.5197 20.1503 62.9096 19.3708C63.522 18.1465 63.6302 17.782 63.7049 16.6936C63.8495 14.5834 63.0311 12.5483 61.5165 11.2519C60.7203 10.5703 49.1965 3.90958 47.9888 3.43286C46.9503 3.02288 46.0273 2.91487 44.8364 3.06383ZM45.2338 7.69853C44.5466 7.86422 44.1529 8.35141 42.6966 10.8387C41.3579 13.1249 41.1717 13.5319 41.1678 14.1814C41.1641 14.7996 41.2402 14.9963 41.6322 15.3815C42.0942 15.8355 52.3915 21.8678 53.7301 22.4686C54.3072 22.7276 54.51 22.7498 54.9899 22.606C55.7809 22.369 56.0131 22.0736 57.6361 19.2389C59.1491 16.5964 59.2998 16.0844 58.8093 15.2541C58.5048 14.7386 58.4867 14.7272 52.2608 11.1374C45.9143 7.47799 45.9915 7.51582 45.2338 7.69853ZM51.2777 13.4527C54.0535 15.057 56.3379 16.3806 56.354 16.3938C56.3965 16.429 54.5277 19.6693 54.3728 19.8288C54.3006 19.9033 51.9053 18.6151 49.0208 16.9506L43.7997 13.9375L44.8244 12.1635C45.4369 11.1031 45.926 10.4188 46.04 10.4624C46.1447 10.5028 48.5017 11.8482 51.2777 13.4527ZM38.6835 18.0643C38.3638 18.3158 38.2717 18.525 38.2717 19.001C38.2717 19.5323 38.3517 19.672 38.8722 20.049C39.8836 20.7816 40.6447 21.0634 41.1219 20.8821C42.0927 20.5129 42.2624 19.2905 41.425 18.7006C40.7622 18.2339 39.718 17.7402 39.3932 17.7402C39.2294 17.7402 38.91 17.8861 38.6835 18.0643ZM43.2848 20.9656C42.865 21.4992 42.8742 22.0042 43.3125 22.4856C43.9013 23.1322 51.5623 27.4773 52.1291 27.4861C53.0105 27.4995 53.5535 26.7286 53.2584 25.8824C53.1202 25.4862 52.4648 25.0518 48.8853 22.985C44.2801 20.3258 43.8967 20.1875 43.2848 20.9656ZM20.9417 46.6954C17.552 52.4762 13.4768 59.6541 13.31 60.1383C13.07 60.835 13.2331 61.804 13.6961 62.4305C14.0601 62.9233 19.5506 66.1504 20.2577 66.2871C21.0413 66.4387 21.8122 66.2266 22.4211 65.6919C22.7261 65.4242 24.0295 64.0229 25.3173 62.5782C27.6531 59.9579 27.6593 59.949 27.8128 58.9699C28.3988 55.2338 30.2858 51.6878 32.9719 49.2757C34.4221 47.9732 36.5544 46.6484 38.2325 46.0069L39.6003 45.4841L46.5558 45.4496C53.1752 45.4166 53.4927 45.428 53.126 45.684C50.8908 47.2447 49.307 48.8352 48.017 50.814L47.1689 52.1153L39.893 52.1601L32.6169 52.2051L32.3183 52.5742C31.9245 53.0606 31.9314 53.9145 32.3322 54.3152C32.6351 54.6181 32.8531 54.6278 39.3658 54.6278C43.0624 54.6278 46.0869 54.6541 46.0869 54.6863C46.0869 54.7185 45.9868 55.0284 45.8644 55.3751C45.0467 57.6931 44.9533 61.8364 45.6572 64.5922L46.0262 66.038H39.4347C33.003 66.038 32.8333 66.0458 32.4314 66.362C31.8497 66.8195 31.8497 67.7573 32.4314 68.2148C32.8344 68.5318 32.9966 68.5388 39.9748 68.5388H47.1064L48.0424 69.9645C49.1398 71.636 50.939 73.5063 52.5236 74.6226L53.6499 75.4162L35.4495 75.4149C17.1621 75.4137 15.4641 75.3695 13.4976 74.8438C12.1895 74.4942 9.81916 73.3636 8.67533 72.544C7.68421 71.8337 5.78028 69.942 5.15585 69.0468L4.80151 68.5388H8.69253H12.5834L12.9473 68.1517C13.4456 67.6212 13.4134 66.8544 12.873 66.3897C12.4696 66.0427 12.4054 66.038 7.97087 66.038H3.47762L3.14579 64.9829C2.60357 63.2588 2.43945 62.1538 2.44367 60.2548C2.44758 58.4474 2.79473 56.451 3.32585 55.1796L3.5564 54.6278H8.09717C12.4296 54.6278 12.6523 54.6135 12.9505 54.3152C13.4257 53.8401 13.4182 53.0149 12.9341 52.5177C12.649 52.2248 12.3888 52.202 8.80444 52.1561C6.70044 52.129 4.97907 52.0663 4.97907 52.0169C4.97907 51.9676 5.36155 51.4538 5.82889 50.8752C7.15388 49.2354 8.76333 47.9695 10.8404 46.9333C13.2419 45.7353 14.776 45.4397 18.6919 45.4206L21.6979 45.4059L20.9417 46.6954ZM60.5449 49.0681C58.078 49.5561 56.3033 50.501 54.5141 52.2792C53.3958 53.3907 53.0511 53.8598 52.4432 55.0972C51.4251 57.17 51.1723 58.2342 51.1809 60.4111C51.1891 62.4665 51.4467 63.634 52.2744 65.3662C53.3736 67.6662 55.2208 69.5065 57.5752 70.6467C59.51 71.5839 60.9899 71.8837 63.186 71.7837C66.1289 71.6494 68.5541 70.5981 70.6257 68.5587C72.3674 66.8439 73.5179 64.6839 73.9189 62.3755C74.4367 59.3952 73.4087 54.9648 72.0826 54.4606C71.3217 54.1713 70.4702 54.7432 70.4702 55.5436C70.4702 55.7146 70.6921 56.405 70.9635 57.0777C71.3688 58.0828 71.4697 58.58 71.5293 59.8649C71.6597 62.6745 70.8758 64.7214 68.9206 66.6766C67.0859 68.5113 65.1781 69.315 62.6488 69.3185C60.1685 69.3219 58.0806 68.4884 56.3891 66.8195C54.7028 65.1555 53.792 63.2137 53.6421 60.9623C53.462 58.2591 54.3145 56.0591 56.3108 54.0741C59.1354 51.2656 62.6392 50.6196 66.4188 52.2105C67.4005 52.6236 67.8076 52.6134 68.321 52.1625C68.7244 51.8081 68.6811 50.8559 68.2429 50.4455C66.9967 49.2785 63.0505 48.5725 60.5449 49.0681ZM61.0809 54.6752C59.5132 55.12 57.9345 56.4535 57.3135 57.8572C57.0476 58.4582 57.0297 58.6309 57.1925 59.0239C57.7072 60.2663 59.0489 59.9672 59.8639 58.428C60.1865 57.8191 61.3738 57.1113 62.236 57.0141C63.6089 56.8594 65.0007 57.6246 65.6456 58.8887C66.101 59.7815 66.0135 61.3783 65.4646 62.1892C64.8083 63.1589 64.0202 63.5986 62.8169 63.6666C61.29 63.7528 60.4974 63.2852 59.3411 61.6159C58.902 60.982 57.8843 60.9875 57.399 61.6266C56.5956 62.6842 58.3673 65.0522 60.5837 65.8837C61.8571 66.3614 63.7754 66.281 65.0269 65.6979C66.2677 65.1197 67.2492 64.1592 67.8521 62.9335C68.3227 61.9769 68.3601 61.7854 68.3601 60.3353C68.3601 58.922 68.3157 58.6795 67.9038 57.8405C66.9557 55.9095 65.0801 54.663 62.9354 54.5386C62.2652 54.4998 61.5009 54.5561 61.0809 54.6752ZM5.98801 59.5444C5.51629 60.0159 5.48237 60.7581 5.91298 61.1887C6.76578 62.0415 8.79272 61.672 8.89228 60.6455C8.99919 59.5442 8.59218 59.1606 7.31659 59.1606C6.52163 59.1606 6.31062 59.2216 5.98801 59.5444ZM34.833 59.4732C34.4011 59.9051 34.4099 60.8876 34.849 61.2856C35.1419 61.551 35.4778 61.5879 37.936 61.6254C40.9312 61.671 41.3177 61.5913 41.6702 60.8564C41.9061 60.3646 41.6763 59.5497 41.2354 59.3137C41.0781 59.2296 39.6436 59.1606 38.0476 59.1606C35.354 59.1606 35.1231 59.1831 34.833 59.4732Z" fill="white"/>
</g>
<defs>
<clipPath id="clip0_302_194">
<rect width="80" height="80" fill="white"/>
</clipPath>
</defs>
</svg>
