<svg width="80" height="80" viewBox="0 0 80 80" fill="none" xmlns="http://www.w3.org/2000/svg">
<g id="Frame 13" clip-path="url(#clip0_302_202)">
<path id="oosouji 1 (Traced)" fill-rule="evenodd" clip-rule="evenodd" d="M59.768 0.180657C59.0532 0.504017 58.2115 1.29897 57.8821 1.96164C57.603 2.5233 57.588 3.57984 57.5129 27.9413L57.4347 53.3354L56.6529 53.6013C56.2229 53.7475 55.4947 54.0581 55.0347 54.2912C54.5745 54.5245 54.1728 54.6901 54.142 54.6591C54.0702 54.5875 54.4837 47.1862 54.5619 47.1429C54.5939 47.1252 54.8313 46.9962 55.0893 46.8564C55.3473 46.7167 55.7166 46.2971 55.9102 45.9242C56.2226 45.3224 56.262 45.0168 56.262 43.2016C56.262 41.3887 56.2221 41.0791 55.9102 40.4709C55.5193 39.7086 54.7621 39.2143 53.9852 39.2143H53.5015L53.6624 38.4291C53.9894 36.8332 53.2487 34.9498 51.9131 33.9801C50.9366 33.2711 50.106 33.0586 48.6709 33.1507C47.6589 33.2157 47.4712 33.1876 47.345 32.952C47.0802 32.4571 45.6335 31.5211 44.6698 31.2212C43.6397 30.9005 42.5517 30.845 41.7582 31.0725C41.3724 31.1832 41.2511 31.1696 41.2511 31.0154C41.2511 30.9039 41.0058 30.3222 40.7058 29.7229C39.6696 27.6517 37.583 26.1345 35.2702 25.7707C31.9665 25.2511 28.5021 27.2886 27.4026 30.3982L27.1197 31.1983L26.5626 31.0439C26.2563 30.959 25.5278 30.9292 24.9439 30.9779C22.9789 31.1414 21.3759 32.1936 20.4529 33.9252C20.0078 34.7598 19.915 35.1151 19.858 36.2001C19.8097 37.1191 19.8629 37.7073 20.0444 38.2622C20.1841 38.6893 20.2984 39.0781 20.2984 39.1264C20.2984 39.1748 19.9994 39.2146 19.6338 39.215C18.8281 39.2156 18.0649 39.6487 17.6394 40.3466C17.3658 40.7953 17.3286 41.1363 17.3286 43.2016C17.3286 45.8488 17.4679 46.2877 18.5016 46.8977C18.857 47.1074 19.0471 47.3371 19.0467 47.5562C19.0462 47.7411 19.1604 49.9585 19.3005 52.4838L19.555 57.075L17.5873 59.0511C15.4849 61.1623 15.1362 61.7165 15.1418 62.9375C15.1515 65.0598 17.1012 66.6579 19.2038 66.2668C19.5908 66.1949 19.9364 66.1647 19.9717 66.1997C20.0069 66.2347 20.127 68.0756 20.2382 70.2906C20.4563 74.6307 20.617 75.8336 21.1071 76.7944C21.5948 77.7503 22.778 78.9132 23.814 79.4551L24.7547 79.947L48.8347 79.9897C62.0787 80.0132 73.0717 79.9946 73.2637 79.9483C73.8119 79.8163 74.6762 78.9687 74.8743 78.3684C75.2106 77.3489 74.623 71.4438 73.5319 64.8794C72.6858 59.789 72.0696 58.236 70.1097 56.2537C68.9661 55.097 68.0104 54.4732 66.365 53.8099L65.0965 53.2985L65.0184 37.3298L64.9402 21.3612L64.571 21.0622C64.0586 20.6474 63.2785 20.6762 62.8565 21.1252L62.5165 21.4872V37.1525V52.818H61.2656H60.0147V32.9598V13.1016H61.2656H62.5165V14.985C62.5165 16.7763 62.5353 16.8873 62.9004 17.2523C63.5775 17.9295 64.7088 17.5975 64.9461 16.6518C64.9944 16.4592 65.0129 13.242 64.9871 9.50243L64.9402 2.70343L64.4545 1.84343C63.7588 0.611752 62.8346 0.0630719 61.359 0.00599919C60.6581 -0.0212081 60.0719 0.0432137 59.768 0.180657ZM62.1553 2.81413C62.4088 3.09387 62.4432 3.51667 62.4854 6.86317L62.5323 10.5998H61.2736H60.0147L60.0197 6.88615C60.025 2.93813 60.054 2.7741 60.7965 2.49953C61.2897 2.31705 61.8152 2.4387 62.1553 2.81413ZM28.0076 8.33267C27.8232 8.46167 27.5533 8.93655 27.4077 9.38813C26.7667 11.3757 25.0817 13.5873 23.6531 14.3164C21.9841 15.1681 21.9299 16.4215 23.5232 17.3208C25.2423 18.291 26.4022 19.713 27.217 21.8492C27.743 23.2285 28.0829 23.578 28.8984 23.578C29.7138 23.578 30.0537 23.2285 30.5797 21.8492C31.396 19.7095 32.5541 18.2912 34.2813 17.3164C35.865 16.4226 35.7954 15.1487 34.1164 14.2989C33.3236 13.8977 31.9876 12.5764 31.4194 11.6315C31.1289 11.1486 30.7219 10.2791 30.5147 9.69945C30.3075 9.11965 29.9921 8.52203 29.8137 8.37161C29.4153 8.03574 28.4609 8.0151 28.0076 8.33267ZM12.5914 12.4782C12.3648 12.6563 12.0765 13.148 11.9267 13.6118C11.5589 14.7497 10.5536 16.746 9.89956 17.6369C9.08006 18.7534 7.51095 20.1519 6.43767 20.7225C5.30685 21.3237 5.1447 21.4969 5.0254 22.2318C4.89921 23.0096 5.22116 23.4272 6.49099 24.1329C7.93298 24.9343 9.75195 26.7747 10.579 28.2689C10.9359 28.9139 11.4779 30.0824 11.7834 30.8656C12.38 32.3953 12.6885 32.7065 13.5821 32.6811C14.4177 32.6574 14.7368 32.3062 15.27 30.8234C16.3897 27.7092 18.3283 25.282 20.6255 24.1179C21.5325 23.6583 22.0184 23.0657 22.0184 22.419C22.0184 21.7202 21.6925 21.3395 20.5448 20.6976C18.1302 19.3474 16.0049 16.5646 15.1279 13.6049C14.7306 12.2638 13.5375 11.7339 12.5914 12.4782ZM29.4456 13.1276C29.7036 13.5685 30.3457 14.3694 30.8725 14.9074L31.8302 15.8858L30.8618 16.8454C30.3292 17.3733 29.6872 18.1528 29.435 18.5776C29.1829 19.0023 28.9414 19.3499 28.8984 19.3499C28.8554 19.3499 28.6138 19.0023 28.3617 18.5776C28.1095 18.1528 27.4645 17.3703 26.9283 16.839L25.9534 15.8728L26.9177 14.9018C27.4481 14.3678 28.0931 13.5698 28.3511 13.1285C28.6091 12.6871 28.8554 12.326 28.8984 12.326C28.9414 12.326 29.1876 12.6868 29.4456 13.1276ZM15.4051 19.4989C15.9676 20.2477 17.5767 21.8028 18.123 22.1255L18.5613 22.3844L18.0617 22.751C16.5691 23.8461 14.827 25.9209 13.9735 27.6206L13.553 28.4578L12.8697 27.2586C11.9517 25.6478 10.6601 24.0786 9.50615 23.1719L8.55577 22.4253L9.07162 22.0368C10.5632 20.9142 12.6447 18.3448 13.2537 16.8745L13.4601 16.3762L14.2219 17.6571C14.6408 18.3615 15.1734 19.1904 15.4051 19.4989ZM36.1306 28.5799C37.7637 29.3475 38.8121 30.8751 39.0068 32.771C39.0883 33.5641 39.1835 33.8145 39.497 34.0611C40.0227 34.4746 40.3232 34.4482 41.3543 33.898C43.2124 32.9065 44.6811 33.4006 45.9947 35.4596C46.5244 36.2899 46.9853 36.3793 48.1162 35.8717C48.9489 35.498 49.1354 35.4674 49.6796 35.6139C50.3405 35.7918 51.0383 36.4827 51.1974 37.1166C51.322 37.6125 51.163 38.4322 50.8577 38.8678L50.6152 39.2143H37.0283H23.4416L23.0175 38.6585C22.7844 38.3526 22.5032 37.7545 22.393 37.3294C21.6512 34.4699 24.9406 32.304 27.3167 34.0872C27.8329 34.4746 28.5253 34.4416 28.9579 34.009C29.2222 33.7447 29.3431 33.3928 29.4191 32.6654C29.6469 30.4858 30.9502 28.8834 32.9562 28.3163C33.8684 28.0583 35.2683 28.1746 36.1306 28.5799ZM53.7602 43.1108V44.6617L48.4829 44.7168C43.8383 44.7651 43.1306 44.8051 42.5802 45.05C41.7344 45.4263 40.9909 46.1691 40.517 47.1107C39.7869 48.5616 38.6977 49.4191 37.3173 49.6296L36.6384 49.7331L37.9839 48.3436C39.5014 46.7767 39.758 46.2369 39.6559 44.8261C39.6057 44.1307 39.4759 43.7403 39.1292 43.2399C38.5898 42.4617 37.2602 41.7157 36.4149 41.7171C35.1667 41.719 34.6718 41.9985 32.9638 43.6674L31.322 45.2715L30.7747 45.0206C30.3149 44.8098 29.384 44.7613 24.9502 44.7172L19.6729 44.6649V43.1123V41.5598H36.7165H53.7602V43.1108ZM36.8996 44.4767C37.0569 44.619 37.1856 44.949 37.1856 45.2098C37.1856 45.6207 36.6532 46.2189 33.1984 49.6907C31.0054 51.8943 29.2111 53.8196 29.2111 53.9691C29.2111 54.3703 29.6311 55.111 29.9218 55.2227C30.6631 55.5071 30.9703 55.3284 32.7357 53.5866L34.4924 51.8535L35.6745 52.0521C38.5325 52.5324 41.2176 51.1572 42.6224 48.4937C43.0067 47.7651 43.2493 47.4897 43.6211 47.3601C43.9269 47.2534 45.6055 47.1889 48.0687 47.1889H52.025L51.9414 48.4789C51.8954 49.1884 51.5576 55.4336 51.1908 62.3572C50.4689 75.9848 50.5325 75.4335 49.5596 76.4823C49.3329 76.7266 48.866 77.0784 48.522 77.2642C47.9012 77.5991 47.8162 77.6019 37.2795 77.6469C30.0215 77.6779 26.4012 77.638 25.8372 77.5209C24.6903 77.2828 23.7964 76.5938 23.3414 75.5972C22.9986 74.8465 22.9501 74.391 22.6806 69.3925L22.3896 63.998L25.0967 61.2517C28.0241 58.2821 28.1445 58.0787 27.452 57.2737C27.2123 56.9951 26.9349 56.86 26.5815 56.85C26.1082 56.8365 25.7601 57.1361 22.5943 60.2817C20.6865 62.1773 18.9638 63.7772 18.7662 63.8369C18.2061 64.0064 17.6402 63.5542 17.6402 62.937C17.6402 62.4761 18.4575 61.6139 26.7515 53.3243C36.2708 43.8102 36.216 43.858 36.8996 44.4767ZM25.6917 50.9439L21.9402 54.6989L21.8378 53.1721C21.7815 52.3323 21.685 50.6425 21.6234 49.4171L21.5114 47.1889H25.4773H29.4431L25.6917 50.9439ZM63.6893 55.5542C65.2987 55.891 67.2664 56.9173 68.3122 57.9656C69.1201 58.7756 70.3347 60.8146 70.3347 61.3607C70.3347 61.5385 68.9437 61.5743 62.0245 61.5743H53.714L53.8157 59.8934L53.9173 58.2125L54.63 57.5531C56.6129 55.7185 60.4394 54.8743 63.6893 55.5542ZM71.2548 66.2261C72.0053 71.0403 72.6445 76.9835 72.4625 77.4574C72.3956 77.6319 71.9887 77.6798 70.5741 77.6798H68.7711V77.1405C68.7711 75.4499 67.659 68.9353 67.267 68.33C66.7721 67.5657 65.5925 67.5954 65.1711 68.3829C64.9957 68.7108 65.0266 69.0732 65.3881 70.9163C65.8485 73.2642 66.2614 76.1687 66.2661 77.0934L66.2693 77.6798H64.3929H62.5165L62.5142 73.2625C62.5117 68.5151 62.4698 68.2327 61.7111 67.869C61.2192 67.6331 60.4039 67.863 60.1678 68.3041C60.078 68.4718 60.0147 70.4694 60.0147 73.1349V77.6798H58.0489H56.0831L56.1808 76.7807C56.3936 74.82 56.7631 72.3643 57.0688 70.878C57.2457 70.018 57.3873 69.1159 57.3836 68.8735C57.3701 67.997 56.5808 67.5351 55.7149 67.8969C55.2658 68.0845 55.1451 68.2492 54.9417 68.9514C54.6496 69.9596 53.9796 73.9009 53.8434 75.4125C53.7891 76.0145 53.7069 76.771 53.6606 77.0934L53.5763 77.6798H52.7354H51.8943L52.217 77.133C52.8637 76.0369 52.9841 75.1988 53.2955 69.627C53.4637 66.6171 53.6018 64.1367 53.6026 64.1152C53.6032 64.0938 57.4999 64.0761 62.2617 64.0761H70.9197L71.2548 66.2261Z" fill="white"/>
</g>
<defs>
<clipPath id="clip0_302_202">
<rect width="80" height="80" fill="white"/>
</clipPath>
</defs>
</svg>
