<svg width="85" height="100" viewBox="0 0 85 100" fill="none" xmlns="http://www.w3.org/2000/svg">
<path id="Vector 1" d="M80.5299 98.1351C80.3959 98.6709 80.7217 99.2138 81.2575 99.3477C81.7933 99.4817 82.3362 99.1559 82.4702 98.6201L80.5299 98.1351ZM46 39.3777L45.5771 38.4715L46 39.3777ZM56.5 58.3776L56.0973 57.4623L56.5 58.3776ZM0.0524648 10.058C-0.124074 10.5813 0.157039 11.1486 0.680348 11.3252L9.20817 14.202C9.73147 14.3786 10.2988 14.0975 10.4754 13.5741C10.6519 13.0508 10.3708 12.4835 9.84747 12.307L2.26719 9.74974L4.8244 2.16946C5.00094 1.64615 4.71982 1.07881 4.19652 0.902275C3.67321 0.725736 3.10587 1.00685 2.92933 1.53016L0.0524648 10.058ZM3.20329 10.428C3.70395 10.1949 3.9208 9.59999 3.68764 9.09933C3.45449 8.59868 2.85962 8.38182 2.35896 8.61498L3.20329 10.428ZM5.89356 7.0756C5.38162 7.28281 5.13459 7.8658 5.34179 8.37774C5.549 8.88968 6.13199 9.13671 6.64393 8.9295L5.89356 7.0756ZM10.2205 7.60135C10.7438 7.42489 11.025 6.85759 10.8485 6.33425C10.6721 5.81092 10.1048 5.52972 9.58144 5.70619L10.2205 7.60135ZM13.341 4.57533C12.8069 4.71607 12.4881 5.2631 12.6288 5.79715C12.7696 6.3312 13.3166 6.65004 13.8507 6.50929L13.341 4.57533ZM17.5257 5.68692C18.0689 5.58756 18.4288 5.0666 18.3294 4.52333C18.2301 3.98006 17.7091 3.62019 17.1659 3.71955L17.5257 5.68692ZM21.0543 3.17892C20.5044 3.23055 20.1005 3.71816 20.1521 4.26803C20.2038 4.8179 20.6914 5.22179 21.2412 5.17016L21.0543 3.17892ZM24.9796 5.00041C25.5318 5.00306 25.9817 4.55749 25.9843 4.00521C25.987 3.45293 25.5414 3.00308 24.9891 3.00044L24.9796 5.00041ZM28.9352 3.2319C28.3865 3.16905 27.8907 3.56291 27.8278 4.11161C27.765 4.66031 28.1589 5.15606 28.7076 5.21891L28.9352 3.2319ZM32.3788 5.85874C32.9162 5.98592 33.455 5.65334 33.5822 5.1159C33.7094 4.57846 33.3768 4.03967 32.8394 3.91249L32.3788 5.85874ZM36.6371 5.06275C36.1195 4.87005 35.5437 5.1334 35.351 5.65097C35.1583 6.16855 35.4216 6.74434 35.9392 6.93705L36.6371 5.06275ZM39.3349 8.4503C39.8243 8.70624 40.4285 8.51699 40.6844 8.02759C40.9404 7.53819 40.7511 6.93397 40.2617 6.67803L39.3349 8.4503ZM43.6556 8.72841C43.2011 8.41464 42.5783 8.52872 42.2646 8.98321C41.9508 9.43771 42.0649 10.0605 42.5194 10.3743L43.6556 8.72841ZM45.4583 12.6686C45.8734 13.0328 46.5052 12.9915 46.8695 12.5763C47.2337 12.1611 47.1923 11.5293 46.7772 11.1651L45.4583 12.6686ZM49.6036 13.9307C49.2299 13.5241 48.5973 13.4975 48.1907 13.8712C47.7841 14.245 47.7574 14.8776 48.1312 15.2842L49.6036 13.9307ZM50.5275 18.1677C50.8596 18.6091 51.4865 18.6977 51.9278 18.3657C52.3692 18.0337 52.4578 17.4067 52.1258 16.9654L50.5275 18.1677ZM54.3473 20.2169C54.0562 19.7475 53.4398 19.603 52.9704 19.894C52.5011 20.1851 52.3565 20.8015 52.6476 21.2709L54.3473 20.2169ZM54.4961 24.5512C54.7473 25.043 55.3497 25.238 55.8415 24.9867C56.3334 24.7355 56.5284 24.1331 56.2771 23.6413L54.4961 24.5512ZM57.9245 27.2019C57.7119 26.6921 57.1264 26.4512 56.6166 26.6638C56.1069 26.8764 55.866 27.4619 56.0785 27.9716L57.9245 27.2019ZM57.4021 31.5102C57.5764 32.0342 58.1426 32.3177 58.6666 32.1433C59.1907 31.969 59.4742 31.4028 59.2998 30.8788L57.4021 31.5102ZM60.4028 34.6459C60.267 34.1106 59.7229 33.7867 59.1876 33.9225C58.6523 34.0583 58.3284 34.6023 58.4642 35.1377L60.4028 34.6459ZM59.2559 38.8252C59.3515 39.3691 59.87 39.7326 60.4139 39.637C60.9579 39.5414 61.3213 39.023 61.2257 38.479L59.2559 38.8252ZM61.7518 42.3721C61.7004 41.8222 61.213 41.4181 60.6631 41.4695C60.1132 41.5209 59.7091 42.0083 59.7604 42.5582L61.7518 42.3721ZM59.9385 46.3151C59.9375 46.8674 60.3844 47.3159 60.9367 47.3169C61.489 47.3179 61.9375 46.871 61.9385 46.3187L59.9385 46.3151ZM61.6978 50.2827C61.7675 49.7348 61.3798 49.2342 60.832 49.1645C60.2841 49.0948 59.7835 49.4825 59.7138 50.0304L61.6978 50.2827ZM58.9359 53.5878C58.7601 54.1113 59.0419 54.6783 59.5655 54.8542C60.089 55.03 60.656 54.7482 60.8318 54.2246L58.9359 53.5878ZM58.7661 57.9392C59.1423 57.5349 59.1195 56.9022 58.7152 56.5259C58.3109 56.1497 57.6781 56.1725 57.3019 56.5769L58.7661 57.9392ZM54.45 58.0717C53.9212 58.2311 53.6218 58.789 53.7812 59.3178C53.9407 59.8465 54.4986 60.1459 55.0273 59.9865L54.45 58.0717ZM51.0877 60.6412C51.6396 60.6224 52.0718 60.1597 52.0531 59.6077C52.0343 59.0558 51.5716 58.6235 51.0196 58.6423L51.0877 60.6412ZM47.5672 58.2974C47.0299 58.1695 46.4907 58.5013 46.3627 59.0385C46.2348 59.5758 46.5666 60.1151 47.1038 60.243L47.5672 58.2974ZM43.366 58.7955C43.849 59.0634 44.4577 58.8892 44.7257 58.4063C44.9936 57.9234 44.8194 57.3147 44.3365 57.0467L43.366 58.7955ZM41.5985 54.9632C41.2142 54.5666 40.5811 54.5568 40.1845 54.9411C39.7879 55.3255 39.778 55.9586 40.1624 56.3552L41.5985 54.9632ZM37.8606 52.9853C38.0839 53.4904 38.6745 53.7189 39.1796 53.4956C39.6847 53.2722 39.9131 52.6817 39.6898 52.1766L37.8606 52.9853ZM39.0299 48.9663C39.0444 48.4142 38.6085 47.955 38.0564 47.9406C37.5043 47.9261 37.045 48.362 37.0306 48.9141L39.0299 48.9663ZM38.0992 44.8879C37.8426 45.3769 38.031 45.9814 38.5201 46.238C39.0092 46.4946 39.6136 46.3061 39.8702 45.8171L38.0992 44.8879ZM41.9648 43.161C42.3712 42.7871 42.3976 42.1545 42.0237 41.7481C41.6498 41.3416 41.0172 41.3152 40.6107 41.6891L41.9648 43.161ZM43.8341 39.3708C43.3544 39.6446 43.1875 40.2553 43.4612 40.735C43.735 41.2147 44.3457 41.3816 44.8254 41.1078L43.8341 39.3708ZM48.1216 39.5736C48.6396 39.382 48.9042 38.8068 48.7125 38.2888C48.5209 37.7708 47.9457 37.5063 47.4277 37.6979L48.1216 39.5736ZM51.299 36.6453C50.755 36.7406 50.3913 37.2588 50.4866 37.8028C50.5819 38.3468 51.1001 38.7106 51.6441 38.6153L51.299 36.6453ZM55.2644 38.3378C55.8165 38.3499 56.2739 37.9121 56.286 37.3599C56.298 36.8078 55.8602 36.3504 55.3081 36.3383L55.2644 38.3378ZM59.3009 36.8214C58.7617 36.702 58.2277 37.0423 58.1084 37.5816C57.989 38.1208 58.3293 38.6547 58.8685 38.7741L59.3009 36.8214ZM62.339 39.8905C62.8474 40.1063 63.4345 39.8691 63.6503 39.3607C63.8661 38.8524 63.629 38.2653 63.1206 38.0495L62.339 39.8905ZM66.6567 39.9133C66.1904 39.6175 65.5725 39.7558 65.2767 40.2222C64.9809 40.6886 65.1192 41.3064 65.5856 41.6022L66.6567 39.9133ZM68.5452 43.797C68.965 44.1559 69.5962 44.1066 69.9551 43.6868C70.3141 43.267 70.2647 42.6358 69.845 42.2769L68.5452 43.797ZM72.6819 45.0305C72.3095 44.6226 71.677 44.5939 71.2692 44.9663C70.8613 45.3387 70.8326 45.9712 71.205 46.3791L72.6819 45.0305ZM73.5657 49.2699C73.8919 49.7155 74.5177 49.8123 74.9633 49.4861C75.4089 49.1599 75.5057 48.5341 75.1795 48.0885L73.5657 49.2699ZM77.3392 51.3608C77.0569 50.8862 76.4432 50.7302 75.9685 51.0125C75.4939 51.2949 75.3379 51.9085 75.6202 52.3832L77.3392 51.3608ZM77.3967 55.6918C77.6371 56.189 78.2351 56.3972 78.7323 56.1568C79.2295 55.9164 79.4377 55.3184 79.1973 54.8212L77.3967 55.6918ZM80.7559 58.4007C80.5552 57.8862 79.9753 57.6319 79.4608 57.8327C78.9463 58.0334 78.692 58.6133 78.8928 59.1278L80.7559 58.4007ZM80.1312 62.6824C80.294 63.2101 80.8539 63.5059 81.3816 63.343C81.9093 63.1802 82.2051 62.6203 82.0422 62.0926L80.1312 62.6824ZM83.0645 65.8602C82.938 65.3226 82.3995 64.9895 81.862 65.1161C81.3244 65.2427 80.9912 65.7811 81.1178 66.3187L83.0645 65.8602ZM81.8616 70.0095C81.9535 70.5541 82.4694 70.9212 83.014 70.8294C83.5586 70.7375 83.9256 70.2216 83.8338 69.677L81.8616 70.0095ZM84.3626 73.5367C84.3043 72.9875 83.8119 72.5895 83.2627 72.6478C82.7135 72.7061 82.3155 73.1985 82.3738 73.7477L84.3626 73.5367ZM82.6611 77.5157C82.687 78.0674 83.1552 78.4937 83.7068 78.4678C84.2585 78.4419 84.6848 77.9737 84.6589 77.4221L82.6611 77.5157ZM84.7303 81.3152C84.7357 80.7629 84.2924 80.3108 83.7402 80.3053C83.1879 80.2999 82.7358 80.7431 82.7304 81.2954L84.7303 81.3152ZM82.5891 85.0678C82.5533 85.6189 82.9712 86.0947 83.5223 86.1304C84.0734 86.1661 84.5492 85.7483 84.5849 85.1971L82.5891 85.0678ZM84.2301 89.0658C84.2951 88.5174 83.9032 88.0201 83.3547 87.9551C82.8063 87.8901 82.309 88.282 82.244 88.8305L84.2301 89.0658ZM81.7016 92.5724C81.6083 93.1168 81.9739 93.6337 82.5183 93.727C83.0626 93.8203 83.5796 93.4546 83.6728 92.9103L81.7016 92.5724ZM82.9201 96.7206C83.0407 96.1816 82.7016 95.6469 82.1626 95.5263C81.6236 95.4057 81.089 95.7449 80.9684 96.2838L82.9201 96.7206ZM1.44398 11.2737C2.03558 10.9805 2.62201 10.6987 3.20329 10.428L2.35896 8.61498C1.7628 8.89261 1.16183 9.18142 0.556019 9.48159L1.44398 11.2737ZM6.64393 8.9295C7.86013 8.43725 9.05223 7.99527 10.2205 7.60135L9.58144 5.70619C8.37435 6.1132 7.14513 6.56903 5.89356 7.0756L6.64393 8.9295ZM13.8507 6.50929C15.1053 6.17864 16.3302 5.90557 17.5257 5.68692L17.1659 3.71955C15.9183 3.94773 14.6434 4.23208 13.341 4.57533L13.8507 6.50929ZM21.2412 5.17016C22.524 5.0497 23.7699 4.99462 24.9796 5.00041L24.9891 3.00044C23.7121 2.99432 22.4006 3.05249 21.0543 3.17892L21.2412 5.17016ZM28.7076 5.21891C29.9746 5.36404 31.198 5.57932 32.3788 5.85874L32.8394 3.91249C31.5811 3.61474 30.2799 3.38593 28.9352 3.2319L28.7076 5.21891ZM35.9392 6.93705C37.1181 7.37599 38.2497 7.88277 39.3349 8.4503L40.2617 6.67803C39.1037 6.0724 37.8957 5.53138 36.6371 5.06275L35.9392 6.93705ZM42.5194 10.3743C43.5469 11.0836 44.5262 11.851 45.4583 12.6686L46.7772 11.1651C45.7893 10.2985 44.7492 9.48334 43.6556 8.72841L42.5194 10.3743ZM48.1312 15.2842C48.9773 16.2047 49.7759 17.1686 50.5275 18.1677L52.1258 16.9654C51.3365 15.9163 50.4962 14.9017 49.6036 13.9307L48.1312 15.2842ZM52.6476 21.2709C53.3106 22.3401 53.9265 23.4363 54.4961 24.5512L56.2771 23.6413C55.6834 22.4793 55.0406 21.3349 54.3473 20.2169L52.6476 21.2709ZM56.0785 27.9716C56.5675 29.1442 57.0084 30.3268 57.4021 31.5102L59.2998 30.8788C58.8909 29.6499 58.4329 28.4211 57.9245 27.2019L56.0785 27.9716ZM58.4642 35.1377C58.7796 36.3811 59.0431 37.614 59.2559 38.8252L61.2257 38.479C61.0043 37.2187 60.7304 35.9373 60.4028 34.6459L58.4642 35.1377ZM59.7604 42.5582C59.8821 43.8602 59.9406 45.1178 59.9385 46.3151L61.9385 46.3187C61.9408 45.0542 61.8789 43.7332 61.7518 42.3721L59.7604 42.5582ZM59.7138 50.0304C59.5441 51.3642 59.2815 52.5591 58.9359 53.5878L60.8318 54.2246C61.2272 53.0475 61.515 51.7202 61.6978 50.2827L59.7138 50.0304ZM57.3019 56.5769C56.9216 56.9856 56.5184 57.277 56.0973 57.4623L56.9028 59.2929C57.6066 58.9832 58.2272 58.5185 58.7661 57.9392L57.3019 56.5769ZM56.0973 57.4623C55.5467 57.7046 54.9968 57.9068 54.45 58.0717L55.0273 59.9865C55.6523 59.7981 56.2783 59.5677 56.9028 59.2929L56.0973 57.4623ZM51.0196 58.6423C49.8244 58.683 48.6647 58.5588 47.5672 58.2974L47.1038 60.243C48.3715 60.5449 49.7098 60.688 51.0877 60.6412L51.0196 58.6423ZM44.3365 57.0467C43.2966 56.4696 42.3723 55.7616 41.5985 54.9632L40.1624 56.3552C41.0777 57.2996 42.1603 58.1263 43.366 58.7955L44.3365 57.0467ZM39.6898 52.1766C39.2328 51.1428 39.0014 50.0575 39.0299 48.9663L37.0306 48.9141C36.9937 50.3267 37.2946 51.705 37.8606 52.9853L39.6898 52.1766ZM39.8702 45.8171C40.3395 44.9226 41.0236 44.0269 41.9648 43.161L40.6107 41.6891C39.5183 42.6941 38.686 43.7694 38.0992 44.8879L39.8702 45.8171ZM44.8254 41.1078C45.3209 40.8251 45.8529 40.5499 46.4229 40.2839L45.5771 38.4715C44.9603 38.7594 44.3796 39.0595 43.8341 39.3708L44.8254 41.1078ZM46.4229 40.2839C46.9903 40.0191 47.5567 39.7826 48.1216 39.5736L47.4277 37.6979C46.8103 37.9263 46.1932 38.184 45.5771 38.4715L46.4229 40.2839ZM51.6441 38.6153C52.8624 38.4019 54.0709 38.3117 55.2644 38.3378L55.3081 36.3383C53.9838 36.3094 52.6451 36.4095 51.299 36.6453L51.6441 38.6153ZM58.8685 38.7741C60.0451 39.0346 61.2039 39.4085 62.339 39.8905L63.1206 38.0495C61.8771 37.5216 60.6016 37.1094 59.3009 36.8214L58.8685 38.7741ZM65.5856 41.6022C66.5996 42.2454 67.588 42.9785 68.5452 43.797L69.845 42.2769C68.8193 41.3999 67.7549 40.6098 66.6567 39.9133L65.5856 41.6022ZM71.205 46.3791C72.0244 47.2764 72.8127 48.2413 73.5657 49.2699L75.1795 48.0885C74.3857 47.0042 73.5519 45.9832 72.6819 45.0305L71.205 46.3791ZM75.6202 52.3832C76.247 53.437 76.8402 54.541 77.3967 55.6918L79.1973 54.8212C78.6165 53.6201 77.9962 52.4655 77.3392 51.3608L75.6202 52.3832ZM78.8928 59.1278C79.3409 60.2761 79.7545 61.4619 80.1312 62.6824L82.0422 62.0926C81.6516 60.8267 81.222 59.5951 80.7559 58.4007L78.8928 59.1278ZM81.1178 66.3187C81.4011 67.5217 81.6497 68.7527 81.8616 70.0095L83.8338 69.677C83.6149 68.3784 83.3578 67.1054 83.0645 65.8602L81.1178 66.3187ZM82.3738 73.7477C82.5049 74.9833 82.6012 76.2399 82.6611 77.5157L84.6589 77.4221C84.5972 76.1073 84.4979 74.8115 84.3626 73.5367L82.3738 73.7477ZM82.7304 81.2954C82.7181 82.5379 82.6715 83.7959 82.5891 85.0678L84.5849 85.1971C84.6696 83.8888 84.7176 82.5943 84.7303 81.3152L82.7304 81.2954ZM82.244 88.8305C82.0975 90.0671 81.9171 91.3149 81.7016 92.5724L83.6728 92.9103C83.8942 91.6187 84.0795 90.3368 84.2301 89.0658L82.244 88.8305ZM80.9684 96.2838C80.8307 96.899 80.6846 97.5161 80.5299 98.1351L82.4702 98.6201C82.6289 97.9851 82.7788 97.3519 82.9201 96.7206L80.9684 96.2838Z" fill="white"/>
</svg>
