<svg width="32" height="32" viewBox="0 0 32 32" fill="none" xmlns="http://www.w3.org/2000/svg">
<g id="Frame" clip-path="url(#clip0_192_6)">
<path id="Vector" d="M29.3334 10.0469V22.6669C29.3334 23.6872 28.9436 24.6689 28.2436 25.4112C27.5437 26.1536 26.5865 26.6004 25.568 26.6602L25.3334 26.6669H6.66669C5.64641 26.6669 4.66467 26.2771 3.92234 25.5772C3.18001 24.8772 2.73321 23.9201 2.67335 22.9015L2.66669 22.6669V10.0469L15.26 18.4429L15.4147 18.5309C15.597 18.6199 15.7972 18.6662 16 18.6662C16.2029 18.6662 16.4031 18.6199 16.5854 18.5309L16.74 18.4429L29.3334 10.0469Z" fill="white"/>
<path id="Vector_2" d="M25.3333 5.33301C26.7733 5.33301 28.036 6.09301 28.74 7.23567L16 15.729L3.26001 7.23567C3.59432 6.6927 4.05363 6.23754 4.59962 5.90818C5.14561 5.57883 5.76245 5.38482 6.39868 5.34234L6.66668 5.33301H25.3333Z" fill="white"/>
</g>
<defs>
<clipPath id="clip0_192_6">
<rect width="32" height="32" fill="white"/>
</clipPath>
</defs>
</svg>
