<svg width="80" height="80" viewBox="0 0 80 80" fill="none" xmlns="http://www.w3.org/2000/svg">
<g id="Frame 15" clip-path="url(#clip0_107_213)">
<path id="rent 1 (Traced)" fill-rule="evenodd" clip-rule="evenodd" d="M33.2931 5.04122C26.8841 5.85839 21.8658 8.86017 18.5084 13.8847C17.9281 14.7531 17.6389 15.0222 16.839 15.4384C16.0841 15.8314 15.1658 16.647 12.656 19.1536C9.63145 22.1746 9.40271 22.4441 8.80382 23.6933C7.99759 25.3755 7.76291 26.3829 7.76697 28.1463C7.77182 30.2789 8.38633 32.1201 9.65817 33.8127L10.2713 34.6288L9.9116 35.6842C9.4877 36.9279 9.4188 39.0686 9.76098 40.3541C10.0497 41.4386 10.8217 42.8493 11.5803 43.6793C11.9245 44.0558 12.187 44.3765 12.1639 44.3919C12.1407 44.4074 9.90707 45.3211 7.20012 46.4225C1.54122 48.7248 1.32935 48.8235 0.764996 49.4204C-0.263254 50.508 -0.256223 51.6623 0.793902 54.2066C1.28732 55.4021 1.76122 56.2911 2.08058 56.6208C2.68791 57.2473 3.95021 57.6654 4.76988 57.5117L5.32517 57.4075V60.7163C5.32517 62.5759 5.3922 64.1504 5.47814 64.311C5.68422 64.696 6.49451 64.9651 6.93903 64.796C7.71573 64.5007 7.74197 64.3655 7.8251 60.2144L7.90322 56.3153L12.6687 54.3719C15.5931 53.1795 17.555 52.4609 17.7467 52.512C17.9185 52.5578 20.0982 53.4332 22.5903 54.4572L27.1214 56.3192L27.1619 64.2348L27.2023 72.1505L26.7442 72.6087L26.2861 73.0668H17.5331H8.78007L8.34164 72.6903C7.90619 72.3162 7.90275 72.2983 7.8251 70.0201C7.75104 67.8443 7.72807 67.7111 7.37808 67.428C6.85841 67.0075 6.08656 67.0423 5.65094 67.5061C5.30908 67.87 5.29892 67.9651 5.35033 70.3576C5.40079 72.7178 5.42283 72.8658 5.82516 73.5503C6.33889 74.424 7.14996 75.0665 8.10025 75.3524C9.16053 75.6716 25.8846 75.6655 26.9473 75.3455C27.9229 75.0519 28.6601 74.4676 29.1882 73.5693L29.6213 72.8325L29.666 65.1183L29.7107 57.4042L30.3075 57.4997C30.6624 57.5564 31.2235 57.5003 31.6908 57.3615C32.8309 57.023 33.4026 56.3058 34.2798 54.1137C35.2729 51.6323 35.2679 50.4869 34.2596 49.4204C33.6953 48.8235 33.4834 48.7248 27.8245 46.4225C25.1175 45.3211 22.8839 44.4074 22.8606 44.3919C22.8375 44.3763 23.0712 44.0896 23.3799 43.7548C23.6887 43.4199 24.0568 42.9524 24.1979 42.7162C24.339 42.4799 24.5073 42.2865 24.5716 42.2865C24.6362 42.2865 25.1307 42.529 25.6708 42.8252C27.9618 44.0822 31.0205 44.9607 33.9181 45.1939L35.2462 45.3008L36.3727 46.3653C37.6903 47.6104 38.4976 48.0632 39.602 48.1763C40.6404 48.2826 41.5114 48.0374 42.5297 47.3523L43.3517 46.7992L55.252 58.6987C66.4021 69.8482 67.1861 70.5982 67.6897 70.5982C67.9853 70.5982 69.7359 70.4111 71.5798 70.1826C73.9522 69.8884 75.0398 69.6896 75.2998 69.5029C75.5449 69.3266 76.3701 67.6809 77.7824 64.5515C79.8358 60.0016 79.9 59.8268 79.9729 58.591C80.0393 57.4648 80.002 57.2175 79.6495 56.4477C79.1572 55.3721 78.0719 54.1899 77.0846 53.6534C76.6743 53.4304 75.6092 53.0632 74.7175 52.8375C73.8259 52.6118 72.8428 52.2548 72.5328 52.0442C71.6226 51.4256 70.8293 51.6003 70.4895 52.4942C70.2987 52.9962 70.4609 53.486 70.9707 53.9476C71.5605 54.4816 72.2521 54.7704 74.1072 55.2571C75.671 55.6674 75.9179 55.7817 76.5351 56.3827C77.9849 57.7945 77.9603 58.0501 75.9424 62.555C75.0656 64.5124 74.302 66.165 74.2456 66.2274C74.1892 66.2899 68.467 60.6646 61.5297 53.7268L48.9165 41.1128L52.0042 38.028L55.092 34.9431L58.7936 38.654L62.4952 42.3646L62.9894 44.1615C63.5764 46.295 63.8486 46.8636 64.6461 47.6214C65.3449 48.2854 66.1894 48.7279 67.2574 48.9893C67.6766 49.0919 68.2456 49.3483 68.522 49.5593C69.6353 50.4083 70.7784 49.8141 70.6398 48.4582C70.5681 47.7568 69.1951 46.8301 67.7469 46.5056C66.294 46.18 65.9962 45.7838 65.3257 43.2845C65.089 42.4021 64.7151 41.3773 64.4947 41.0069C64.2743 40.6366 62.4794 38.7241 60.506 36.757L56.918 33.1805L57.4266 32.4602C58.0823 31.5317 58.2926 30.8847 58.2908 29.8027C58.2886 28.5633 57.7778 27.5926 56.4347 26.2756L55.3237 25.1861V24.1477C55.3237 21.8734 54.5526 18.7914 53.3831 16.3912C50.5723 10.6218 45.3388 6.57789 39.0742 5.33449C37.88 5.09747 34.2834 4.91498 33.2931 5.04122ZM39.4356 7.97348C45.9413 9.64874 50.6757 14.3675 52.3811 20.8761C52.5586 21.5535 52.7372 22.9266 52.8019 24.1127L52.9142 26.1728L54.3534 27.6604C55.7601 29.1144 55.7924 29.1647 55.7924 29.8952V30.6426L48.3317 38.0962C43.3318 43.0913 40.7293 45.5841 40.4413 45.6538C39.6812 45.8378 39.2127 45.5778 37.737 44.1527L36.2899 42.7553H35.1935C32.5412 42.7553 29.8588 42.0914 27.2386 40.7867L25.4808 39.9114V38.3532C25.4808 37.099 25.4033 36.5642 25.084 35.6128L24.6871 34.4307L26.852 32.2259C29.0776 29.9594 29.8065 29.0411 30.3429 27.8287C30.598 27.2517 30.7247 27.1304 31.0739 27.1288C31.3063 27.1279 31.8478 27.0329 32.2775 26.9181C34.8312 26.2348 36.7625 24.2914 37.4284 21.7348C38.0797 19.2345 37.3828 16.7513 35.5016 14.8689C32.737 12.1026 28.2076 12.0944 25.4511 14.8511C23.1453 17.1568 22.6573 20.4297 24.173 23.4208C24.7044 24.4695 26.1252 25.8537 27.1661 26.3371C27.6142 26.5451 27.9807 26.7771 27.9807 26.8528C27.9807 27.294 27.2209 28.2387 25.2816 30.2086L23.0975 32.4271L22.4026 31.8965C21.4873 31.1976 20.6263 30.7928 19.3873 30.4791C18.8287 30.3375 18.357 30.2089 18.3392 30.1931C18.1892 30.0613 17.7965 28.011 17.6603 26.6484C17.1779 21.8231 18.9299 16.7298 22.3436 13.0335C24.7955 10.3784 28.5706 8.32691 32.0431 7.76239C32.6876 7.65755 33.3204 7.5463 33.4493 7.51505C33.5782 7.48365 34.6329 7.48521 35.793 7.51834C37.3895 7.56396 38.2751 7.67458 39.4356 7.97348ZM32.0887 15.5698C33.1776 15.9773 34.0485 16.7351 34.6262 17.778C35.0391 18.5236 35.0896 18.761 35.0877 19.9434C35.0858 21.0761 35.0244 21.3879 34.6702 22.0626C34.0351 23.2724 32.99 24.1249 31.6369 24.537C31.3263 24.6317 31.3038 24.5669 31.2158 23.3199C31.1138 21.8732 30.561 20.012 29.8968 18.8788C29.6685 18.4891 29.0696 17.7299 28.5659 17.1915L27.6503 16.2126L28.0512 15.9498C29.1802 15.21 30.7358 15.0636 32.0887 15.5698ZM27.209 19.4244C27.6165 19.9552 28.0971 20.7831 28.277 21.2642C28.6135 22.1634 28.9018 24.3183 28.6857 24.3183C28.3984 24.3183 27.4737 23.6196 26.9033 22.9716C25.9456 21.8837 25.583 20.4092 25.8924 18.8619C26.0331 18.1585 26.3372 18.2883 27.209 19.4244ZM15.5686 20.7408C14.9144 23.569 14.9836 27.666 15.7272 30.1239C15.7872 30.3228 15.6138 30.445 14.9793 30.6509C14.0237 30.9611 13.317 31.3522 12.4268 32.0632L11.7944 32.5685L11.4367 32.0467C10.4566 30.6164 10.0057 28.5527 10.3114 26.8982C10.6516 25.0581 11.2411 24.1319 13.5649 21.7867C14.7366 20.6042 15.7188 19.6603 15.7475 19.6891C15.7763 19.7178 15.6958 20.1911 15.5686 20.7408ZM19.8958 33.2768C21.2411 33.935 21.2939 34.0891 20.3275 34.5367C19.5588 34.8928 19.4808 34.9008 18.9463 34.6775C18.6348 34.5474 17.9914 34.4385 17.5164 34.4357C13.5902 34.4121 12.1948 39.6153 15.5917 41.612C16.2331 41.989 16.5086 42.0521 17.5123 42.0521C18.516 42.0521 18.7915 41.989 19.4329 41.612C20.8425 40.7834 21.655 39.028 21.3156 37.5448L21.1616 36.8718L21.8642 36.5284C22.2504 36.3395 22.6206 36.2395 22.6865 36.3061C22.9192 36.5412 23.1042 38.3073 22.9787 39.0944C22.7339 40.63 21.8541 42.0467 20.6505 42.8431L20.0766 43.2229L19.189 42.911C18.0603 42.5143 16.9628 42.5148 15.831 42.9126L14.9385 43.2263L14.3115 42.7773C13.9665 42.5304 13.4209 41.985 13.099 41.5653C10.8314 38.6091 12.2582 34.1427 15.8442 32.9713C16.9144 32.6218 18.8563 32.7682 19.8958 33.2768ZM18.799 37.8115C19.2194 38.4644 18.3948 39.6303 17.5123 39.6303C16.6492 39.6303 15.8994 38.6321 16.1913 37.8716C16.2992 37.5901 18.6218 37.5365 18.799 37.8115ZM59.6031 55.2375C69.2975 64.9324 71.8655 67.5814 71.6337 67.6465C71.4715 67.6922 70.6096 67.8144 69.7186 67.9181L68.0983 68.1067L56.5566 56.5659L45.0149 45.0252L46.0636 43.9683C46.6405 43.3871 47.1495 42.9115 47.1952 42.9115C47.2406 42.9115 52.8242 48.4582 59.6031 55.2375ZM25.224 48.0429C29.1645 49.6571 32.4511 51.0895 32.5275 51.2261C32.624 51.3986 32.4548 51.9861 31.9716 53.1554C31.2683 54.8574 31.0599 55.1519 30.6369 55.0416C30.508 55.008 27.6253 53.8357 24.2309 52.4365C20.2558 50.798 17.8645 49.893 17.5123 49.8938C17.1651 49.8947 14.655 50.8445 10.6377 52.4951C7.15746 53.9251 4.19255 55.0577 4.04927 55.0122C3.70319 54.9024 2.63447 52.3725 2.6101 51.6051L2.59088 51.0022L9.77816 48.0551C14.3994 46.1602 17.1608 45.108 17.5123 45.108C17.8635 45.108 20.6214 46.1577 25.224 48.0429ZM11.4051 57.3301C10.8263 57.7747 10.7938 58.0998 10.7938 63.4595V68.716L11.2505 69.1727L11.7072 69.6295H17.5123H23.3174L23.7742 69.1727L24.2309 68.716V63.462C24.2309 57.954 24.1766 57.4786 23.5207 57.2269C23.3817 57.1736 20.6546 57.132 17.4604 57.1348C13.1418 57.1384 11.5895 57.1886 11.4051 57.3301ZM21.7309 63.3796V67.1295H17.5123H13.2937V63.3796V59.6297H17.5123H21.7309V63.3796Z" fill="#F16122"/>
</g>
<defs>
<clipPath id="clip0_107_213">
<rect width="80" height="80" fill="white"/>
</clipPath>
</defs>
</svg>
