<svg width="80" height="80" viewBox="0 0 80 80" fill="none" xmlns="http://www.w3.org/2000/svg">
<g id="Frame 15">
<path id="inspection 1 (Traced)" fill-rule="evenodd" clip-rule="evenodd" d="M3.97474 3.41669C1.48615 4.6568 0.945739 7.8396 2.8754 9.89202C3.44301 10.4957 4.408 11.0443 4.90224 11.0443C5.22788 11.0443 5.23045 11.1035 5.23045 18.4359V25.8274L3.2596 27.4358C2.17555 28.3204 1.11821 29.2994 0.909862 29.6113C-0.323649 31.4578 -0.301125 33.8983 0.966333 35.7403C1.56515 36.6105 2.68749 37.4427 3.68385 37.7555C4.60332 38.044 6.44208 37.8821 7.31279 37.4358C7.70584 37.2344 13.5167 32.6582 20.2256 27.2662C28.0077 21.0121 32.4959 17.5061 32.623 17.582C32.9892 17.8008 37.4076 21.2005 37.4076 21.2636C37.4076 21.2977 37.0907 21.7815 36.7032 22.3388C36.316 22.8961 35.8124 23.7232 35.5844 24.1769L35.1698 25.0018L33.7547 24.9212C32.0646 24.825 30.8419 25.0502 29.5694 25.6921C27.749 26.6103 26.4368 28.0921 25.6575 30.1093C25.1227 31.4938 25.1227 34.0339 25.6575 35.4185C26.959 38.7879 29.8407 40.7502 33.2946 40.6193L34.675 40.5668L34.8354 41.0541C35.0661 41.7551 36.3694 43.9453 37.226 45.0716C37.6298 45.6026 38.523 46.5873 39.2111 47.26L40.462 48.4829L39.6187 48.2613C38.9561 48.0871 37.429 48.0491 32.5006 48.0841L26.226 48.1285L25.3269 48.5501C24.1733 49.091 23.1737 50.135 22.766 51.2247C22.4895 51.964 22.4452 52.479 22.4452 54.959C22.4452 56.5412 22.4903 57.9529 22.5451 58.0961C22.6957 58.4884 23.5074 58.8496 23.9748 58.7323C24.1982 58.6761 24.5247 58.4477 24.7002 58.2245C24.9885 57.8579 25.0194 57.5679 25.0197 55.2259C25.0199 52.3005 25.1566 51.7979 26.1292 51.1483C26.6738 50.7844 26.6982 50.7831 32.8674 50.7831C38.7047 50.7831 39.0876 50.8008 39.5606 51.0937C39.8365 51.2646 40.2054 51.6446 40.3805 51.9384C40.7468 52.5531 40.7268 51.6187 40.6655 65.303L40.6253 74.2724H32.8224H25.0194V68.7294C25.0194 62.867 24.9827 62.5483 24.2702 62.2237C23.6845 61.9569 23.3129 62.005 22.8573 62.4071L22.4468 62.7691L22.3398 68.5207L22.2329 74.2724H14.2948H6.35665V59.8044V45.3363L5.93272 45.0029C5.359 44.5515 4.6659 44.5758 4.17745 45.0644L3.78248 45.4592L3.78763 60.791C3.79326 77.5884 3.73003 76.5547 4.76887 76.8527C5.10544 76.9492 15.8972 77.0075 33.432 77.0075H61.5551L61.9499 76.6125L62.3449 76.2177L62.3533 69.3324C62.3613 62.804 62.3759 62.4682 62.6348 62.8495C63.4307 64.0216 64.1753 64.2735 64.9778 63.6422C65.7751 63.0151 65.613 62.5488 63.4407 59.2225C61.8933 56.853 61.5286 56.1911 61.7112 56.0849C61.8386 56.0109 63.5337 54.9014 65.4781 53.6195L69.0136 51.2887L70.3852 53.3626C71.8965 55.6476 72.2785 55.9601 73.1304 55.6071C73.6964 55.3727 73.9295 55.0115 73.9266 54.3734C73.9237 53.7408 71.1363 49.5401 70.3911 49.0449C69.9408 48.7456 69.6452 48.6795 68.896 48.7101L67.9622 48.7482L67.2373 47.6675L66.5123 46.5868L67.1747 45.8342C70.2631 42.3258 72.1041 36.851 71.7741 32.1572C71.0493 21.846 62.8018 14.1011 52.5463 14.1011C49.2811 14.1011 46.6138 14.7167 43.843 16.1095C42.4248 16.8225 40.5602 18.0792 39.9034 18.7647C39.6479 19.0313 39.3876 19.2495 39.3247 19.2495C39.262 19.2495 38.7145 18.8667 38.1079 18.399C33.7191 15.014 32.875 14.4229 32.4295 14.4229C32.0583 14.4229 29.5215 16.3883 19.6041 24.3594C12.8048 29.8245 6.95756 34.5124 6.61053 34.7767C4.97175 36.0255 2.65628 34.8282 2.65628 32.732C2.65628 31.8105 2.90678 31.2654 3.64814 30.5742C4.69888 29.5944 30.9099 8.67155 31.4111 8.41236C32.1059 8.05294 32.8719 8.08174 33.5463 8.49248C33.8561 8.68104 35.5936 9.9715 37.4076 11.3601C41.9122 14.8085 42.054 14.9055 42.5873 14.9055C43.6542 14.9055 44.2144 13.5594 43.481 12.7584C42.9656 12.1953 35.5388 6.55236 34.683 6.0734C34.1325 5.76547 33.6677 5.65848 32.6481 5.6049C31.4904 5.54409 31.2174 5.5856 30.4427 5.94035C29.8917 6.19262 27.2335 8.20803 23.3875 11.2895C19.9935 14.0089 17.0898 16.3445 16.9349 16.4795C16.6681 16.7123 16.6533 16.5762 16.6533 13.8847C16.6533 11.1331 16.6636 11.0443 16.9815 11.0443C17.8341 11.0443 19.1638 10.0064 19.7618 8.87442C20.2992 7.85698 20.2474 6.22447 19.6429 5.13109C19.3858 4.66613 18.935 4.10223 18.6411 3.87795C17.5315 3.03169 17.2486 3 10.7924 3H4.81102L3.97474 3.41669ZM17.0428 6.0446C17.5688 6.539 17.6053 7.43482 17.1243 8.04618L16.7909 8.47012H10.9583H5.12571L4.79799 8.10812C4.6178 7.90911 4.42747 7.56948 4.37486 7.35341C4.25339 6.8545 4.65737 5.99038 5.11831 5.76353C5.35514 5.64705 7.31263 5.6004 11.0498 5.62212L16.6278 5.65462L17.0428 6.0446ZM13.9183 15.0494V18.8936L11.5452 20.7898C10.24 21.8326 8.86438 22.935 8.48839 23.2394L7.80462 23.793V17.499V11.2052H10.8615H13.9183V15.0494ZM55.2851 16.9115C58.9891 17.5602 62.0968 19.2572 64.7172 22.0624C66.7926 24.2842 68.2336 27.0754 68.8473 30.0623C69.1412 31.4925 69.1856 34.6493 68.932 36.0726C67.764 42.6268 63.053 47.7275 56.5722 49.4551C55.2273 49.8136 54.6978 49.8676 52.5309 49.8676C50.3586 49.8676 49.8359 49.8139 48.4756 49.4516C45.5253 48.6653 43.1853 47.3549 41.0015 45.2652C35.1177 39.6353 34.2135 30.5647 38.8656 23.8354C39.8063 22.4747 41.8986 20.4059 43.1995 19.5503C46.8542 17.1468 51.2047 16.1968 55.2851 16.9115ZM49.5545 19.5061C44.368 20.6569 40.2234 24.6325 38.8361 29.7875C38.1501 32.3364 38.4402 36.9752 39.3585 38.1428C39.6087 38.461 39.8285 38.5558 40.3153 38.5558C41.535 38.5558 41.8138 37.838 41.3461 35.9011C41.0074 34.4987 41.0415 31.9491 41.4185 30.4751C42.4351 26.4999 45.6284 23.2827 49.6349 22.1967C51.0681 21.8082 54.0028 21.8133 55.4268 22.2069C56.7631 22.5759 58.459 23.4267 59.6626 24.3314C60.766 25.1609 61.3545 25.2418 61.9499 24.6464C62.4046 24.1919 62.4646 23.5141 62.0967 22.9889C61.437 22.0471 58.3858 20.3068 56.3633 19.7189C54.7739 19.257 51.1833 19.1447 49.5545 19.5061ZM63.206 27.0616C62.7149 27.5526 62.7402 27.9162 63.3894 29.707C64.0213 31.4504 64.132 34.073 63.6545 35.9856C62.6081 40.1756 59.4942 43.3212 55.2659 44.4598C53.8651 44.8369 51.0596 44.8298 49.6489 44.4455C47.6438 43.8991 45.2051 42.4151 43.9769 40.9937C43.2902 40.1992 42.8198 39.9555 42.225 40.0863C41.6304 40.2167 41.2689 40.7214 41.2689 41.421C41.2689 41.8657 41.4484 42.1496 42.2744 43.0124C46.0705 46.9772 51.6706 48.4031 56.8748 46.73C63.7953 44.5053 67.8884 37.2994 66.2702 30.1897C65.8974 28.5517 65.3893 27.3074 64.9535 26.9646C64.3947 26.525 63.7042 26.5633 63.206 27.0616ZM33.9363 27.5956C33.9843 27.6731 33.8676 28.4153 33.6771 29.2447C33.2448 31.1275 33.1959 35.0557 33.5816 36.9269L33.8261 38.1138L32.8191 38.0329C30.93 37.8813 29.1881 36.7131 28.3679 35.0476C27.8357 33.9673 27.8294 31.5732 28.3559 30.505C29.0335 29.1301 30.4657 27.9664 31.8947 27.6297C32.7033 27.4392 33.8281 27.4205 33.9363 27.5956ZM65.3704 49.6829L65.7412 50.2994L63.8897 51.5066C62.8715 52.1706 61.9684 52.7137 61.8828 52.7137C61.7972 52.7137 61.4755 52.302 61.1677 51.7987L60.608 50.8838L61.7942 50.2077C62.4467 49.8361 63.3261 49.2778 63.7486 48.9673C64.6166 48.3297 64.5347 48.2935 65.3704 49.6829ZM45.0635 51.1002C47.2852 52.0253 49.169 52.4183 51.8069 52.5073C53.6839 52.5707 54.5598 52.5266 55.7486 52.3091C56.5892 52.1553 57.458 51.999 57.6792 51.962C58.0293 51.9033 58.1821 52.0505 58.8582 53.0981L59.6351 54.3015L59.2828 54.7779C59.0891 55.0399 58.8934 55.5841 58.848 55.9869C58.7789 56.6002 58.8472 56.8644 59.2681 57.6101L59.7707 58.5008V66.467V74.4333H52.7965C48.9607 74.4333 45.2683 74.3865 44.5913 74.3292L43.3604 74.2253V63.3378C43.3604 51.2841 43.3739 51.4578 42.3267 50.0858L41.784 49.375L42.8538 50.0002C43.4421 50.344 44.4365 50.8391 45.0635 51.1002ZM74.3011 56.5761C74.1079 56.654 73.8725 56.8618 73.7783 57.038C73.3986 57.7477 73.5921 58.2404 75.2718 60.8384C76.187 62.2542 77.0195 63.6588 77.1216 63.9595C77.858 66.1279 76.5688 68.74 74.3605 69.5543C73.4499 69.89 71.8528 69.8099 70.9523 69.3836C69.9704 68.9186 69.4342 68.3532 68.163 66.4432C67.1074 64.8569 66.6243 64.546 65.8537 64.9566C64.8052 65.5151 64.8484 66.1105 66.0792 68.067C67.2881 69.9891 68.3374 71.0566 69.6555 71.7055C74.0199 73.8541 79.0666 71.2197 79.8853 66.3657C80.2547 64.1757 79.8124 62.9134 77.3644 59.1705C75.6061 56.4821 75.2607 56.1895 74.3011 56.5761ZM37.0891 59.8345C36.4326 60.173 36.2864 60.6866 36.2838 62.6608C36.2814 64.4777 36.2829 64.4846 36.7705 64.9722C37.1817 65.3833 37.3418 65.4449 37.7756 65.3582C38.8149 65.1503 38.936 64.8548 38.936 62.5277C38.936 60.6578 38.9032 60.4129 38.6143 60.1291C38.18 59.7024 37.5725 59.5851 37.0891 59.8345Z" fill="#F16122"/>
</g>
</svg>
