<svg width="32" height="32" viewBox="0 0 32 32" fill="none" xmlns="http://www.w3.org/2000/svg">
<g id="Frame" clip-path="url(#clip0_192_10)">
<path id="Vector" d="M24.4853 6.18173C26.6884 8.38458 27.9485 11.3579 27.999 14.473C28.0495 17.588 26.8865 20.6006 24.756 22.8737L24.4853 23.1537L18.828 28.8097C18.1102 29.5271 17.1465 29.9448 16.1322 29.9782C15.1179 30.0117 14.1288 29.6583 13.3653 28.9897L13.1733 28.8097L7.51468 23.1524C5.26423 20.902 3.99994 17.8497 3.99994 14.6671C3.99994 11.4844 5.26423 8.43218 7.51468 6.18173C9.76513 3.93128 12.8174 2.66699 16 2.66699C19.1826 2.66699 22.2349 3.93128 24.4853 6.18173ZM16 10.6671C15.4747 10.6671 14.9546 10.7705 14.4693 10.9715C13.984 11.1726 13.543 11.4672 13.1716 11.8386C12.8002 12.2101 12.5055 12.651 12.3045 13.1363C12.1035 13.6216 12 14.1418 12 14.6671C12 15.1924 12.1035 15.7125 12.3045 16.1978C12.5055 16.6831 12.8002 17.1241 13.1716 17.4955C13.543 17.8669 13.984 18.1616 14.4693 18.3626C14.9546 18.5636 15.4747 18.6671 16 18.6671C17.0609 18.6671 18.0783 18.2456 18.8284 17.4955C19.5786 16.7453 20 15.7279 20 14.6671C20 13.6062 19.5786 12.5888 18.8284 11.8386C18.0783 11.0885 17.0609 10.6671 16 10.6671Z" fill="white"/>
</g>
<defs>
<clipPath id="clip0_192_10">
<rect width="32" height="32" fill="white"/>
</clipPath>
</defs>
</svg>
