<svg width="80" height="80" viewBox="0 0 80 80" fill="none" xmlns="http://www.w3.org/2000/svg">
<g id="Frame 13">
<path id="paint-brush 1 (Traced)" fill-rule="evenodd" clip-rule="evenodd" d="M36.491 0.37723C36.2445 0.584597 32.6794 5.55984 28.5684 11.4332L21.0942 22.1119H19.9022C18.9186 22.1119 18.6245 22.173 18.2204 22.4611C17.6699 22.8538 15.2913 26.1384 14.9283 27.0072C14.6134 27.7608 14.7339 28.9456 15.188 29.5596L15.5382 30.0335L14.5628 31.4435C13.2641 33.3208 12.9595 34.131 12.9606 35.7071C12.9617 37.2904 13.3835 38.4446 14.3559 39.5263C14.7452 39.9593 16.4368 41.2782 18.1149 42.4576C19.7932 43.6368 21.3331 44.8203 21.5369 45.0876C22.4026 46.2225 22.6361 48.1034 22.0669 49.3574C21.4128 50.799 19.5255 52.9041 13.7101 58.6784C7.84455 64.5027 7.71735 64.6421 7.08353 65.9449C5.07362 70.0757 5.90793 74.7103 9.18767 77.6335C10.2068 78.5418 11.8941 79.4339 13.2345 79.7732C14.4308 80.076 16.7418 80.0755 17.9351 79.7722C20.1342 79.2132 22.4076 77.6251 23.6779 75.7604C23.9889 75.3039 25.4817 72.1878 26.9951 68.8358C31.7877 58.2214 32.8155 56.6367 35.2625 56.0891C36.8325 55.7377 37.4163 55.9849 41.0831 58.553C42.8733 59.8067 44.6707 61.0076 45.0773 61.2215C46.6103 62.0284 48.969 61.8154 50.3831 60.7424C50.754 60.4608 51.6076 59.4634 52.2798 58.5258L53.5022 56.8211L54.702 56.8121C55.6783 56.805 55.9915 56.7393 56.3831 56.4599C56.8902 56.0982 59.4488 52.5434 59.7251 51.8167C59.9857 51.131 59.9134 50.4238 59.4985 49.6043L59.1103 48.8377L59.6369 48.0543C59.9265 47.6235 62.21 44.3526 64.7116 40.7858C68.6164 35.2179 69.2597 34.2213 69.2611 33.7389C69.2635 32.8827 68.4652 32.3392 67.6567 32.6466C67.3798 32.7519 65.784 34.9061 62.3818 39.7676C59.6988 43.601 57.3842 46.8849 57.2382 47.0653C56.9744 47.3911 56.9576 47.3825 54.5287 45.6912C53.1846 44.7552 52.0822 43.9299 52.079 43.8574C52.0759 43.7849 52.8201 42.662 53.733 41.3621C54.6457 40.0623 55.4666 38.8364 55.5569 38.6381C55.7906 38.1252 55.3485 37.2353 54.7904 37.0952C53.9583 36.8863 53.6236 37.1843 51.8309 39.7299C50.8808 41.0788 50.0555 42.2305 49.9969 42.2893C49.8943 42.3919 48.1666 41.3359 48.1666 41.1704C48.1666 41.1259 48.5533 40.5247 49.026 39.8345C49.996 38.4182 50.0927 37.9097 49.4984 37.3512C49.0745 36.953 48.3036 36.8835 47.9123 37.2082C47.7843 37.3143 47.3233 37.9167 46.8878 38.5467C46.4523 39.1766 46.0666 39.6919 46.0305 39.6919C45.9787 39.6919 41.4018 36.5199 41.1463 36.3067C41.1097 36.2763 41.4788 35.6698 41.9667 34.9591C42.5198 34.1529 42.8535 33.5042 42.8535 33.2343C42.8535 32.343 41.6338 31.7048 40.9342 32.2302C40.7911 32.3377 40.3018 32.9628 39.8466 33.6194L39.0193 34.8134L35.8744 32.6199L32.7295 30.4265L33.4734 29.3841C34.7419 27.6062 34.8265 27.2752 34.1784 26.6272C33.8728 26.3215 33.6565 26.2451 33.2041 26.2826C32.6959 26.325 32.5331 26.4512 31.9122 27.2848C31.5217 27.8094 31.09 28.4071 30.9531 28.613L30.704 28.9876L29.8248 28.3826C29.3413 28.0499 28.9457 27.7447 28.9457 27.7047C28.9457 27.6645 29.7544 26.4673 30.7427 25.0442C31.7624 23.5761 32.5398 22.3014 32.5398 22.0976C32.5398 21.5238 31.8907 20.8878 31.305 20.8878C30.6552 20.8878 30.4219 21.1369 28.5483 23.8308C27.7115 25.0341 26.9762 26.0753 26.9147 26.1446C26.7462 26.3342 23.13 23.7536 23.2233 23.5104C23.2974 23.3171 37.4455 3.038 37.7034 2.75546C37.8124 2.63592 41.187 4.86258 41.3871 5.18605C41.43 5.25574 41.3847 6.14835 41.2863 7.16955C41.0873 9.23228 41.1838 9.64843 42.012 10.2999C42.7013 10.8422 43.5275 10.7342 45.4077 9.8561L47.0568 9.08602L49.4478 10.7603L51.8389 12.4344L51.8274 13.3663C51.821 13.8791 51.7885 14.8329 51.7549 15.4861C51.6882 16.7869 51.8707 17.2597 52.6325 17.7587C53.3286 18.2149 54.1887 18.0734 55.9456 17.214L57.552 16.4281L60.0085 18.1478C61.3596 19.0937 62.4632 19.9505 62.461 20.0521C62.4588 20.1535 62.3983 21.0514 62.3266 22.0473C62.1844 24.0252 62.3219 24.5964 63.0543 25.068C63.8766 25.5974 64.3931 25.5305 66.3005 24.647L68.1046 23.8116L69.9284 25.0903L71.7522 26.369L70.898 27.5961C69.9504 28.9575 69.8117 29.6147 70.3566 30.1596C70.7474 30.5505 71.615 30.5706 72.0436 30.1987C72.2171 30.0482 72.8226 29.2376 73.3892 28.3971C75.0582 25.9218 74.9316 25.556 71.5964 23.2139C70.2823 22.2911 69.0394 21.4722 68.8342 21.3943C68.1494 21.1339 67.6102 21.2471 66.1511 21.9571L64.703 22.6621L64.7873 22.0743C64.8337 21.7512 64.915 21.021 64.9678 20.4517C65.1291 18.7169 65.0649 18.6377 61.4454 16.1121C57.7551 13.5371 57.8511 13.5639 55.7832 14.5329C55.0495 14.8767 54.4021 15.1579 54.3444 15.1579C54.2868 15.1579 54.2935 14.5777 54.3595 13.8687C54.6048 11.2295 54.7093 11.3857 50.9338 8.74989C47.243 6.17335 47.2893 6.18601 45.2167 7.18831C44.5057 7.53209 43.8891 7.81338 43.8462 7.81338C43.8036 7.81338 43.8173 7.02032 43.877 6.05099C43.9852 4.29564 43.9839 4.28657 43.5654 3.78933C43.3343 3.51461 42.0828 2.54982 40.784 1.64503C38.593 0.118451 38.3695 0 37.6812 0C37.1249 0 36.8272 0.0943856 36.491 0.37723ZM38.761 37.6764C51.5007 46.5877 57.3745 50.7829 57.3356 50.9432C57.3045 51.0721 56.7678 51.9022 56.1431 52.7879C55.3571 53.9024 54.9256 54.3836 54.742 54.3506C54.5959 54.3244 48.0736 49.8201 40.2477 44.3409C30.017 37.1781 25.9013 34.3789 25.6 34.3789C24.6588 34.3789 24.0732 35.6646 24.6874 36.3833C24.8379 36.5593 30.8678 40.8302 38.0873 45.8742C45.3069 50.9182 51.2735 55.0996 51.3465 55.166C51.4865 55.2939 50.2134 57.2785 49.3887 58.2176C48.7371 58.9599 48.1781 59.2254 47.2673 59.2254C46.3851 59.2254 46.3496 59.2051 42.3847 56.4134C40.8806 55.3543 39.285 54.32 38.839 54.1148C36.4342 53.0084 33.497 53.4833 31.5646 55.2909C29.8922 56.8553 28.6438 59.1254 24.8896 67.4294C23.3352 70.8673 21.8042 74.058 21.4875 74.5199C20.8202 75.4924 19.7187 76.3729 18.3926 76.9938C17.5341 77.3959 17.3111 77.4305 15.5848 77.4305C13.7991 77.4305 13.6591 77.4066 12.6534 76.9303C8.96483 75.183 7.47389 70.9886 9.19908 67.2125C9.54068 66.465 10.4809 65.4592 15.5703 60.3974C20.0225 55.9694 21.8672 54.0221 22.824 52.7403C24.5283 50.4572 24.796 49.7695 24.8008 47.6616C24.8043 46.1374 24.7693 45.9461 24.3069 44.9702C23.5846 43.4457 22.7372 42.6413 19.3855 40.2998C16.1664 38.0507 15.6157 37.4789 15.4215 36.1836C15.2832 35.2611 15.5539 34.4207 16.388 33.1833C17.6153 31.3621 17.3773 31.4043 19.2476 32.676C20.6415 33.6236 20.9431 33.7686 21.3548 33.6892C22.196 33.527 22.6329 32.6385 22.236 31.897C22.1555 31.7467 20.9952 30.8591 19.6576 29.9246C18.3199 28.9903 17.2256 28.1464 17.2256 28.0494C17.2256 27.9525 17.7597 27.1154 18.4126 26.1893C19.2776 24.9623 19.6715 24.5242 19.8645 24.5746C20.0103 24.6128 28.5136 30.5086 38.761 37.6764ZM14.9597 66.0429C13.9509 66.2966 13.5066 66.522 12.8787 67.0985C10.495 69.2867 11.1779 73.1676 14.1462 74.3011C15.0516 74.647 16.7268 74.5743 17.6011 74.1513C19.0966 73.4278 19.9579 71.992 19.9462 70.2422C19.9345 68.4983 19.133 67.2274 17.5288 66.409C16.9245 66.1007 15.5237 65.901 14.9597 66.0429ZM16.9356 69.0137C18.1234 70.1516 17.3173 72.0904 15.6656 72.0676C14.6027 72.0529 13.944 71.3352 13.944 70.1915C13.944 68.6677 15.8083 67.9335 16.9356 69.0137Z" fill="white"/>
</g>
</svg>
