<svg width="80" height="80" viewBox="0 0 80 80" fill="none" xmlns="http://www.w3.org/2000/svg">
<g id="Frame 15">
<path id="document 1 (Traced)" fill-rule="evenodd" clip-rule="evenodd" d="M6.5357 0.401109C5.60504 0.864877 4.87313 1.63694 4.40515 2.64838L4.07607 3.35951V26.442V49.5244L4.42421 49.8726C4.85235 50.3009 5.75708 50.3412 6.14865 49.9494C6.40304 49.6952 6.42476 48.2452 6.49804 26.7464C6.57148 5.17692 6.59258 3.78952 6.85181 3.39388C7.00337 3.16247 7.31667 2.84917 7.54808 2.69761C7.94544 2.43728 9.31268 2.42197 32.1953 2.42197C55.3095 2.42197 56.4409 2.43494 56.8381 2.70464C57.8019 3.35888 57.75 2.22196 57.75 22.7103V41.3886L57.0078 41.4879C47.184 42.7998 40.787 52.3852 43.3862 61.8982C43.8068 63.4373 45.0394 65.9355 46.0066 67.2093C46.9237 68.417 48.4728 69.9502 49.5482 70.715L50.3047 71.2528H29.1277H7.9506L7.41964 70.8957C7.11619 70.6918 6.80868 70.3066 6.70211 69.9973C6.56804 69.6077 6.5132 67.2839 6.50679 61.7093L6.49804 53.9629L6.13647 53.623C5.43503 52.9641 4.42062 53.2521 4.16186 54.1837C3.9556 54.9265 3.94216 68.6352 4.14639 69.8827C4.33202 71.0154 4.66016 71.7072 5.34753 72.415C6.2835 73.3788 6.9954 73.6494 8.78579 73.7224L10.3702 73.7871L10.4349 75.3715C10.4851 76.6019 10.5749 77.1005 10.8366 77.6021C11.3006 78.4915 12.0492 79.2015 12.9794 79.6347L13.764 80L38.4524 79.9897C56.9408 79.9819 63.2659 79.9333 63.6384 79.7959C64.6784 79.4125 65.5035 78.667 66.0104 77.6526C66.4946 76.6833 66.5004 76.6442 66.5004 74.3121V71.9523L67.9262 71.0167C69.6855 69.8621 71.7495 67.7251 72.8119 65.9587C73.7121 64.4617 74.4996 62.4421 74.8521 60.7263C75.1478 59.2875 75.189 56.2292 74.932 54.8114C74.5276 52.5816 73.2431 49.4116 72.6058 49.0705C72.0998 48.7997 71.5076 48.8869 71.1029 49.2918C70.5885 49.806 70.6193 50.2798 71.2482 51.5294C72.7205 54.4548 73.055 57.8591 72.1972 61.1829C71.6086 63.4629 69.7383 66.4142 67.9014 67.9614C59.9803 74.6337 47.9845 70.6282 45.6139 60.5197C45.2013 58.7603 45.2371 55.9709 45.6946 54.2463C46.3916 51.6178 47.7632 49.3283 49.7199 47.5273C51.0188 46.3316 52.0634 45.6635 53.7938 44.9216C58.0929 43.0784 63.4732 43.7698 67.2457 46.6503C67.7089 47.004 68.1226 47.1893 68.4487 47.1893C69.1005 47.1893 69.6255 46.6376 69.6255 45.9529C69.6255 45.3305 69.1283 44.8242 67.5778 43.8678L66.503 43.2048L66.5018 32.8458L66.5004 22.4867L66.1168 22.1032C65.6008 21.5871 65.0206 21.6127 64.457 22.1763L64.0003 22.6331V32.3872V42.1413L62.7112 41.8599C62.0021 41.7051 61.1585 41.5368 60.8361 41.486L60.2501 41.3936V25.0721V8.75034H61.4299C62.1786 8.75034 62.777 8.83691 63.0679 8.98738C63.9412 9.43896 64.0003 9.75616 64.0003 13.9891V17.8373L64.457 18.294C65.0244 18.8612 65.6007 18.8834 66.1258 18.3582L66.5185 17.9655L66.4704 13.6315C66.4155 8.68534 66.393 8.58877 65.0138 7.37482C64.0704 6.54432 63.1646 6.25024 61.5505 6.25024H60.2501V5.02863C60.2501 4.35658 60.145 3.45279 60.0165 3.02012C59.7125 1.99602 58.6954 0.84347 57.6778 0.369702L56.8906 0.00312512L32.1156 0.00156256L7.34073 0L6.5357 0.401109ZM12.1279 6.4976C11.4137 6.80745 11.0595 7.142 10.7004 7.84562C10.4185 8.39783 10.4044 8.9341 10.4044 19.125C10.4044 26.3048 10.4591 29.9693 10.5707 30.2645C10.7743 30.8034 11.4318 31.5161 11.9983 31.812C12.615 32.1342 29.3849 32.1391 30.1368 31.8173C30.7449 31.5572 31.4192 30.8631 31.6453 30.2645C31.7568 29.9694 31.8115 26.3281 31.8115 19.2043C31.8115 10.0005 31.7795 8.50736 31.5712 8.00875C31.2474 7.23403 30.9143 6.88558 30.1708 6.54416C29.5886 6.27681 28.9683 6.25728 21.108 6.25978C13.9433 6.26212 12.5883 6.2979 12.1279 6.4976ZM35.6942 6.56557C35.3803 6.73136 34.9584 7.13262 34.7566 7.45717C34.4207 7.99734 34.3898 8.2186 34.3898 10.0785C34.3898 12.3145 34.5482 12.8232 35.4557 13.4997C35.8889 13.8227 36.0415 13.8294 43.9395 13.8718C52.9569 13.9202 52.7213 13.9466 53.4786 12.8022C53.8543 12.2345 53.8655 12.1414 53.8163 9.97492C53.7594 7.46732 53.6583 7.19091 52.5723 6.57338C52.0183 6.25821 51.8092 6.2504 44.1345 6.25712C36.6694 6.26368 36.2355 6.27962 35.6942 6.56557ZM29.2739 16.3931L29.3144 23.9578L28.4834 23.1428C27.5561 22.2329 27.0762 21.8818 25.9926 21.3191L25.2519 20.9347L25.7968 20.1764C26.5635 19.109 26.8451 18.2359 26.8613 16.8757C26.8784 15.4437 26.5566 14.4259 25.7504 13.3599C23.5676 10.4745 19.5712 10.1816 17.0316 12.7211C15.8234 13.9295 15.361 15.0243 15.3432 16.7194C15.3285 18.124 15.6773 19.2512 16.433 20.2413L16.9622 20.9346L16.3006 21.2704C15.3632 21.746 14.5054 22.3562 13.6468 23.1579L12.9045 23.8509V16.2992V8.74753L21.0689 8.788L29.2333 8.82847L29.2739 16.3931ZM51.4998 10.0785V11.4067H44.1558H36.8117V10.0785V8.75034H44.1558H51.4998V10.0785ZM22.5482 13.8059C23.1174 14.1001 23.8039 14.7893 24.1239 15.3879C24.4567 16.0106 24.4567 17.5844 24.1239 18.2071C23.4765 19.4176 22.4323 20.0633 21.108 20.0717C19.3543 20.083 17.9533 18.7964 17.7824 17.018C17.6922 16.0786 18.2916 14.7228 19.0293 14.1974C20.1114 13.4269 21.5136 13.2708 22.5482 13.8059ZM34.9659 17.2786C34.4727 17.6246 34.2813 18.1818 34.4779 18.699C34.801 19.549 34.4816 19.5217 44.1676 19.527L53.1641 19.532L53.5039 19.1704C53.9549 18.6904 53.9602 17.811 53.5149 17.4077C53.2006 17.1233 52.7856 17.1082 44.2567 17.0675C36.2283 17.0294 35.2909 17.0507 34.9659 17.2786ZM23.1328 22.8964C25.3813 23.482 27.4282 25.148 28.4266 27.205C28.7348 27.8405 29.0328 28.6242 29.0886 28.9464L29.19 29.5324H21.1049H13.0199L13.1146 28.9464C13.1666 28.6242 13.4691 27.8331 13.7866 27.1886C14.7896 25.153 16.8105 23.4973 19.016 22.9042C20.1326 22.6038 21.9961 22.6003 23.1328 22.8964ZM35.1656 23.4289C34.3688 23.7567 34.1622 24.8516 34.7804 25.4697C35.0857 25.7751 35.3012 25.7823 44.1262 25.7823C53.0013 25.7823 53.1656 25.7766 53.5016 25.4636C53.9327 25.0621 53.9533 24.2336 53.545 23.7292L53.2464 23.3603L44.365 23.3292C39.4801 23.312 35.3404 23.3568 35.1656 23.4289ZM35.3045 29.6405C34.4401 29.8096 34.1241 31.0637 34.7804 31.72C35.0857 32.0253 35.3012 32.0325 44.1558 32.0325C53.0103 32.0325 53.2258 32.0253 53.5311 31.72C53.8663 31.3848 53.9432 30.6353 53.6907 30.1635C53.3711 29.5666 52.8227 29.5318 44.0934 29.5537C39.4439 29.5654 35.4889 29.6044 35.3045 29.6405ZM10.7441 36.3005C10.2929 36.781 10.3026 37.5076 10.766 37.943C11.1137 38.2696 11.2551 38.2827 14.4109 38.2827C17.6407 38.2827 17.6996 38.2768 18.0338 37.9212C18.4851 37.4407 18.4754 36.7141 18.0119 36.2786C17.6643 35.952 17.5228 35.9389 14.3671 35.9389C11.1373 35.9389 11.0784 35.9448 10.7441 36.3005ZM22.351 36.2592C22.1883 36.4389 22.0611 36.8125 22.0611 37.1108C22.0611 37.4091 22.1883 37.7827 22.351 37.9624C22.6348 38.276 22.7845 38.2827 29.4138 38.2827C35.9784 38.2827 36.1964 38.2731 36.4992 37.9702C36.6927 37.7768 36.8117 37.4494 36.8117 37.1108C36.8117 36.7722 36.6927 36.4449 36.4992 36.2514C36.1964 35.9486 35.9784 35.9389 29.4138 35.9389C22.7845 35.9389 22.6348 35.9456 22.351 36.2592ZM10.7284 42.6009C10.1504 43.3356 10.3829 44.1981 11.2478 44.5269C11.8231 44.7457 16.9391 44.7372 17.5722 44.5166C18.4351 44.2158 18.6712 43.1482 18.0119 42.5288C17.6641 42.2023 17.5233 42.1891 14.3512 42.1891H11.0521L10.7284 42.6009ZM22.454 42.4626C21.9204 42.9056 21.8682 43.6189 22.3299 44.1559L22.7213 44.6111L28.9461 44.6586C32.3698 44.6849 35.4035 44.6633 35.6876 44.6108C36.7738 44.4105 37.2036 43.2368 36.4501 42.5288C36.0904 42.191 36.0512 42.1891 29.4358 42.1891C23.3298 42.1891 22.7562 42.2116 22.454 42.4626ZM10.7284 48.8511C10.1851 49.5418 10.3187 50.3376 11.0407 50.7109C11.6786 51.0407 17.0994 51.0407 17.7372 50.7109C18.4791 50.3273 18.6182 49.3488 18.0119 48.7791C17.6641 48.4525 17.5233 48.4394 14.3512 48.4394H11.0521L10.7284 48.8511ZM22.454 48.7128C21.9202 49.156 21.8682 49.8691 22.3301 50.4062L22.7216 50.8614H29.468H36.2144L36.513 50.4924C36.9277 49.9804 36.8989 49.2008 36.4501 48.7791C36.0904 48.4413 36.0512 48.4394 29.4358 48.4394C23.3298 48.4394 22.7562 48.4619 22.454 48.7128ZM62.9065 50.1162C62.3588 50.3076 61.668 50.889 59.7814 52.7466L57.3594 55.1312L56.5434 54.3776C55.5025 53.416 54.4899 53.0575 53.1253 53.1671C50.2077 53.4013 48.4858 56.4675 49.7757 59.1318C49.9704 59.5342 51.0751 60.7563 52.6325 62.2923C54.7538 64.3844 55.2985 64.8394 55.9418 65.0558C56.9166 65.384 57.7979 65.3847 58.777 65.0583C59.4503 64.8339 60.072 64.2803 63.7232 60.6541C68.3575 56.0519 68.5737 55.7594 68.5962 54.0646C68.6205 52.2464 67.5429 50.6859 65.826 50.0529C65.1277 49.7954 63.7379 49.8255 62.9065 50.1162ZM65.3727 52.5897C65.9282 52.9788 66.2313 53.706 66.1091 54.357C66.0205 54.8298 65.4274 55.505 62.5405 58.4196C58.6987 62.2984 58.091 62.8149 57.3707 62.8149C56.7137 62.8149 56.3923 62.5792 54.4129 60.6446C52.3048 58.5843 51.8123 57.9374 51.8123 57.2288C51.8123 56.4133 52.6539 55.6272 53.5269 55.6272C54.1291 55.6272 54.279 55.7228 55.4843 56.8772C57.451 58.7606 57.2608 58.8184 60.8752 55.2365C63.6686 52.4681 63.8182 52.3458 64.4083 52.3458C64.7472 52.3458 65.1813 52.4555 65.3727 52.5897ZM10.7881 55.2295C10.3224 55.695 10.2873 56.3855 10.7032 56.8989C11.0004 57.2661 11.0179 57.2679 14.389 57.2679C17.76 57.2679 17.7775 57.2661 18.0747 56.8989C18.4907 56.3855 18.4555 55.695 17.9899 55.2295C17.6075 54.847 17.5968 54.8459 14.389 54.8459C11.1812 54.8459 11.1704 54.847 10.7881 55.2295ZM22.6282 54.9504C22.3871 55.0475 21.9674 55.8273 21.9674 56.1783C21.9674 56.3181 22.1729 56.638 22.4241 56.8892L22.8809 57.346H29.4628H36.0447L36.4281 56.9624C36.9658 56.4247 36.953 55.6047 36.4 55.1698C35.9976 54.8532 35.8381 54.8462 29.4075 54.8582C25.7882 54.865 22.7374 54.9065 22.6282 54.9504ZM10.7881 61.636C10.5462 61.8777 10.4044 62.1981 10.4044 62.5024C10.4044 62.8068 10.5462 63.1272 10.7881 63.3689C11.1704 63.7514 11.1812 63.7525 14.389 63.7525C17.5968 63.7525 17.6075 63.7514 17.9899 63.3689C18.2318 63.1272 18.3735 62.8068 18.3735 62.5024C18.3735 62.1981 18.2318 61.8777 17.9899 61.636C17.6075 61.2535 17.5968 61.2524 14.389 61.2524C11.1812 61.2524 11.1704 61.2535 10.7881 61.636ZM22.6426 61.4382C22.2213 61.6418 21.9038 62.3682 22.0435 62.8087C22.101 62.9898 22.2965 63.2762 22.4779 63.4453C22.7949 63.7406 23.0613 63.7525 29.398 63.7525C35.8286 63.7525 35.9983 63.7447 36.4 63.4286C36.9816 62.9712 36.9816 62.0337 36.4 61.5763C35.9979 61.26 35.8358 61.2527 29.4857 61.263C25.2722 61.2699 22.8632 61.3315 22.6426 61.4382ZM64.0003 74.706V76.4405L63.4831 76.9577C63.1137 77.3271 62.7676 77.5033 62.2721 77.5743C61.8905 77.6288 50.9256 77.6527 37.9055 77.6274C18.7065 77.5899 14.1647 77.5424 13.8727 77.3758C13.1881 76.9853 12.9058 76.2825 12.9052 74.9676L12.9045 73.7604L37.2414 73.7146C61.4285 73.669 61.585 73.6668 62.6721 73.3413C63.2737 73.1613 63.8186 73.0044 63.8831 72.9928C63.9476 72.9811 64.0003 73.7521 64.0003 74.706Z" fill="#F16122"/>
</g>
</svg>
