<svg width="80" height="80" viewBox="0 0 80 80" fill="none" xmlns="http://www.w3.org/2000/svg">
<g id="Frame 13" clip-path="url(#clip0_302_185)">
<path id="eco-house 1 (Traced)" fill-rule="evenodd" clip-rule="evenodd" d="M25.764 11.3086C25.3169 11.7556 25.2123 12.3403 25.5004 12.7802C25.6344 12.9846 26.6089 13.8835 27.6661 14.7777C29.5105 16.3379 29.5899 16.4299 29.636 17.061L29.6841 17.7185H25.629H21.5738L10.8159 26.7464L0.0579166 35.7745L0.0107309 36.4159C-0.028955 36.9559 0.0299489 37.1096 0.383373 37.3876C0.614301 37.5691 0.899134 37.7177 1.01647 37.7177C1.19319 37.7177 1.22975 38.8228 1.22975 44.1747V50.6314L1.5913 50.9713C2.09003 51.4397 2.79812 51.413 3.27279 50.9078L3.65153 50.5049L3.72965 43.197L3.80777 35.8894L12.7137 28.4239C17.6119 24.3178 21.7321 20.8609 21.8694 20.7417C22.09 20.5506 23.2009 21.4327 31.3612 28.2795L40.6032 36.0337V51.6408V67.2478H35.7626H30.9219L30.88 55.5948L30.838 43.9417L30.3277 43.4859L29.8174 43.03H22.2344C14.0605 43.03 14.0052 43.0352 13.5386 43.8519C13.3822 44.1254 13.3291 46.7158 13.2948 55.7248L13.2508 67.2478H8.49712H3.7434L3.69746 61.1406L3.65153 55.0335L3.19639 54.6421C2.68938 54.2062 2.03159 54.2274 1.51349 54.6963C1.24771 54.9367 1.22975 55.3808 1.22975 61.7277V68.5023L1.76457 69.086L2.29939 69.6696L26.8027 69.7129C40.2795 69.7366 51.4633 69.718 51.6555 69.6713C52.1937 69.5407 52.5315 68.9112 52.4101 68.2645C52.2293 67.3006 51.9614 67.2478 47.2514 67.2478H43.1031V52.4828V37.7177H57.7946H72.4861L72.4425 39.7745L72.3989 41.8312L71.4403 42.0265C68.4812 42.6294 65.806 44.477 64.0959 47.0988L63.3274 48.2772L62.7071 47.2694C61.9279 46.0037 60.1483 44.2076 58.9936 43.5214C55.7709 41.6065 51.8919 41.2516 48.6246 42.5727C47.9186 42.8581 47.7776 42.993 47.493 43.6547C46.3744 46.2547 46.4336 49.9927 47.6353 52.6604C49.6333 57.0956 54.1168 59.8392 58.8806 59.5419C59.6987 59.4908 60.7196 59.3413 61.1493 59.2097C61.579 59.078 61.9832 58.9696 62.0477 58.9686C62.1122 58.9677 62.1649 60.8259 62.1649 63.0982V67.2292L59.1041 67.2777C56.1031 67.325 56.0373 67.3331 55.7448 67.6948C55.3292 68.2084 55.3645 68.8987 55.83 69.3642L56.2134 69.7477H64.8217C74.1793 69.7477 73.944 69.7687 74.6507 68.8704C74.9671 68.4681 74.9769 68.2948 74.9769 63.0847V57.7137L76.4261 56.2701C78.8703 53.8352 79.8102 51.7333 79.9358 48.4204C80.0122 46.4052 79.8075 45.1121 79.1814 43.657C78.773 42.7074 78.2557 42.4618 75.4066 41.8643L74.9769 41.7741V39.7459V37.7177H76.2058C77.2201 37.7177 77.5079 37.6601 77.8544 37.3876C78.2082 37.1093 78.2668 36.956 78.2271 36.4136C78.1808 35.7833 78.1127 35.7134 74.9235 33.0331L71.6669 30.2961L75.4933 30.218C78.973 30.1469 79.3494 30.1129 79.6481 29.8422C80.2003 29.3419 80.0937 28.5171 79.3908 27.852C79.0686 27.5472 75.0785 24.1786 70.5239 20.3665C65.9694 16.5543 61.592 12.8874 60.796 12.2176L59.3492 11H49.6566H39.964L39.5806 11.3836C39.1152 11.8489 39.0798 12.5392 39.4953 13.0529C39.7767 13.4007 39.9093 13.4248 41.823 13.4729L43.8525 13.5241L47.4725 16.5587L51.0925 19.5934H44.1934H37.2943L33.7013 16.5857L30.1082 13.578L32.7387 13.4977C34.1854 13.4537 35.4856 13.3607 35.6281 13.2912C35.9959 13.112 36.265 12.3721 36.1414 11.8797C35.9262 11.0223 35.7889 11 30.725 11C26.3008 11 26.0574 11.0152 25.764 11.3086ZM62.054 16.5159L65.6148 19.5153L60.2923 19.5564L54.9699 19.5975L51.5755 16.7579C49.7085 15.1962 48.0781 13.8243 47.9523 13.7091C47.7608 13.534 48.5995 13.5013 53.1084 13.5082L58.4932 13.5163L62.054 16.5159ZM39.822 24.9934C43.0445 27.705 45.844 29.9899 46.0429 30.0708C46.2418 30.1518 46.9977 30.218 47.7225 30.218H49.0404V31.1481C49.0404 31.6597 49.1198 32.2526 49.217 32.4656C49.5709 33.2426 50.8217 33.3619 51.3095 32.6653C51.458 32.4534 51.5403 31.9579 51.5403 31.2769V30.218H59.5869H67.6334V31.3784C67.6334 32.446 67.6664 32.565 68.0451 32.8628C68.6168 33.3126 69.1374 33.2691 69.6801 32.7265L70.1404 32.2662L71.7383 33.6083C72.6173 34.3464 73.4031 35.0105 73.4848 35.0841C73.5671 35.1583 66.9296 35.2163 58.5635 35.2142L43.4937 35.2108L34.7441 27.8636C29.9318 23.8226 25.8915 20.4143 25.7657 20.2893C25.5654 20.0906 26.0635 20.0622 29.7499 20.0626L33.9629 20.0631L39.822 24.9934ZM57.2566 24.7682C59.0135 26.2394 60.4892 27.505 60.5359 27.5806C60.5843 27.659 57.6791 27.7156 53.776 27.7122L46.9311 27.7064L43.6006 24.8998L40.2701 22.0933H47.1661H54.0622L57.2566 24.7682ZM71.9891 24.8667L75.292 27.64L69.973 27.6811L64.654 27.7222L61.3784 24.9682C59.5767 23.4536 58.1026 22.1871 58.1026 22.1538C58.1026 22.1205 60.4839 22.0933 63.3944 22.0933H68.6861L71.9891 24.8667ZM54.9616 44.5201C57.4202 45.0998 59.8739 47.0435 60.9698 49.2798C61.8216 51.0181 62.1646 52.9248 61.9063 54.4874L61.8074 55.086L57.8847 51.1767C55.7273 49.0268 53.7687 47.1949 53.5324 47.1058C53.0038 46.9066 52.4481 47.0933 52.1029 47.5859C51.5461 48.3811 51.6312 48.4971 55.9387 52.816L60.0248 56.9128L59.4358 57.0232C58.5005 57.1987 56.395 56.9903 55.3123 56.615C53.9546 56.1444 52.1529 54.9038 51.2914 53.8463C49.8372 52.0612 49.1801 50.2205 49.1866 47.9517C49.1901 46.7841 49.4769 45.0412 49.7029 44.8153C49.7344 44.7839 50.1432 44.6551 50.6113 44.5293C51.7265 44.2295 53.7107 44.2253 54.9616 44.5201ZM75.9922 44.5209C76.5007 44.6532 76.9418 44.7867 76.9723 44.8171C77.1962 45.041 77.4809 46.7882 77.4831 47.9517C77.4873 50.2319 76.8346 52.0631 75.382 53.8463C74.5172 54.908 72.7126 56.1483 71.3611 56.6101C70.2627 56.9853 68.1612 57.1965 67.2417 57.024L66.6486 56.9128L70.7347 52.816C75.0422 48.4971 75.1274 48.3811 74.5705 47.5859C74.2265 47.0949 73.6693 46.9063 73.1478 47.1047C72.9153 47.1931 70.9728 49.0223 68.8315 51.1695C66.6902 53.3168 64.9084 55.0439 64.872 55.0077C64.8357 54.9713 64.7674 54.4586 64.7204 53.8684C64.6081 52.4568 64.9667 50.7833 65.7037 49.2798C66.7825 47.0786 69.2452 45.1073 71.6403 44.5275C72.8714 44.2295 74.8619 44.2264 75.9922 44.5209ZM28.4162 56.3889V67.2478H22.0883H15.7604V56.3889V45.5299H22.0883H28.4162V56.3889ZM18.3096 53.3432C17.756 53.5663 17.6354 54.0066 17.6354 55.8045C17.6354 57.3813 17.6619 57.5312 17.9969 57.846C18.4464 58.2682 19.1948 58.2865 19.6883 57.8873C20.0289 57.6118 20.0612 57.4562 20.11 55.858L20.1628 54.1269L19.6923 53.6563C19.2087 53.1729 18.9039 53.1038 18.3096 53.3432ZM65.5241 59.2097C66.7928 59.5984 69.0817 59.6756 70.5271 59.3783C71.2128 59.2374 71.932 59.0789 72.1255 59.0263L72.477 58.9305V63.0891V67.2478H68.4928H64.5086V63.1074C64.5086 60.8301 64.5612 58.9677 64.6257 58.9686C64.6903 58.9696 65.0945 59.078 65.5241 59.2097Z" fill="white"/>
</g>
<defs>
<clipPath id="clip0_302_185">
<rect width="80" height="80" fill="white"/>
</clipPath>
</defs>
</svg>
