<svg width="80" height="80" viewBox="0 0 80 80" fill="none" xmlns="http://www.w3.org/2000/svg">
<g id="Frame 15" clip-path="url(#clip0_107_207)">
<path id="system 1 (Traced)" fill-rule="evenodd" clip-rule="evenodd" d="M21.1228 0.316563C20.3581 0.782656 20.1556 1.43156 20.1556 3.41594V5.12328L18.5733 5.63141C17.7031 5.91078 16.3436 6.46906 15.552 6.87203L14.1131 7.60469L12.7769 6.31266C11.7902 5.35875 11.2961 4.99359 10.8885 4.91719C9.76408 4.70625 9.42376 4.91203 7.16158 7.17141C5.42658 8.90438 5.00689 9.41031 4.92001 9.87391C4.72736 10.9008 4.95439 11.3733 6.3197 12.7853L7.60408 14.1138L6.87142 15.5527C6.46845 16.3442 5.91017 17.7038 5.63079 18.5739L5.12267 20.1562H3.41533C1.43095 20.1562 0.782045 20.3588 0.315951 21.1234C0.027201 21.5969 0.000482234 21.9069 1.34842e-05 24.7836C-0.000611516 27.7348 0.0192323 27.9519 0.325639 28.3414C0.904232 29.077 1.3897 29.2188 3.33017 29.2188H5.11376L5.61423 30.7973C5.88939 31.6655 6.46033 33.0506 6.88283 33.8753L7.65111 35.375L6.33595 36.7189C4.19939 38.9023 4.24392 39.2597 7.00376 42.0734C9.13783 44.2494 9.52626 44.5312 10.39 44.5312C11.1847 44.5312 11.6374 44.2464 12.9392 42.9272L14.0824 41.7689L15.7105 42.6C16.6058 43.0572 17.9724 43.6209 18.747 43.8528C20.3345 44.328 20.4139 44.4492 19.765 45.4055C19.3756 45.9794 19.3744 45.9923 19.375 49.6703C19.3755 53.0758 19.3994 53.3986 19.6861 53.8686C20.2928 54.8638 20.7331 54.9987 23.3733 54.9994L25.7316 55L26.083 56.282C26.5617 58.0291 27.2158 59.6439 28.1475 61.3795L28.9299 62.8373L27.355 64.4559C26.4889 65.3463 25.71 66.2594 25.6241 66.485C25.4022 67.0689 25.4313 67.9141 25.6902 68.4062C25.8124 68.6383 27.0652 69.9708 28.4744 71.3672L31.0364 73.9062H31.8563C32.3072 73.9062 32.8297 73.8283 33.0175 73.733C33.2052 73.6375 34.0667 72.8605 34.932 72.0061L36.5053 70.4527L38.2914 71.385C40.0739 72.3155 42.002 73.0653 43.5541 73.4314L44.3744 73.6248L44.3747 75.9141C44.3749 78.505 44.5255 79.0263 45.4522 79.6453C45.9677 79.9897 46.0928 80 49.7761 80H53.5692L54.0555 79.5908C54.9116 78.8705 54.9994 78.5312 54.9994 75.9453C54.9994 73.8108 55.0247 73.5936 55.2728 73.5914C55.9097 73.5861 59.4175 72.2616 61.0806 71.3986L62.8805 70.4645L64.4477 72.012C65.3097 72.8631 66.1686 73.6375 66.3563 73.733C66.5441 73.8283 67.0433 73.9062 67.4656 73.9062C68.0683 73.9062 68.365 73.8089 68.8431 73.4541C69.5486 72.9303 73.2702 69.1705 73.6495 68.598C73.9447 68.1528 73.992 66.8684 73.7324 66.3569C73.6369 66.1692 72.8625 65.3103 72.0114 64.4483L70.4639 62.8811L71.398 61.0813C72.2609 59.4181 73.5855 55.9103 73.5908 55.2734C73.593 55.0253 73.8102 55 75.9447 55C78.4739 55 78.803 54.9214 79.5306 54.1431L79.9213 53.7255L79.9678 49.8656C80.0138 46.0522 80.0099 45.9992 79.6522 45.4637C79.0256 44.5261 78.5095 44.3755 75.923 44.3753L73.6434 44.375L73.3047 43.1092C72.8564 41.4342 72.1861 39.7788 71.2291 37.9828L70.4455 36.5125L72.0022 34.9359C72.8585 34.0687 73.6369 33.2058 73.7324 33.0181C73.8277 32.8303 73.9056 32.3078 73.9056 31.8569V31.037L71.3666 28.475C69.9702 27.0658 68.6377 25.813 68.4056 25.6908C67.9135 25.4319 67.0683 25.4028 66.4844 25.6247C66.2588 25.7106 65.3513 26.4841 64.4678 27.3434C63.5844 28.203 62.8188 28.9062 62.7664 28.9062C62.7141 28.9062 62.2635 28.6598 61.765 28.3589C60.5492 27.6244 57.8731 26.5119 56.2885 26.0819L54.9994 25.7322L54.9988 23.3739C54.9981 20.7338 54.8631 20.2934 53.868 19.6867C53.398 19.4 53.0752 19.3761 49.6697 19.3756C45.9917 19.375 45.9788 19.3762 45.4049 19.7656C44.4505 20.4133 44.3269 20.3334 43.858 18.767C43.6292 18.0031 43.0688 16.6333 42.6125 15.7233L41.7828 14.0686L42.9338 12.9327C44.2458 11.638 44.5306 11.1845 44.5306 10.3906C44.5306 9.53219 44.2505 9.14484 42.0827 7.00625C39.2806 4.24188 38.9066 4.19531 36.7183 6.33656L35.3744 7.65172L33.8747 6.88344C33.05 6.46094 31.6703 5.89172 30.8088 5.61859L29.2424 5.12203L29.1911 3.09547L29.14 1.06891L28.5564 0.534531L27.9727 0L24.8064 0.000625C21.9061 0.00109375 21.5966 0.0276563 21.1228 0.316563ZM26.7216 4.02344C26.7242 5.33453 26.7902 5.84656 27.0217 6.35687C27.3714 7.12687 27.7352 7.33969 29.527 7.82188C30.2555 8.01797 31.716 8.61609 32.7725 9.15125C33.8291 9.68625 34.8561 10.1648 35.055 10.2147C35.7739 10.3952 36.4535 10.0238 37.7328 8.75094L38.9902 7.50016L40.4335 8.94953L41.8767 10.3989L40.9983 11.2542C38.9691 13.2297 38.771 13.9933 39.8258 15.7722C40.597 17.0728 41.1394 18.3656 41.643 20.1036C41.8619 20.8589 42.1389 21.6262 42.2585 21.8089C42.5238 22.2137 43.4166 22.6562 43.9683 22.6562H44.3744V24.2158V25.7753L43.9447 25.8702C42.1708 26.2616 39.1295 27.4809 37.2978 28.535L36.5494 28.9656L35.0713 27.4938L33.5931 26.0219V24.7131C33.5931 21.5781 32.1245 18.8813 29.4874 17.173C27.5572 15.9228 25.0595 15.4931 22.7324 16.0109C21.3299 16.323 20.7806 16.742 20.7806 17.5C20.7806 18.0295 21.3706 18.75 21.8042 18.75C21.9452 18.75 22.4517 18.6363 22.9299 18.4973C24.2739 18.1066 26.0753 18.2522 27.3502 18.8547C28.8258 19.552 29.7286 20.428 30.4256 21.838C30.9194 22.8372 31.0235 23.2219 31.0669 24.2106L31.1189 25.3906L28.2636 28.2422L25.4081 31.0938H24.4285C22.0545 31.0938 19.9047 29.6292 18.7927 27.2547C18.4047 26.4261 18.3588 26.1545 18.3588 24.6875C18.3588 23.2242 18.4052 22.9477 18.7885 22.1295C19.3181 20.9987 19.3278 20.5642 18.8345 20.0711C18.1066 19.343 17.2086 19.6719 16.6394 20.8752C15.3674 23.5639 15.5772 27.0308 17.1594 29.4644C17.9266 30.6444 18.9578 31.6384 20.192 32.3875C21.5502 33.2117 22.4761 33.4686 24.3941 33.5536L26.0542 33.627L27.5097 35.0884L28.965 36.55L28.5344 37.2984C27.4803 39.1302 26.261 42.1714 25.8695 43.9453L25.7747 44.375H24.2152H22.6556V43.9689C22.6556 43.4098 22.2113 42.5231 21.7941 42.2498C21.6038 42.1252 20.9288 41.8794 20.2941 41.7036C18.667 41.2533 17.2985 40.6884 15.9216 39.8992C13.9531 38.7709 13.2645 38.9333 11.2536 40.9989L10.3983 41.8773L8.95236 40.4375L7.50642 38.9975L8.80845 37.6628C10.6353 35.7902 10.6381 35.7577 9.23017 32.9195C8.62548 31.7005 7.98033 30.1406 7.79673 29.4531C7.33845 27.738 7.1197 27.3691 6.35626 27.0223C5.84595 26.7908 5.33392 26.7248 4.02283 26.7222L2.34314 26.7188V24.6875V22.6562H4.06689C6.76142 22.6562 7.14205 22.3958 7.74533 20.1383C7.98454 19.2434 8.56517 17.8109 9.23501 16.4631C10.6383 13.6395 10.6353 13.6056 8.81236 11.7272L7.51517 10.3906L8.94329 8.95172L10.3713 7.51266L11.7186 8.81156C13.6116 10.6364 13.6414 10.6391 16.4625 9.23078C17.8491 8.53875 19.2169 7.98453 20.1369 7.74188C22.3927 7.14703 22.6556 6.76344 22.6556 4.0675V2.34375H24.6869H26.7181L26.7216 4.02344ZM52.5028 24.0234C52.5078 27.1214 52.9016 27.8205 54.9081 28.2936C56.8177 28.7437 60.0714 30.1075 61.2891 30.9681C61.9095 31.4066 62.6435 31.5848 63.3513 31.4691C63.8686 31.3845 64.2506 31.0928 65.7027 29.6739L67.4366 27.9795L69.4217 29.9691L71.4067 31.9586L69.9919 33.362C67.421 35.9123 67.4006 36.0659 69.1741 39.5312C70.0761 41.2939 70.5488 42.4422 70.9102 43.75C71.7266 46.7041 71.9688 46.8744 75.351 46.8747L77.6556 46.875V49.6734V52.472L75.2728 52.5272C71.9289 52.6045 71.6905 52.7578 71.021 55.2595C70.5008 57.2033 69.8111 58.8845 68.7914 60.6944C67.4214 63.1263 67.5142 63.5614 69.9106 65.9348L71.4066 67.4166L69.4192 69.4083L67.432 71.4L65.7859 69.7786C63.4578 67.4855 63.0885 67.4164 60.6558 68.8195C59.0991 69.7173 57.1374 70.5189 55.2791 71.0161C52.7478 71.6936 52.508 72.0747 52.5028 75.4297L52.4994 77.6562H49.6869H46.8744L46.8741 75.3516C46.8738 71.9694 46.7035 71.7272 43.7494 70.9108C42.4416 70.5494 41.2933 70.0767 39.5306 69.1747C36.0653 67.4012 35.9117 67.4216 33.3614 69.9925L31.958 71.4073L29.9685 69.4223L27.9789 67.4372L29.6733 65.7033C31.0922 64.2513 31.3839 63.8692 31.4685 63.3519C31.5842 62.6441 31.406 61.9102 30.9675 61.2897C30.1069 60.072 28.7431 56.8183 28.293 54.9087C27.8199 52.9022 27.1208 52.5084 24.0228 52.5034L21.8744 52.5V49.6875V46.875H24.0669C27.2808 46.875 27.7286 46.6039 28.3503 44.2816C28.9739 41.9517 29.5361 40.6292 31.0935 37.83C31.3511 37.3669 31.5603 36.8044 31.5585 36.58C31.5519 35.7998 30.9619 34.9133 29.4689 33.4402L27.9672 31.9584L29.9574 29.9638L31.9477 27.9692L33.5125 29.5252C35.0247 31.0287 35.8341 31.5625 36.6019 31.5625C36.9711 31.5625 37.1542 31.4775 39.2181 30.3477C40.7402 29.5144 42.4252 28.8475 44.2253 28.3658C46.6102 27.7275 46.8744 27.2987 46.8744 24.0675V21.875H49.6869H52.4994L52.5028 24.0234ZM48.2591 34.7012C41.7808 35.2483 36.3066 40.1464 34.9155 46.6406C34.5956 48.1331 34.5544 50.902 34.8302 52.3438C35.1638 54.087 35.7867 55.7633 36.2308 56.1127C36.9769 56.6995 38.1258 56.1322 38.1233 55.178C38.1227 54.9513 37.951 54.2612 37.7417 53.6447C35.7086 47.6545 38.6 40.9969 44.4166 38.2752C46.7831 37.1677 49.9641 36.8303 52.4994 37.4177C53.8236 37.7245 55.8564 38.6208 56.9777 39.3923C58.1241 40.1811 59.5797 41.7386 60.3992 43.0534C64.678 49.9186 61.4092 59.0314 53.7292 61.6481C49.5202 63.0823 44.9824 62.1825 41.4222 59.2077C40.7689 58.6619 40.3642 58.4375 40.0328 58.4375C39.428 58.4375 38.931 58.858 38.813 59.4697C38.7364 59.8667 38.8097 60.0578 39.2166 60.5211C40.5533 62.0436 43.6066 63.7423 46.1713 64.3903C48.1205 64.883 51.1955 64.8889 53.1672 64.4037C55.9327 63.7236 58.3747 62.3525 60.3633 60.3639C66.0931 54.6341 66.2689 45.3495 60.7592 39.4542C58.2733 36.7941 54.7433 35.0064 51.4838 34.7564C50.8822 34.7103 50.2142 34.6534 49.9994 34.6298C49.7845 34.6064 49.0014 34.6384 48.2591 34.7012ZM48.515 40.5677C44.8269 41.1358 41.91 43.6817 40.8417 47.2656C40.3941 48.7669 40.4597 51.0167 40.9964 52.5722C43.253 59.1122 51.3275 61.0306 56.1788 56.1794C61.0144 51.3439 59.095 43.1984 52.6066 41.0205C51.4181 40.6214 49.5258 40.412 48.515 40.5677ZM52.1089 43.4509C53.7495 44.0648 55.2777 45.5925 55.9585 47.2997C56.2491 48.0281 56.3195 48.5056 56.3228 49.7656C56.3264 51.2033 56.2869 51.4125 55.8269 52.3842C55.5516 52.9656 54.9603 53.828 54.5108 54.3033C51.8478 57.1189 47.4203 57.0834 44.8036 54.2253C41.3194 50.4198 43.147 44.4672 48.1961 43.1767C49.2378 42.9105 50.9931 43.0334 52.1089 43.4509Z" fill="#F16122"/>
</g>
<defs>
<clipPath id="clip0_107_207">
<rect width="80" height="80" fill="white"/>
</clipPath>
</defs>
</svg>
